<svg width="136" height="56" viewBox="0 0 136 56" fill="none" xmlns="http://www.w3.org/2000/svg">
<g clip-path="url(#clip0_30_12934)">
<mask id="mask0_30_12934" style="mask-type:alpha" maskUnits="userSpaceOnUse" x="0" y="0" width="56" height="56">
<circle cx="28" cy="28" r="28" fill="#D9D9D9"/>
</mask>
<g mask="url(#mask0_30_12934)">
<path fill-rule="evenodd" clip-rule="evenodd" d="M-2.95053 -76.4458L-195.667 116.267L-196.337 115.597L-3.62135 -77.1166L-2.95053 -76.4458ZM1.85897 -76.4458L-190.857 116.267L-191.528 115.597L1.18815 -77.1166L1.85897 -76.4458ZM6.66856 -76.4458L-186.047 116.267L-186.718 115.597L5.99774 -77.1166L6.66856 -76.4458ZM11.4781 -76.4457L-181.238 116.267L-181.909 115.597L10.8073 -77.1166L11.4781 -76.4457ZM16.2877 -76.4458L-176.428 116.267L-177.099 115.597L15.6169 -77.1167L16.2877 -76.4458ZM21.0972 -76.4457L-171.619 116.267L-172.29 115.597L20.4264 -77.1166L21.0972 -76.4457ZM25.9069 -76.4458L-166.809 116.267L-167.48 115.597L25.236 -77.1167L25.9069 -76.4458ZM31.0495 -76.4458L-161.667 116.267L-162.337 115.597L30.3787 -77.1167L31.0495 -76.4458ZM35.859 -76.4458L-156.857 116.267L-157.528 115.597L35.1882 -77.1166L35.859 -76.4458ZM40.6686 -76.4458L-152.047 116.267L-152.718 115.597L39.9978 -77.1166L40.6686 -76.4458ZM46.0495 -76.4459L-146.667 116.267L-147.337 115.597L45.3787 -77.1167L46.0495 -76.4459ZM50.859 -76.4458L-141.857 116.267L-142.528 115.597L50.1882 -77.1166L50.859 -76.4458ZM55.6686 -76.4458L-137.047 116.267L-137.718 115.597L54.9978 -77.1166L55.6686 -76.4458ZM60.4781 -76.4458L-132.238 116.267L-132.909 115.597L59.8073 -77.1166L60.4781 -76.4458ZM65.2878 -76.4459L-127.428 116.267L-128.099 115.597L64.6169 -77.1167L65.2878 -76.4459ZM70.0973 -76.4458L-122.619 116.267L-123.29 115.597L69.4264 -77.1166L70.0973 -76.4458ZM74.9069 -76.4459L-117.809 116.267L-118.48 115.597L74.2361 -77.1167L74.9069 -76.4459ZM80.0495 -76.4459L-112.667 116.267L-113.337 115.597L79.3787 -77.1167L80.0495 -76.4459ZM84.859 -76.4458L-107.857 116.267L-108.528 115.597L84.1882 -77.1166L84.859 -76.4458ZM89.6686 -76.4458L-103.047 116.267L-103.718 115.597L88.9978 -77.1167L89.6686 -76.4458ZM94.4781 -76.4458L-98.2379 116.267L-98.9087 115.597L93.8073 -77.1166L94.4781 -76.4458ZM99.2878 -76.4459L-93.4283 116.267L-94.0991 115.597L98.617 -77.1167L99.2878 -76.4459ZM104.097 -76.4458L-88.6188 116.267L-89.2896 115.597L103.426 -77.1166L104.097 -76.4458ZM108.907 -76.4459L-83.8092 116.267L-84.48 115.597L108.236 -77.1167L108.907 -76.4459ZM113.716 -76.4458L-78.9996 116.267L-79.6704 115.597L113.046 -77.1166L113.716 -76.4458ZM118.526 -76.4458L-74.1901 116.267L-74.8609 115.597L117.855 -77.1166L118.526 -76.4458ZM123.336 -76.4458L-69.3805 116.267L-70.0513 115.597L122.665 -77.1166L123.336 -76.4458ZM128.145 -76.4459L-64.5709 116.267L-65.2417 115.597L127.474 -77.1167L128.145 -76.4459ZM132.955 -76.4458L-59.7614 116.267L-60.4322 115.597L132.284 -77.1166L132.955 -76.4458ZM137.764 -76.4458L-54.9518 116.267L-55.6226 115.597L137.093 -77.1166L137.764 -76.4458ZM142.574 -76.4458L-50.1422 116.267L-50.8131 115.597L141.903 -77.1166L142.574 -76.4458ZM147.383 -76.4458L-45.3327 116.267L-46.0035 115.597L146.713 -77.1166L147.383 -76.4458ZM152.193 -76.4457L-40.5231 116.267L-41.1939 115.597L151.522 -77.1165L152.193 -76.4457ZM157.003 -76.4458L-35.7136 116.267L-36.3844 115.597L156.332 -77.1167L157.003 -76.4458ZM161.812 -76.4458L-30.904 116.267L-31.5748 115.597L161.141 -77.1166L161.812 -76.4458ZM166.622 -76.4458L-26.0944 116.267L-26.7652 115.597L165.951 -77.1166L166.622 -76.4458ZM171.431 -76.4458L-21.2848 116.267L-21.9556 115.597L170.76 -77.1166L171.431 -76.4458ZM176.241 -76.4458L-16.4753 116.267L-17.1461 115.597L175.57 -77.1166L176.241 -76.4458ZM181.05 -76.4458L-11.6657 116.267L-12.3365 115.597L180.379 -77.1166L181.05 -76.4458ZM185.86 -76.4459L-6.85616 116.267L-7.52699 115.597L185.189 -77.1167L185.86 -76.4459ZM190.669 -76.4458L-2.04657 116.267L-2.7174 115.597L189.999 -77.1166L190.669 -76.4458ZM195.479 -76.4459L2.76302 116.267L2.09219 115.597L194.808 -77.1167L195.479 -76.4459ZM200.289 -76.4458L7.57259 116.267L6.90176 115.597L199.618 -77.1166L200.289 -76.4458ZM205.098 -76.4458L12.3822 116.267L11.7113 115.597L204.427 -77.1167L205.098 -76.4458ZM209.908 -76.4457L17.1918 116.267L16.5209 115.597L209.237 -77.1166L209.908 -76.4457ZM214.717 -76.4459L22.0013 116.267L21.3305 115.597L214.047 -77.1167L214.717 -76.4459ZM219.527 -76.4458L26.8109 116.267L26.1401 115.597L218.856 -77.1166L219.527 -76.4458ZM224.336 -76.4458L31.6205 116.267L30.9496 115.597L223.666 -77.1167L224.336 -76.4458ZM229.146 -76.4457L36.43 116.267L35.7592 115.597L228.475 -77.1165L229.146 -76.4457ZM233.956 -76.4458L41.241 116.267L40.5702 115.597L233.285 -77.1166L233.956 -76.4458ZM238.765 -76.4458L46.0507 116.267L45.3799 115.596L238.094 -77.1166L238.765 -76.4458ZM243.575 -76.4458L50.8588 116.267L50.1879 115.597L242.904 -77.1166L243.575 -76.4458ZM248.384 -76.4458L55.6683 116.267L54.9975 115.597L247.714 -77.1166L248.384 -76.4458ZM253.194 -76.4458L60.478 116.267L59.8071 115.597L252.523 -77.1166L253.194 -76.4458ZM258.004 -76.4457L65.2875 116.267L64.6167 115.597L257.333 -77.1166L258.004 -76.4457ZM262.813 -76.4458L87.7662 98.5997L87.0953 97.9289L262.142 -77.1167L262.813 -76.4458Z" fill="#DFDFDF"/>
</g>
</g>
<path d="M22 37V19" stroke="black" stroke-width="3" stroke-linecap="round" stroke-linejoin="round"/>
<path d="M34 37V19" stroke="black" stroke-width="3" stroke-linecap="round" stroke-linejoin="round"/>
<g clip-path="url(#clip1_30_12934)">
<mask id="mask1_30_12934" style="mask-type:alpha" maskUnits="userSpaceOnUse" x="80" y="0" width="56" height="56">
<circle cx="108" cy="28" r="28" fill="#D9D9D9"/>
</mask>
<g mask="url(#mask1_30_12934)">
<path fill-rule="evenodd" clip-rule="evenodd" d="M77.0495 -76.4458L-115.667 116.267L-116.337 115.597L76.3786 -77.1166L77.0495 -76.4458ZM81.859 -76.4458L-110.857 116.267L-111.528 115.597L81.1881 -77.1166L81.859 -76.4458ZM86.6686 -76.4458L-106.047 116.267L-106.718 115.597L85.9977 -77.1166L86.6686 -76.4458ZM91.4781 -76.4457L-101.238 116.267L-101.909 115.597L90.8073 -77.1166L91.4781 -76.4457ZM96.2877 -76.4458L-96.4283 116.267L-97.0991 115.597L95.6169 -77.1167L96.2877 -76.4458ZM101.097 -76.4457L-91.6188 116.267L-92.2896 115.597L100.426 -77.1166L101.097 -76.4457ZM105.907 -76.4458L-86.8092 116.267L-87.48 115.597L105.236 -77.1167L105.907 -76.4458ZM111.049 -76.4458L-81.6666 116.267L-82.3374 115.597L110.379 -77.1167L111.049 -76.4458ZM115.859 -76.4458L-76.857 116.267L-77.5278 115.597L115.188 -77.1166L115.859 -76.4458ZM120.669 -76.4458L-72.0475 116.267L-72.7183 115.597L119.998 -77.1166L120.669 -76.4458ZM126.05 -76.4459L-66.6666 116.267L-67.3374 115.597L125.379 -77.1167L126.05 -76.4459ZM130.859 -76.4458L-61.857 116.267L-62.5278 115.597L130.188 -77.1166L130.859 -76.4458ZM135.669 -76.4458L-57.0475 116.267L-57.7183 115.597L134.998 -77.1166L135.669 -76.4458ZM140.478 -76.4458L-52.2379 116.267L-52.9087 115.597L139.807 -77.1166L140.478 -76.4458ZM145.288 -76.4459L-47.4283 116.267L-48.0991 115.597L144.617 -77.1167L145.288 -76.4459ZM150.097 -76.4458L-42.6188 116.267L-43.2896 115.597L149.426 -77.1166L150.097 -76.4458ZM154.907 -76.4459L-37.8092 116.267L-38.48 115.597L154.236 -77.1167L154.907 -76.4459ZM160.05 -76.4459L-32.6666 116.267L-33.3374 115.597L159.379 -77.1167L160.05 -76.4459ZM164.859 -76.4458L-27.857 116.267L-28.5278 115.597L164.188 -77.1166L164.859 -76.4458ZM169.669 -76.4458L-23.0475 116.267L-23.7183 115.597L168.998 -77.1167L169.669 -76.4458ZM174.478 -76.4458L-18.2379 116.267L-18.9087 115.597L173.807 -77.1166L174.478 -76.4458ZM179.288 -76.4459L-13.4283 116.267L-14.0991 115.597L178.617 -77.1167L179.288 -76.4459ZM184.097 -76.4458L-8.61876 116.267L-9.28958 115.597L183.426 -77.1166L184.097 -76.4458ZM188.907 -76.4459L-3.8092 116.267L-4.48002 115.597L188.236 -77.1167L188.907 -76.4459ZM193.716 -76.4458L1.00039 116.267L0.329566 115.597L193.046 -77.1166L193.716 -76.4458ZM198.526 -76.4458L5.80993 116.267L5.13911 115.597L197.855 -77.1166L198.526 -76.4458ZM203.336 -76.4458L10.6195 116.267L9.94869 115.597L202.665 -77.1166L203.336 -76.4458ZM208.145 -76.4459L15.4291 116.267L14.7583 115.597L207.474 -77.1167L208.145 -76.4459ZM212.955 -76.4458L20.2386 116.267L19.5678 115.597L212.284 -77.1166L212.955 -76.4458ZM217.764 -76.4458L25.0482 116.267L24.3774 115.597L217.093 -77.1166L217.764 -76.4458ZM222.574 -76.4458L29.8578 116.267L29.1869 115.597L221.903 -77.1166L222.574 -76.4458ZM227.383 -76.4458L34.6673 116.267L33.9965 115.597L226.713 -77.1166L227.383 -76.4458ZM232.193 -76.4457L39.4769 116.267L38.8061 115.597L231.522 -77.1165L232.193 -76.4457ZM237.003 -76.4458L44.2864 116.267L43.6156 115.597L236.332 -77.1167L237.003 -76.4458ZM241.812 -76.4458L49.096 116.267L48.4252 115.597L241.141 -77.1166L241.812 -76.4458ZM246.622 -76.4458L53.9056 116.267L53.2348 115.597L245.951 -77.1166L246.622 -76.4458ZM251.431 -76.4458L58.7152 116.267L58.0444 115.597L250.76 -77.1166L251.431 -76.4458ZM256.241 -76.4458L63.5247 116.267L62.8539 115.597L255.57 -77.1166L256.241 -76.4458ZM261.05 -76.4458L68.3343 116.267L67.6635 115.597L260.379 -77.1166L261.05 -76.4458ZM265.86 -76.4459L73.1438 116.267L72.473 115.597L265.189 -77.1167L265.86 -76.4459ZM270.669 -76.4458L77.9534 116.267L77.2826 115.597L269.999 -77.1166L270.669 -76.4458ZM275.479 -76.4459L82.763 116.267L82.0922 115.597L274.808 -77.1167L275.479 -76.4459ZM280.289 -76.4458L87.5726 116.267L86.9018 115.597L279.618 -77.1166L280.289 -76.4458ZM285.098 -76.4458L92.3822 116.267L91.7113 115.597L284.427 -77.1167L285.098 -76.4458ZM289.908 -76.4457L97.1918 116.267L96.5209 115.597L289.237 -77.1166L289.908 -76.4457ZM294.717 -76.4459L102.001 116.267L101.331 115.597L294.047 -77.1167L294.717 -76.4459ZM299.527 -76.4458L106.811 116.267L106.14 115.597L298.856 -77.1166L299.527 -76.4458ZM304.336 -76.4458L111.62 116.267L110.95 115.597L303.666 -77.1167L304.336 -76.4458ZM309.146 -76.4457L116.43 116.267L115.759 115.597L308.475 -77.1165L309.146 -76.4457ZM313.956 -76.4458L121.241 116.267L120.57 115.597L313.285 -77.1166L313.956 -76.4458ZM318.765 -76.4458L126.051 116.267L125.38 115.596L318.094 -77.1166L318.765 -76.4458ZM323.575 -76.4458L130.859 116.267L130.188 115.597L322.904 -77.1166L323.575 -76.4458ZM328.384 -76.4458L135.668 116.267L134.998 115.597L327.714 -77.1166L328.384 -76.4458ZM333.194 -76.4458L140.478 116.267L139.807 115.597L332.523 -77.1166L333.194 -76.4458ZM338.004 -76.4457L145.288 116.267L144.617 115.597L337.333 -77.1166L338.004 -76.4457ZM342.813 -76.4458L167.766 98.5997L167.095 97.9289L342.142 -77.1167L342.813 -76.4458Z" fill="#DFDFDF"/>
</g>
</g>
<path d="M99.3521 36.6983L116.698 19.3521M116.698 36.6983L99.3521 19.3521" stroke="#222222" stroke-width="2" stroke-linecap="round"/>
<defs>
<clipPath id="clip0_30_12934">
<rect width="56" height="56" fill="white"/>
</clipPath>
<clipPath id="clip1_30_12934">
<rect width="56" height="56" fill="white" transform="translate(80)"/>
</clipPath>
</defs>
</svg>
