<svg xmlns="http://www.w3.org/2000/svg" version="1.1" xmlns:xlink="http://www.w3.org/1999/xlink" width="50" height="50"><svg xmlns="http://www.w3.org/2000/svg" width="50" height="50" viewBox="0 0 50 50"><g fill="none" fill-rule="evenodd"><g fill="#222"><g><path d="M34.134 2.885c1.328 0 2.404 1.075 2.404 2.403s-1.076 2.404-2.404 2.404c-1.327 0-2.403-1.076-2.403-2.404 0-1.328 1.076-2.403 2.403-2.403" transform="translate(-69 -68) translate(69 68)"></path><path d="M47.056 14.922c-1.972-3.039-5.906-4.124-9.157-2.527-3.476 1.763-4.863 6.009-3.1 9.484 1.005 1.979 2.882 3.37 5.067 3.756-.264 8.373-7.268 14.947-15.643 14.683-8.134-.258-14.617-6.888-14.69-15.027-.014-6.27 3.886-11.883 9.767-14.056 1.13-.409 1.78-1.593 1.522-2.767l-.018-.074c-.288-1.284.519-2.559 1.802-2.847.105-.025.21-.04.318-.05.59-.054 1.184-.08 1.78-.08.739 0 1.476.038 2.21.12 1.326.145 2.519-.813 2.663-2.139.005-.043.009-.087.011-.13.035-1.316-.962-2.43-2.272-2.541-.868-.09-1.74-.136-2.612-.136C11.06.59 0 11.65 0 25.295 0 38.94 11.06 50.001 24.705 50 38.349 50 49.41 38.94 49.41 25.295c0-2.415-.486-7.622-2.354-10.373" transform="translate(-69 -68) translate(69 68)"></path></g></g></g></svg><style>@media (prefers-color-scheme: light) { :root { filter: none; } }
@media (prefers-color-scheme: dark) { :root { filter: none; } }
</style></svg>