<svg width="112" height="26" viewBox="0 0 112 26" fill="none" xmlns="http://www.w3.org/2000/svg">
<path fill-rule="evenodd" clip-rule="evenodd" d="M20.3217 13.9476C20.3652 13.673 20.3722 13.4252 20.3198 13.2147C20.2134 12.7883 20.0483 12.5333 19.3578 12.0206C18.4658 11.3579 17.7496 10.4002 17.7496 9.16988C17.7496 7.28297 19.2779 5.75404 21.1621 5.75404C22.4563 5.75404 23.4698 6.56337 23.988 7.34158C24.3715 7.91725 24.7486 8.67059 24.974 9.55009C25.1915 10.3977 25.3602 11.3544 25.3602 12.6923C25.3602 19.7017 19.6835 25.3846 12.6802 25.3846C5.67684 25.3846 0 19.7017 0 12.6923C0 5.68289 5.67663 0 12.6802 0C13.4513 0 13.6982 0.0399853 14.0549 0.105706C14.7508 0.232746 15.2389 0.748917 15.1705 1.43386C15.1199 1.93846 14.7764 2.34176 14.3264 2.49368C13.7238 2.69356 12.0908 2.32579 11.2575 3.00007C10.849 3.33053 10.6753 3.68144 10.5013 4.12831C10.3273 4.57517 10.1765 5.22634 9.03772 5.84999C6.57481 7.20034 4.93554 9.72953 4.93554 12.6923C4.93554 16.9734 8.40223 20.4416 12.6793 20.4416C16.5274 20.4416 19.7376 17.6326 20.3207 13.9476H20.3217ZM17.928 1.12647C17.1327 1.12647 16.4883 1.77143 16.4883 2.56743C16.4883 3.36344 17.1327 4.00837 17.928 4.00837C18.7234 4.00837 19.3675 3.36341 19.3675 2.56743C19.3675 1.77145 18.7234 1.12647 17.928 1.12647Z" fill="#222222"/>
<path d="M41.246 8.89023L35.0671 16.4708H40.3436C41.1095 16.4708 41.665 17.0269 41.665 17.7936C41.665 18.5602 41.1095 19.134 40.3436 19.134H32.298C31.3938 19.134 30.7617 18.5088 30.7617 17.6142C30.7617 17.2267 30.9347 16.7852 31.2144 16.4619L37.3428 8.91506H32.4411C31.6625 8.91506 31.1194 8.36342 31.1194 7.57453C31.1194 6.78564 31.6751 6.2517 32.4411 6.2517H40.111C41.0259 6.2517 41.665 6.88425 41.665 7.7895C41.665 8.18128 41.5124 8.58284 41.246 8.89023ZM51.5787 16.3988H46.1958V13.8012H50.5776C51.3347 13.8012 51.8636 13.2716 51.8636 12.514C51.8636 11.7562 51.3347 11.2266 50.5776 11.2266H46.1958V8.98709H51.4004C52.2001 8.98709 52.7583 8.42117 52.7583 7.61007C52.7583 6.79899 52.2001 6.25082 51.4004 6.25082H44.6417C43.7517 6.25082 43.1054 6.89758 43.1054 7.78862V17.5786C43.1054 18.4804 43.7517 19.134 44.6417 19.134H51.5787C52.3785 19.134 52.9367 18.5681 52.9367 17.7572C52.9367 16.9461 52.3785 16.3979 51.5787 16.3979V16.3988ZM64.6183 6.162C63.7386 6.162 63.0996 6.79363 63.0996 7.66425V14.0872L58.1677 7.13565C57.7498 6.51734 57.1284 6.16288 56.4654 6.16288C55.3268 6.16288 54.4996 6.98995 54.4996 8.12972V17.7048C54.4996 18.5994 55.1244 19.2246 56.018 19.2246C56.9118 19.2246 57.5189 18.5994 57.5189 17.7048V11.0862L62.5771 18.2351C63.0039 18.8543 63.6401 19.2246 64.2782 19.2246C65.3441 19.2246 66.119 18.4431 66.119 17.3646V7.66425C66.119 6.79363 65.4881 6.162 64.6183 6.162ZM69.2653 16.2309C68.4365 16.2309 67.7627 16.8991 67.7627 17.7207C67.7627 18.5425 68.4374 19.2246 69.2653 19.2246C70.0934 19.2246 70.7537 18.5495 70.7537 17.7207C70.7537 16.8919 70.0862 16.2309 69.2653 16.2309ZM81.2979 15.1461C80.8021 15.1461 80.4197 15.4084 80.2389 15.5611C79.8081 15.9084 79.1585 16.4345 77.7936 16.4345C75.7132 16.4345 74.145 14.8254 74.145 12.6924C74.145 10.5594 75.7132 8.9506 77.7936 8.9506C78.9119 8.9506 79.5733 9.32105 80.1223 9.7226C80.3491 9.88435 80.7093 10.0781 81.1376 10.0781C81.9492 10.0781 82.5846 9.43386 82.5846 8.61219C82.5846 8.06221 82.3046 7.59672 81.7572 7.23161C80.6482 6.46226 79.3322 6.07227 77.8476 6.07227C74.0385 6.07227 71.0546 9.0039 71.0546 12.7467C71.0546 16.4894 73.9363 19.3136 77.7582 19.3136C80.2873 19.3136 81.7009 18.2146 82.1887 17.7446C82.5314 17.4249 82.7274 16.9994 82.7274 16.5765C82.7274 15.7476 82.1253 15.1461 81.2979 15.1461ZM96.8277 12.6391C96.8277 16.382 93.8434 19.3136 90.0342 19.3136C86.2249 19.3136 83.331 16.4903 83.331 12.7467C83.331 9.00303 86.3145 6.07227 90.1238 6.07227C93.9331 6.07227 96.8277 8.89554 96.8277 12.6391ZM93.7364 12.6933C93.7364 10.5604 92.1601 8.95155 90.0699 8.95155C87.9796 8.95155 86.4216 10.5604 86.4216 12.6933C86.4216 14.8263 87.9899 16.4351 90.0699 16.4351C92.1498 16.4351 93.7364 14.8263 93.7364 12.6933ZM110.015 6.162C109.313 6.162 108.708 6.55555 108.356 7.2405L105.152 13.2965L102.055 7.40217C101.634 6.60262 100.995 6.162 100.253 6.162C99.1663 6.162 98.377 6.95176 98.377 8.04V17.7225C98.377 18.593 99.0084 19.2246 99.8778 19.2246C100.747 19.2246 101.379 18.593 101.379 17.7225V11.7792L103.709 16.1776C103.959 16.6466 104.344 17.1841 105.098 17.1841C105.853 17.1841 106.237 16.6068 106.452 16.1766L108.782 11.7792V17.7225C108.782 18.593 109.422 19.2246 110.301 19.2246C111.18 19.2246 111.784 18.593 111.784 17.7225V7.95116C111.784 6.91446 111.04 6.16288 110.015 6.16288V6.162Z" fill="#222222"/>
</svg>
