<svg width="12" height="12" viewBox="0 0 12 12" fill="none" xmlns="http://www.w3.org/2000/svg">
<path d="M10.1471 3.06351L10.7461 3.0295C10.7281 2.71185 10.4652 2.46351 10.1471 2.46351V3.06351ZM10.5015 9.30477H11.1015V9.28775L11.1005 9.27076L10.5015 9.30477ZM3.13791 11.1555L3.05813 11.7502L3.09784 11.7555H3.13791V11.1555ZM1.89753 3.06351V2.46351C1.58498 2.46351 1.32479 2.70344 1.29949 3.01496L1.89753 3.06351ZM3.60851 8.43862C3.36939 8.66803 3.36152 9.04785 3.59093 9.28697C3.82034 9.52609 4.20015 9.53396 4.43927 9.30455L4.02389 8.87158L3.60851 8.43862ZM8.31794 5.5834C8.55705 5.35399 8.56493 4.97417 8.33552 4.73505C8.10611 4.49593 7.72629 4.48806 7.48717 4.71747L7.90255 5.15043L8.31794 5.5834ZM3.67005 5.23124C3.67005 5.56261 3.93868 5.83124 4.27005 5.83124C4.60143 5.83124 4.87005 5.56261 4.87005 5.23124H4.27005H3.67005ZM4.87005 5.18742C4.87005 4.85604 4.60143 4.58742 4.27005 4.58742C3.93868 4.58742 3.67005 4.85604 3.67005 5.18742H4.27005H4.87005ZM7.27573 8.8276C7.27573 9.15897 7.54436 9.4276 7.87573 9.4276C8.2071 9.4276 8.47573 9.15897 8.47573 8.8276H7.87573H7.27573ZM8.47573 8.78377C8.47573 8.4524 8.2071 8.18377 7.87573 8.18377C7.54436 8.18377 7.27573 8.4524 7.27573 8.78377H7.87573H8.47573ZM10.1471 3.06351L9.54803 3.09753L9.90242 9.33879L10.5015 9.30477L11.1005 9.27076L10.7461 3.0295L10.1471 3.06351ZM10.5015 9.30477H9.90146C9.90146 9.52485 9.83501 9.86264 9.65741 10.1261C9.50145 10.3575 9.24915 10.5555 8.76886 10.5555V11.1555V11.7555C9.67465 11.7555 10.2887 11.3366 10.6525 10.7968C10.9946 10.2892 11.1015 9.7016 11.1015 9.30477H10.5015ZM8.76886 11.1555V10.5555H3.13791V11.1555V11.7555H8.76886V11.1555ZM3.13791 11.1555L3.21768 10.5608C3.04507 10.5377 2.75548 10.4415 2.52085 10.2391C2.30595 10.0536 2.12344 9.77041 2.12344 9.30477H1.52344H0.923437C0.923437 10.1465 1.27908 10.7525 1.73688 11.1476C2.17494 11.5256 2.69259 11.7011 3.05813 11.7502L3.13791 11.1555ZM1.52344 9.30477H2.12344C2.12344 8.0272 2.37015 4.65654 2.49556 3.11207L1.89753 3.06351L1.29949 3.01496C1.17551 4.54189 0.923437 7.96769 0.923437 9.30477H1.52344ZM1.89753 3.06351V3.66351H4.02389V3.06351V2.46351H1.89753V3.06351ZM4.02389 3.06351L4.62295 3.09711C4.63797 2.8293 4.73672 2.41683 4.96443 2.08934C5.17386 1.78813 5.48783 1.55679 6.01244 1.55679V0.956787V0.356787C5.04072 0.356787 4.3801 0.82769 3.97919 1.40428C3.59655 1.95459 3.44919 2.59549 3.42483 3.02992L4.02389 3.06351ZM4.02389 3.06351V3.66351H8.07975V3.06351V2.46351H4.02389V3.06351ZM8.07975 3.06351V3.66351H10.1471V3.06351V2.46351H8.07975V3.06351ZM6.01244 0.956787V1.55679C6.53954 1.55679 6.87116 1.79098 7.09862 2.10143C7.34276 2.43463 7.45731 2.85134 7.48235 3.11934L8.07975 3.06351L8.67715 3.00768C8.63657 2.57345 8.46563 1.93679 8.0666 1.39219C7.6509 0.824832 6.98169 0.356787 6.01244 0.356787V0.956787ZM4.02389 8.87158L4.43927 9.30455L8.31794 5.5834L7.90255 5.15043L7.48717 4.71747L3.60851 8.43862L4.02389 8.87158ZM4.27005 5.23124H4.87005V5.18742H4.27005H3.67005V5.23124H4.27005ZM7.87573 8.8276H8.47573V8.78377H7.87573H7.27573V8.8276H7.87573Z" fill="#139028"/>
</svg>
