<svg width="13" height="12" viewBox="0 0 13 12" fill="none" xmlns="http://www.w3.org/2000/svg">
<path d="M4.22668 6.10811L5.66536 7.37837L7.88593 4.62109M3.90537 2.08427L3.13084 2.00976C2.49831 1.94891 1.96703 2.47518 2.02846 3.10174L2.10368 3.86897C2.13617 4.20043 1.99996 4.52616 1.74038 4.73778L1.13951 5.2276C0.648808 5.62762 0.648809 6.37187 1.13951 6.77189L1.74038 7.26171C1.99997 7.47333 2.13617 7.79906 2.10368 8.13052L2.02846 8.89775C1.96703 9.52431 2.49831 10.0506 3.13084 9.98973L3.90537 9.91522C4.23998 9.88303 4.56882 10.018 4.78245 10.2751L5.27694 10.8703C5.68077 11.3564 6.43211 11.3564 6.83594 10.8703L7.33043 10.2751C7.54406 10.018 7.87289 9.88303 8.20751 9.91522L8.98204 9.98973C9.61457 10.0506 10.1459 9.52431 10.0844 8.89775L10.0092 8.13052C9.9767 7.79906 10.1129 7.47333 10.3725 7.26171L10.9734 6.77189C11.4641 6.37187 11.4641 5.62762 10.9734 5.2276L10.3725 4.73778C10.1129 4.52616 9.9767 4.20043 10.0092 3.86897L10.0844 3.10174C10.1459 2.47518 9.61457 1.94891 8.98204 2.00976L8.20751 2.08427C7.87289 2.11646 7.54406 1.98154 7.33043 1.7244L6.83594 1.1292C6.43211 0.64313 5.68077 0.64313 5.27694 1.1292L4.78245 1.7244C4.56882 1.98154 4.23998 2.11646 3.90537 2.08427Z" stroke="#A3A3A3" stroke-width="1.2" stroke-linecap="round" stroke-linejoin="round"/>
</svg>
