<svg width="24" height="18" viewBox="0 0 24 18" fill="none" xmlns="http://www.w3.org/2000/svg">
<path d="M17.197 5.40431C17.2833 5.45917 17.3711 5.51403 17.4557 5.57282C17.4922 5.59633 17.5204 5.57282 17.5519 5.56106C17.5834 5.5493 17.6282 5.49052 17.6597 5.52383C17.6912 5.55714 17.6514 5.612 17.6431 5.65707C17.6289 5.71694 17.6233 5.77919 17.6265 5.84125C17.6668 5.79104 17.7024 5.73586 17.7327 5.67666C17.8255 5.45133 17.8504 5.4337 18.056 5.48072C18.0477 5.49248 18.0428 5.5062 18.0361 5.51599C18.0255 5.52994 18.0189 5.54743 18.0171 5.56604C18.0153 5.58465 18.0185 5.60346 18.0262 5.61984C18.0477 5.65315 18.0826 5.61984 18.1108 5.61984C18.2683 5.55126 18.2766 5.55126 18.3811 5.63747C18.3462 5.68254 18.2832 5.68646 18.2534 5.76287C18.3303 5.76422 18.4071 5.75501 18.4822 5.73544C18.5067 5.7248 18.5333 5.72362 18.5584 5.73208C18.5834 5.74053 18.6055 5.75818 18.6215 5.78247C18.7561 5.95191 18.8535 6.15778 18.9051 6.38204C18.8769 6.40947 18.857 6.37224 18.8338 6.38204C18.8266 6.40036 18.8254 6.42123 18.8307 6.44048C18.8359 6.45973 18.8471 6.47594 18.862 6.48588C18.9963 6.56426 19.0643 6.72885 19.1936 6.82094C19.2875 6.90336 19.352 7.02425 19.3744 7.15991C19.4142 7.3245 19.4424 7.493 19.4789 7.66935L19.313 7.61056C19.3296 7.70265 19.3628 7.77907 19.4324 7.8065C19.5684 7.84373 19.5983 7.96521 19.6248 8.09649C19.6331 8.13568 19.6364 8.17486 19.6447 8.22385L19.5187 8.16507C19.5176 8.20551 19.5253 8.2456 19.541 8.28159C19.5566 8.31757 19.5798 8.34827 19.6082 8.3708C19.6313 8.3861 19.6496 8.40982 19.6604 8.43843C19.6712 8.46703 19.6738 8.49899 19.6679 8.52951C19.6621 8.57819 19.6697 8.62781 19.6897 8.67091C19.7098 8.71401 19.7411 8.74827 19.779 8.76855C19.9173 8.87419 20.0768 8.93488 20.2413 8.94451C20.4058 8.95414 20.5695 8.91237 20.716 8.82342C20.7378 8.81495 20.7567 8.79833 20.7699 8.77608C20.783 8.75382 20.7897 8.72711 20.7889 8.69998C20.7963 8.61322 20.8289 8.53219 20.8813 8.47072C20.9336 8.40924 21.0024 8.37116 21.0758 8.36296C21.1824 8.35286 21.2895 8.37201 21.3887 8.41892C21.488 8.46582 21.5767 8.53922 21.6479 8.63336C21.9795 9.01669 22.2099 9.50535 22.3113 10.0402C22.4182 10.5612 22.4216 11.1044 22.3212 11.6273C22.3063 11.7096 22.3212 11.7409 22.3892 11.7566C22.5274 11.7928 22.6711 11.7865 22.8066 11.7385C22.9422 11.6905 23.0651 11.6023 23.1636 11.4823C23.4865 11.1255 23.6772 10.6326 23.6943 10.1107C23.7289 9.6253 23.657 9.13753 23.4856 8.69446C23.3143 8.25139 23.0492 7.86797 22.7159 7.58117C22.6281 7.49308 22.5238 7.43082 22.4117 7.39949C22.2996 7.36816 22.1827 7.36865 22.0708 7.40091C21.95 7.42584 21.8257 7.41188 21.7111 7.36051C21.5964 7.30915 21.4956 7.22226 21.4191 7.10896C21.496 7.11287 21.572 7.13003 21.6446 7.15991C21.6314 6.93654 21.8105 7.07761 21.8702 6.98944C21.8353 6.92282 21.7176 6.88168 21.5567 6.88756C21.5352 6.92282 21.5882 6.96789 21.5567 6.99336C21.5252 7.01883 21.4904 6.97573 21.4589 6.97965C21.3445 6.99924 21.2931 6.91499 21.2632 6.8131C21.2429 6.76369 21.2172 6.7176 21.1869 6.67594C21.1529 6.63438 21.1169 6.59513 21.0791 6.55838C21.2797 6.46829 21.4875 6.40263 21.6994 6.36244C21.7542 6.35098 21.8103 6.35098 21.8652 6.36244C21.91 6.3742 21.9448 6.38596 21.8901 6.43886C21.8668 6.46041 21.8702 6.47805 21.8901 6.49764C21.9169 6.53043 21.9495 6.55572 21.9857 6.57165C22.0219 6.58759 22.0606 6.59376 22.099 6.58973C22.1106 6.53879 22.0692 6.5094 22.0725 6.44866C22.1643 6.48731 22.2422 6.562 22.293 6.66027C22.451 6.94974 22.6603 7.19512 22.9066 7.37936C23.2281 7.65034 23.4841 8.01571 23.6495 8.43938C23.829 8.81562 23.9426 9.23074 23.9833 9.65996C24.024 10.0892 23.9912 10.5237 23.8867 10.9376C23.7705 11.3851 23.5342 11.7758 23.2134 12.0505C22.9388 12.2901 22.5971 12.3966 22.2582 12.3483C22.2072 12.3395 22.1552 12.3512 22.1106 12.3816C22.029 12.4301 21.9381 12.4524 21.8469 12.4463C21.5368 12.4463 21.2284 12.4463 20.9183 12.4463C20.8619 12.4463 20.832 12.4463 20.8636 12.3601C20.8951 12.2739 20.8851 12.1935 20.9216 12.1191C20.9382 12.0858 20.9581 12.0505 20.9896 12.0505C21.0211 12.0505 21.0211 12.0975 21.0344 12.125C21.0555 12.17 21.0743 12.2164 21.0907 12.2641C21.1886 12.1798 21.2101 12.0936 21.1372 12.0054C21.0642 11.9173 21.099 11.8526 21.1587 11.786L21.2002 11.8311C21.2367 11.8781 21.2848 11.8996 21.3229 11.8526C21.3611 11.8056 21.303 11.7684 21.2781 11.737C21.0808 11.4823 21.0377 11.5724 20.8984 11.7938C20.8033 11.9548 20.7555 12.1482 20.7624 12.3444C20.7624 12.4659 20.701 12.4424 20.6413 12.4502C20.5816 12.4581 20.58 12.3993 20.5783 12.3464C20.5783 12.2504 20.5783 12.1504 20.5783 12.0603C20.5783 12.0152 20.5949 11.9898 20.6364 12.025C20.6778 12.0603 20.6745 12.0936 20.7027 12.0407C20.7309 11.9878 20.7607 11.9663 20.7276 11.9114C20.7143 11.8866 20.6981 11.8642 20.6795 11.8448C20.6314 11.8017 20.6496 11.7605 20.6795 11.7115C20.7093 11.6625 20.7209 11.6567 20.7641 11.688C20.8072 11.7194 20.8652 11.735 20.8304 11.6273C20.8138 11.5783 20.842 11.5783 20.8685 11.5822C20.8951 11.5861 20.91 11.594 20.9315 11.5959C20.9423 11.5987 20.9535 11.5969 20.9633 11.5908C20.973 11.5847 20.9805 11.5747 20.9846 11.5626C20.9846 11.5332 20.9664 11.5293 20.9531 11.5176C20.9011 11.4683 20.8352 11.4442 20.7688 11.45C20.7023 11.4558 20.6402 11.4912 20.5949 11.5489C20.5873 11.5584 20.578 11.5658 20.5677 11.5706C20.5574 11.5753 20.5463 11.5773 20.5352 11.5763H20.5087C20.2599 11.5763 20.177 11.6312 20.0841 11.9016C20.0639 11.9653 20.056 12.0335 20.0609 12.1013C20.0658 12.1691 20.0833 12.2347 20.1123 12.2935C20.1322 12.3366 20.1555 12.3816 20.182 12.4345H18.2749C18.2899 12.3854 18.3137 12.3406 18.3446 12.3033C18.3484 12.2937 18.3539 12.2851 18.3607 12.2782C18.3675 12.2712 18.3754 12.266 18.384 12.2629C18.3925 12.2597 18.4016 12.2587 18.4105 12.26C18.4194 12.2612 18.428 12.2646 18.4358 12.27C18.4778 12.2981 18.5264 12.3093 18.5743 12.3019C18.6221 12.2944 18.6667 12.2688 18.7011 12.2288C18.6364 12.1955 18.5767 12.1602 18.5137 12.1328C18.5038 12.1305 18.4945 12.1257 18.4864 12.1186C18.4783 12.1115 18.4716 12.1024 18.4668 12.0919C18.462 12.0814 18.4593 12.0698 18.4588 12.0579C18.4583 12.046 18.4601 12.0341 18.464 12.0231C18.4702 11.9982 18.4741 11.9726 18.4756 11.9467C18.4756 11.8487 18.4756 11.7507 18.391 11.6978C18.3498 11.6702 18.3022 11.6587 18.2551 11.665C18.2081 11.6714 18.1639 11.6952 18.129 11.7331C18.1116 11.7532 18.0956 11.7748 18.0809 11.7977C18.0515 11.7615 18.0174 11.731 17.9797 11.7076C17.8819 11.6704 17.9018 11.5881 17.9217 11.5117C17.9416 11.4353 18.0146 11.4392 18.0726 11.449C18.1515 11.4785 18.2325 11.4988 18.3147 11.5097C18.2955 11.455 18.2637 11.4077 18.223 11.3731C18.1823 11.3385 18.1342 11.318 18.0842 11.3138C17.9748 11.302 17.8487 11.2491 17.7774 11.4117C17.7691 11.4274 17.7509 11.4274 17.7343 11.4255C17.6581 11.4043 17.5779 11.4157 17.5081 11.4577C17.4383 11.4996 17.3833 11.5694 17.3529 11.6547C17.3001 11.7499 17.2603 11.8544 17.2352 11.9643C17.2225 12.0457 17.2256 12.1294 17.2442 12.2092C17.2629 12.2889 17.2967 12.3626 17.3429 12.4247C17.3121 12.4404 17.2782 12.4451 17.2451 12.4385C16.4856 12.4385 15.7261 12.4385 14.9666 12.4385C14.9347 12.4427 14.9025 12.434 14.8753 12.4137C14.8482 12.3934 14.8277 12.3627 14.8173 12.3268C14.7427 12.121 14.7129 11.9231 14.8638 11.739C14.8837 11.7135 14.8787 11.6841 14.882 11.6567C14.8939 11.5605 14.9355 11.4729 14.999 11.411C15.0624 11.349 15.1431 11.3172 15.2253 11.3216C15.274 11.3244 15.3221 11.3071 15.3613 11.2726C15.4192 11.2213 15.4881 11.1902 15.5602 11.183C15.6324 11.1757 15.7048 11.1925 15.7692 11.2315C15.8471 11.2766 15.8654 11.2315 15.882 11.1688C15.9398 10.883 16.0243 10.6057 16.134 10.3419C16.1677 10.2693 16.1863 10.1883 16.1884 10.1055C16.1904 10.0227 16.1757 9.94059 16.1456 9.8658C16.064 9.59965 15.9996 9.3265 15.9533 9.04874C15.9533 9.00172 15.9367 8.95274 15.9732 8.91551C16.0292 8.83962 16.066 8.74657 16.0793 8.64707C15.9981 8.64707 15.9616 8.71565 15.9135 8.80186C15.8986 8.68234 15.8853 8.59417 15.8787 8.50404C15.8763 8.48377 15.8787 8.46312 15.8858 8.44443C15.8928 8.42573 15.9041 8.40973 15.9185 8.39823C16.0262 8.32965 15.9997 8.20229 16.013 8.09061C15.9567 8.12444 15.9069 8.17183 15.867 8.22973V7.94954C15.867 7.92994 15.867 7.90839 15.8836 7.90055C15.9732 7.86136 15.95 7.77319 15.9516 7.69482C15.9468 7.40013 15.9764 7.10607 16.0395 6.82094C16.0438 6.78839 16.0534 6.75712 16.0677 6.72885C16.148 6.61127 16.1913 6.4645 16.1904 6.31346C16.1904 6.21549 16.2949 6.20569 16.3297 6.11752C16.2286 6.11752 16.2584 6.04698 16.2949 5.98624C16.3314 5.9255 16.3529 5.89023 16.3844 5.84321C16.4939 5.68058 16.6149 5.55322 16.809 5.66295C16.8482 5.67726 16.889 5.68517 16.93 5.68646C16.9151 5.60808 16.8571 5.59241 16.8189 5.55126L16.8338 5.53559C17.0246 5.43958 17.0246 5.43958 17.1423 5.63552C17.1605 5.66687 17.1738 5.70801 17.2153 5.72761C17.2278 5.67209 17.2298 5.614 17.2212 5.55746C17.2126 5.50091 17.1936 5.44729 17.1655 5.40039L17.197 5.40431ZM16.4674 11.4588C16.4429 11.4436 16.4153 11.4368 16.3878 11.4392C16.3878 11.3765 16.4541 11.3001 16.3878 11.2432C16.3132 11.1827 16.2317 11.1352 16.1456 11.1022C16.0594 11.0787 16.0296 11.1433 16.013 11.2139C15.9914 11.3157 16.0627 11.2413 16.0876 11.2589C16.1065 11.2709 16.1265 11.2801 16.1473 11.2863C16.234 11.325 16.3177 11.3722 16.3977 11.4274C16.3999 11.4385 16.4043 11.4488 16.4107 11.4574C16.4171 11.4659 16.4251 11.4725 16.4342 11.4764C16.5038 11.5763 16.5088 11.7174 16.5768 11.8271C16.6465 11.5881 16.6149 11.4862 16.4674 11.4588V11.4588ZM19.9133 10.8416C19.9233 10.7671 19.983 10.677 19.9382 10.6241C19.9126 10.5977 19.8931 10.5641 19.8815 10.5264C19.8699 10.4887 19.8666 10.4482 19.8719 10.4085C19.874 10.3503 19.8568 10.2933 19.8238 10.2498C19.7939 10.2498 19.7906 10.2831 19.779 10.3027C19.7044 10.4242 19.7061 10.4477 19.7989 10.5457C19.8205 10.5692 19.8321 10.5927 19.8172 10.6221C19.8022 10.6515 19.8172 10.6829 19.8288 10.7103C19.8557 10.7558 19.8733 10.8082 19.8802 10.8631V10.9141C19.8913 10.9074 19.9004 10.8969 19.9063 10.8839C19.9122 10.871 19.9147 10.8562 19.9133 10.8416V10.8416ZM18.3943 7.252C18.4404 7.12898 18.4537 6.99229 18.4325 6.86012C18.4225 6.81702 18.459 6.81898 18.4772 6.8033C18.5519 6.7504 18.6315 6.69554 18.6547 6.58973C18.6753 6.51884 18.6824 6.44346 18.6755 6.36895C18.6687 6.29444 18.6479 6.22264 18.6149 6.15867C18.5893 6.10854 18.5557 6.06489 18.5158 6.03023C18.4759 5.99557 18.4306 5.9706 18.3825 5.95675C18.3344 5.94291 18.2844 5.94046 18.2355 5.94956C18.1866 5.95866 18.1397 5.97912 18.0975 6.00976C18.0339 6.06065 17.9893 6.13854 17.9731 6.22725C17.9632 6.26839 17.9532 6.29191 17.9118 6.28799C17.806 6.27448 17.699 6.29408 17.6016 6.34481C17.4955 6.39771 17.4076 6.26839 17.3015 6.28799C17.2863 6.293 17.2702 6.293 17.2551 6.28799C17.2363 6.28495 17.2191 6.27378 17.207 6.25664C17.1627 6.16767 17.1068 6.08763 17.0411 6.01955C16.9964 5.96426 16.9385 5.92639 16.8751 5.91099C16.8117 5.89559 16.7458 5.90339 16.6863 5.93334C16.6481 5.95881 16.6083 5.98232 16.5702 6.00388C16.5246 6.04611 16.4871 6.09913 16.46 6.15954C16.4328 6.21994 16.4167 6.28639 16.4126 6.35461C16.4247 6.43577 16.4516 6.51285 16.4914 6.58052C16.5312 6.64819 16.583 6.70482 16.6431 6.74648C16.6525 6.74978 16.6612 6.7555 16.6685 6.76323C16.6758 6.77097 16.6816 6.78052 16.6854 6.7912C16.6892 6.80188 16.691 6.81343 16.6905 6.82501C16.6901 6.83659 16.6875 6.84791 16.6829 6.85816C16.6332 7.02667 16.6829 7.1991 16.6697 7.37544C16.6547 7.49496 16.7443 7.61056 16.8222 7.70461C16.844 7.73017 16.861 7.76089 16.872 7.79475C16.8952 7.86332 16.8853 7.88684 16.8206 7.88488C16.6514 7.88453 16.4849 7.93439 16.3364 8.02987C16.2617 8.07494 16.2601 8.08081 16.28 8.18858C16.4267 8.06884 16.5993 8.00089 16.7775 7.99264C16.809 7.99264 16.8587 7.96129 16.8654 8.03575C16.872 8.1102 16.8654 8.14351 16.809 8.17682C16.6838 8.23394 16.5643 8.30686 16.4524 8.39431C16.4209 8.4133 16.3967 8.44573 16.3847 8.48502C16.3727 8.52432 16.3738 8.56754 16.3878 8.60593C16.4209 8.60593 16.4375 8.57262 16.4574 8.55302C16.5691 8.4463 16.6903 8.35432 16.8189 8.27871C16.8803 8.24148 16.9234 8.23364 16.9665 8.3081C16.9724 8.32213 16.9811 8.33432 16.9917 8.34368C17.0024 8.35305 17.0147 8.35932 17.0278 8.36199C17.0409 8.36466 17.0543 8.36365 17.067 8.35906C17.0797 8.35446 17.0913 8.3464 17.1008 8.33553C17.1788 8.27351 17.268 8.23392 17.3612 8.21993C17.4574 8.20817 17.5104 8.14547 17.4922 8.05534C17.4618 7.96251 17.4193 7.8759 17.3662 7.79866C17.3662 7.79866 17.3546 7.79866 17.3496 7.79866C17.3048 7.81042 17.2683 7.81042 17.2584 7.7438C17.2484 7.67718 17.2783 7.64975 17.3247 7.63212C17.4632 7.5831 17.6108 7.5831 17.7492 7.63212C17.7644 7.63595 17.7787 7.64374 17.7911 7.65492C17.8034 7.66611 17.8135 7.68041 17.8205 7.69678C17.8487 7.75556 17.8205 7.84373 17.7708 7.8261C17.721 7.80846 17.6945 7.84177 17.6763 7.89075C17.6646 7.92965 17.6409 7.96187 17.6099 7.98089C17.5569 8.01224 17.5768 8.06318 17.5817 8.10629C17.5867 8.14939 17.595 8.19054 17.6448 8.20034C17.7636 8.23028 17.8763 8.28753 17.9764 8.36884C18.0146 8.40019 18.0461 8.40215 18.066 8.35121C18.1074 8.24932 18.1622 8.26499 18.2318 8.31006C18.3166 8.36358 18.3976 8.42518 18.4739 8.49424L18.6746 8.69018C18.6891 8.6603 18.6934 8.625 18.6866 8.5915C18.6798 8.558 18.6625 8.52882 18.6381 8.50992C18.5112 8.39019 18.3712 8.29132 18.2219 8.21601C18.1622 8.18858 18.1605 8.14351 18.1705 8.08669C18.1804 8.02987 18.2285 8.04946 18.26 8.05338C18.4431 8.07875 18.6204 8.14526 18.7824 8.24932C18.7882 8.23509 18.7912 8.2195 18.7913 8.20369C18.7913 8.18789 18.7884 8.17227 18.7827 8.15799C18.7769 8.14371 18.7686 8.13112 18.7582 8.12116C18.7478 8.11119 18.7357 8.1041 18.7227 8.10041C18.5628 8.00832 18.3894 7.95376 18.2119 7.93974C18.1904 7.93974 18.1638 7.93974 18.1522 7.91623C18.1406 7.89271 18.1522 7.8888 18.1721 7.87704C18.3493 7.72119 18.4682 7.49001 18.5038 7.23241C18.454 7.22849 18.4325 7.26375 18.3943 7.252V7.252ZM17.2517 8.67646C17.2517 8.73133 17.2517 8.77639 17.2517 8.8195C17.2517 8.8626 17.2982 8.89787 17.338 8.91551C17.3778 8.93314 17.3927 8.90179 17.4159 8.86652C17.4391 8.83125 17.4458 8.74308 17.4889 8.69802C17.5038 8.77051 17.5204 8.83321 17.5303 8.89395C17.5403 8.95469 17.5536 8.94294 17.5801 8.93706C17.6398 8.9253 17.7078 8.93706 17.7078 8.8195C17.7114 8.77004 17.7203 8.72132 17.7343 8.6745C17.7791 8.71565 17.7807 8.78031 17.8272 8.8097C17.8762 8.73855 17.9128 8.65665 17.935 8.5687C17.9648 8.47465 17.935 8.4335 17.8637 8.40607C17.6435 8.32095 17.4069 8.31481 17.1838 8.38844C17.0876 8.41979 17.0726 8.48836 17.0892 8.58437C17.1141 8.74896 17.144 8.76268 17.2517 8.67646V8.67646ZM19.2848 11.8115H19.3081L19.3479 11.6665C19.3479 11.643 19.3611 11.6077 19.3379 11.5979C19.2633 11.5744 19.2583 11.496 19.2318 11.4333C19.2083 11.3861 19.1721 11.3495 19.129 11.3295C18.9486 11.2239 18.7408 11.2042 18.5485 11.2746C18.4689 11.3001 18.3827 11.3353 18.3927 11.4705C18.4516 11.4663 18.51 11.4545 18.5668 11.4353C18.6796 11.3804 18.7326 11.4568 18.7824 11.5469C18.8039 11.5842 18.8189 11.6312 18.8636 11.6312C18.9432 11.6312 18.9698 11.6978 18.9797 11.7742C18.9897 11.8506 18.9913 11.9055 18.998 11.9702C19.1074 11.9173 19.1455 11.735 19.0494 11.6723C18.9532 11.6096 18.9681 11.4647 18.8835 11.3922C18.9499 11.4059 19.0328 11.3726 19.061 11.447C19.119 11.5744 19.2732 11.6332 19.2848 11.8115V11.8115ZM15.9682 12.2484C16.0063 12.1896 16.0329 12.1544 16.0561 12.1171C16.0879 12.0666 16.1167 12.0136 16.1423 11.9584C16.1545 11.9344 16.1624 11.9078 16.1658 11.8802C16.1691 11.8525 16.1677 11.8244 16.1617 11.7973C16.1556 11.7703 16.1451 11.745 16.1307 11.7229C16.1162 11.7007 16.0982 11.6822 16.0777 11.6684C16.0428 11.6371 15.9914 11.6214 16.0445 11.5469C16.0727 11.5097 16.0229 11.5078 16.0047 11.4999C15.9476 11.493 15.8901 11.5054 15.8387 11.5355C15.7874 11.5657 15.7443 11.6125 15.7145 11.6704C15.6417 11.8592 15.6131 12.0676 15.6316 12.2739C15.683 12.123 15.7974 12.0113 15.8422 11.8604C15.872 11.7782 15.9267 11.8506 15.9699 11.8604C16.013 11.8702 16.0063 11.9055 16.0014 11.9467C15.9782 12.0449 15.9659 12.1464 15.9649 12.2484H15.9682ZM15.5354 11.4372C15.4707 11.4627 15.4044 11.4372 15.3696 11.498C15.2456 11.7042 15.1939 11.959 15.2253 12.2092C15.2253 12.2406 15.2253 12.3013 15.2601 12.2993C15.2817 12.2967 15.3023 12.2868 15.3193 12.2708C15.3363 12.2548 15.3492 12.2335 15.3563 12.2092C15.3612 12.1841 15.3612 12.1579 15.3563 12.1328C15.3462 12.0308 15.3564 11.9275 15.3861 11.8311C15.4044 11.7742 15.4326 11.7664 15.4674 11.8075C15.5022 11.8487 15.5304 11.8918 15.5619 11.9349C15.5854 11.9015 15.5998 11.8605 15.6034 11.8173C15.6133 11.7546 15.6216 11.6665 15.5719 11.6469C15.4442 11.5959 15.5138 11.5215 15.5354 11.4372ZM16.7542 11.5078C16.8173 11.4392 16.8836 11.3765 16.8421 11.2648C16.7953 11.1739 16.7332 11.0952 16.6597 11.0336C16.595 10.9631 16.5154 10.9101 16.4491 10.8377C16.3214 10.6966 16.1971 10.7064 16.1175 10.8494C16.1025 10.8749 16.071 10.8964 16.0959 10.9337C16.1208 10.9709 16.1506 10.9337 16.1722 10.9337C16.2047 10.9153 16.2414 10.91 16.2767 10.9185C16.312 10.927 16.344 10.9488 16.3679 10.9807C16.445 11.0882 16.5531 11.158 16.6713 11.1766C16.6995 11.1766 16.7377 11.208 16.7211 11.2393C16.6614 11.3373 16.7576 11.4117 16.7542 11.5078V11.5078ZM19.197 11.1923C19.197 11.0258 19.0941 10.9964 19.0013 10.9435C18.8795 10.8987 18.7522 10.8788 18.6248 10.8847C18.4275 10.8749 18.328 10.9709 18.2932 11.157C18.356 11.1157 18.4228 11.0835 18.4922 11.061C18.5204 11.061 18.5568 11.0199 18.5784 11.0512C18.6 11.0826 18.6431 11.0767 18.6779 11.0689C18.7791 11.029 18.8893 11.036 18.9863 11.0885C19.0523 11.1339 19.1232 11.1689 19.197 11.1923V11.1923ZM21.0211 9.83641C21.0211 9.9383 21.0559 9.99904 21.1388 9.98141C21.1886 9.97161 21.2781 9.99904 21.2582 9.87168C21.2611 9.86568 21.2652 9.8606 21.2701 9.85684C21.275 9.85309 21.2806 9.85079 21.2864 9.85013C21.3544 9.84414 21.4214 9.827 21.4854 9.79918C21.5153 9.79918 21.5435 9.78939 21.5484 9.84817C21.5534 9.90695 21.7143 10.0186 21.7657 10.003C21.7789 10.003 21.7906 10.003 21.7889 9.97553C21.7889 9.91675 21.7889 9.84229 21.7524 9.8129C21.7159 9.78351 21.6579 9.70122 21.5866 9.73061C21.5659 9.74227 21.5432 9.74832 21.5203 9.74832C21.4973 9.74832 21.4746 9.74227 21.4539 9.73061C21.303 9.63264 21.172 9.74236 21.036 9.78155C21.0128 9.79135 21.0244 9.8227 21.0228 9.83641H21.0211ZM21.7872 9.58953C21.7788 9.5417 21.7619 9.49653 21.7376 9.45701C21.7133 9.41749 21.6822 9.38452 21.6463 9.36028C21.5916 9.31326 21.5468 9.36028 21.502 9.38576C21.4572 9.41123 21.4539 9.39947 21.4506 9.36812C21.4324 9.25056 21.3727 9.28975 21.3113 9.30934C21.2601 9.32341 21.2079 9.33258 21.1554 9.33677C21.0178 9.35441 20.9382 9.46021 20.9796 9.57582C20.9912 9.60521 21.0029 9.63264 21.0327 9.60325C21.0924 9.54055 21.177 9.53859 21.24 9.48373C21.2636 9.46336 21.2907 9.44961 21.3195 9.4435C21.3482 9.43739 21.3777 9.43908 21.4058 9.44846C21.5376 9.47589 21.6658 9.5233 21.7872 9.58953V9.58953ZM20.449 10.6633C20.4726 10.585 20.4872 10.5032 20.4921 10.4203C20.5042 10.3831 20.5035 10.3418 20.4902 10.3052C20.4768 10.2686 20.4519 10.2396 20.4208 10.2244C20.3594 10.1891 20.3677 10.1519 20.4208 10.1205C20.4423 10.1088 20.4722 10.0892 20.4589 10.0676C20.4042 9.98337 20.3943 9.87168 20.3047 9.8129C20.2782 9.79723 20.2467 9.78939 20.24 9.75412C20.2118 9.62872 20.1239 9.63068 20.0493 9.61304C20.2473 9.92271 20.3824 10.2821 20.444 10.6633H20.449ZM16.935 11.0551C16.9433 10.9356 16.9532 10.8494 16.8952 10.7789C16.8167 10.676 16.7301 10.5821 16.6365 10.4987C16.5482 10.4431 16.4497 10.4141 16.3496 10.4144C16.3015 10.4046 16.2932 10.4712 16.265 10.5046C16.2369 10.5379 16.212 10.5535 16.2302 10.5849C16.2485 10.6162 16.2866 10.5849 16.3148 10.5849C16.374 10.5613 16.438 10.5606 16.4976 10.5828C16.5572 10.605 16.6093 10.6489 16.6465 10.7083C16.6627 10.7403 16.6863 10.7661 16.7144 10.7828C16.765 10.8063 16.8106 10.8427 16.8479 10.8894C16.8852 10.9362 16.9132 10.9921 16.93 11.0532L16.935 11.0551ZM19.1505 10.8318C19.1223 10.7377 19.1008 10.6358 19.0212 10.6182C18.8968 10.5751 18.7724 10.4438 18.6414 10.6045C18.6342 10.6123 18.6247 10.6165 18.6149 10.6162C18.5403 10.6025 18.5154 10.6731 18.4806 10.726C18.4706 10.7416 18.4557 10.7632 18.4723 10.7867C18.4888 10.8102 18.5104 10.7867 18.5204 10.7867C18.648 10.6496 18.8023 10.7867 18.9366 10.726C18.9465 10.726 18.9664 10.7397 18.9764 10.7534C18.9981 10.7801 19.0245 10.8008 19.0537 10.814C19.083 10.8272 19.1143 10.8326 19.1455 10.8298L19.1505 10.8318ZM20.3478 10.8318C20.3213 10.7945 20.2483 10.8318 20.2666 10.7475C20.2981 10.5947 20.2152 10.4536 20.2417 10.2851L20.1787 10.3321C20.0974 10.3831 20.046 10.4438 20.119 10.5555C20.1356 10.581 20.1289 10.626 20.1306 10.6633C20.1306 10.7358 20.0974 10.8259 20.2002 10.8592C20.2201 10.8592 20.2234 10.9101 20.2234 10.9395V11.0904C20.2746 11.0143 20.3149 10.929 20.3428 10.8377L20.3478 10.8318ZM21.5086 11.253C21.5086 11.2197 21.5086 11.2041 21.5186 11.1903C21.5435 11.0982 21.5617 10.9944 21.4871 10.9376C21.4125 10.8808 21.3014 10.7612 21.172 10.8416C21.1538 10.8553 21.1322 10.8592 21.1189 10.8827C21.1057 10.9062 21.0708 10.9493 21.0874 10.9924C21.104 11.0355 21.1422 11.012 21.1703 11.012C21.2198 11.0032 21.2701 11.0032 21.3196 11.012C21.3494 11.0238 21.3859 11.0375 21.3859 11.0767C21.3776 11.1825 21.4556 11.2001 21.502 11.2589L21.5086 11.253ZM21.6629 10.4105C21.6622 10.3312 21.6392 10.2544 21.5974 10.1923C21.5557 10.1302 21.4976 10.0864 21.4324 10.0676C21.3499 10.0475 21.264 10.0606 21.1886 10.1048C21.1654 10.1186 21.1106 10.0911 21.1305 10.1558C21.1504 10.2204 21.1538 10.2792 21.2267 10.2616C21.2714 10.2462 21.3168 10.2338 21.3627 10.2244C21.4141 10.2244 21.4887 10.2146 21.507 10.2694C21.5319 10.3615 21.5965 10.3674 21.6562 10.4164L21.6629 10.4105ZM14.9351 12.029V12.1837C14.9352 12.2022 14.9388 12.2205 14.9457 12.2371C14.9526 12.2537 14.9626 12.2683 14.9749 12.2798C14.9898 12.2954 15.0064 12.3209 15.0296 12.3131C15.0528 12.3052 15.0462 12.27 15.0462 12.2464C15.0462 12.1661 15.0462 12.0858 15.0462 12.0054C15.0462 11.9251 15.0578 11.8761 15.1357 11.929C15.1755 11.9565 15.1855 11.929 15.1838 11.8898C15.1856 11.8172 15.1629 11.7468 15.1208 11.6939C15.1009 11.6665 15.086 11.6625 15.0611 11.6939C14.9749 11.7919 14.887 11.8859 14.9284 12.0348L14.9351 12.029ZM21.5932 10.8279C21.5932 10.7671 21.5932 10.7318 21.5932 10.6946C21.5932 10.5418 21.5932 10.5339 21.4639 10.4987C21.424 10.4902 21.3867 10.4693 21.3561 10.4379C21.3415 10.4235 21.324 10.4138 21.3053 10.4099C21.2865 10.406 21.2673 10.408 21.2494 10.4158C21.2315 10.4236 21.2157 10.4368 21.2036 10.4541C21.1915 10.4714 21.1834 10.4922 21.1803 10.5144C21.1803 10.5633 21.1703 10.6143 21.1654 10.6633C21.3511 10.5496 21.4125 10.5712 21.5866 10.8337L21.5932 10.8279ZM21.4274 8.84497C21.3909 8.73916 21.3561 8.64903 21.2499 8.6745C21.2408 8.67527 21.2317 8.67374 21.2231 8.67002C21.2145 8.66631 21.2067 8.66049 21.2002 8.65295C21.1637 8.56086 21.1024 8.57066 21.0344 8.60005C21.0045 8.61639 20.9787 8.64157 20.9596 8.67316C20.9404 8.70475 20.9284 8.74166 20.9249 8.78031C20.9249 8.8097 20.9249 8.84105 20.9531 8.82342C21.1044 8.77068 21.2664 8.78036 21.4125 8.85085L21.4274 8.84497ZM18.2351 10.1342C18.0859 9.9383 18.0013 9.86384 17.8637 9.84425C17.8471 9.84425 17.8222 9.82662 17.8123 9.84425C17.8078 9.85648 17.8075 9.87031 17.8115 9.88276C17.8156 9.89522 17.8236 9.90531 17.8338 9.91087C17.8814 9.94572 17.9208 9.99426 17.9482 10.0519C18.0212 10.2126 18.071 10.2263 18.2202 10.1401L18.2351 10.1342ZM20.9183 11.3099C21.0045 11.2805 21.0974 11.206 21.1223 11.3765C21.1223 11.3765 21.1488 11.3902 21.1637 11.3961C21.2002 11.4163 21.2379 11.4333 21.2765 11.447C21.3063 11.447 21.3378 11.5254 21.3693 11.4686C21.4009 11.4117 21.3528 11.3804 21.3262 11.3451C21.3082 11.3192 21.2829 11.3018 21.2549 11.2961C21.2168 11.2961 21.2052 11.2726 21.2035 11.2256C21.2019 11.1786 21.0659 11.0982 21.0228 11.1374C20.969 11.1851 20.9277 11.2496 20.9034 11.3236L20.9183 11.3099ZM18.3048 9.83641C18.4291 9.99316 18.663 10.1186 18.7923 10.0088C18.7501 9.97713 18.7064 9.94834 18.6613 9.92263C18.6116 9.89715 18.5933 9.84033 18.5618 9.79723C18.5303 9.75412 18.522 9.77959 18.5005 9.78547L18.3048 9.83641ZM21.3975 9.15651C21.3772 9.09576 21.3401 9.04491 21.2922 9.01219C21.2444 8.97948 21.1886 8.96681 21.1339 8.97625C21.0708 8.99779 21.0162 9.04498 20.9796 9.10949C20.9696 9.12608 20.9643 9.14594 20.9643 9.16631C20.9643 9.18667 20.9696 9.20654 20.9796 9.22313C21.0029 9.25252 21.0393 9.22313 21.0626 9.20353C21.0946 9.17486 21.1314 9.15447 21.1705 9.14367C21.2097 9.13286 21.2503 9.1319 21.2897 9.14083L21.3975 9.15651ZM19.0527 9.79918C18.9836 9.72709 18.9233 9.644 18.8736 9.5523C18.8537 9.50528 18.6961 9.52095 18.6729 9.56602C18.6729 9.58169 18.6729 9.59345 18.6729 9.60521C18.7166 9.67267 18.774 9.72588 18.8399 9.75981C18.9057 9.79375 18.9778 9.8073 19.0494 9.79918H19.0527ZM16.804 9.33089C16.8156 9.28191 16.7907 9.2486 16.7741 9.20941C16.7393 9.12908 16.6746 9.0703 16.6531 8.97821C16.6415 8.93706 16.61 8.91747 16.5818 8.89591C16.5536 8.87436 16.5503 8.86456 16.532 8.87632C16.5138 8.88808 16.5204 8.91551 16.5204 8.9351C16.527 9.02713 16.5574 9.11453 16.6076 9.18536C16.6577 9.2562 16.7252 9.30702 16.8007 9.33089H16.804ZM18.2185 9.04287C18.1747 9.12486 18.1523 9.22024 18.1539 9.31718C18.1539 9.51312 18.255 9.58169 18.4209 9.49156C18.2301 9.41907 18.2766 9.20745 18.2152 9.04287H18.2185ZM17.6016 10.0226C17.527 10.0402 17.4458 10.0069 17.4126 10.0755C17.3579 10.1891 17.2816 10.2831 17.2202 10.3968C17.3071 10.3834 17.3889 10.3409 17.456 10.2742C17.523 10.2075 17.5724 10.1195 17.5983 10.0206L17.6016 10.0226ZM19.3678 10.8925C19.3976 11.0258 19.4291 11.1355 19.4474 11.2511C19.4656 11.3667 19.4241 11.4823 19.5253 11.5587C19.5557 11.4408 19.5567 11.3151 19.5282 11.1966C19.4996 11.0781 19.4428 10.9719 19.3644 10.8906L19.3678 10.8925ZM18.3462 8.87044C18.328 9.12908 18.4855 9.3113 18.6116 9.26232C18.5784 9.21137 18.527 9.17414 18.5253 9.10753C18.5253 8.96057 18.4374 8.91747 18.3462 8.87044ZM17.2783 9.87364C17.2385 9.87364 17.1887 9.84817 17.1605 9.87364C17.0793 9.96573 16.9947 10.0441 16.8919 10.1342C16.9317 10.1493 16.9738 10.1544 17.0154 10.1493C17.057 10.1442 17.0973 10.1288 17.1336 10.1043C17.1699 10.0798 17.2015 10.0467 17.2264 10.007C17.2514 9.96724 17.269 9.92184 17.2783 9.87364V9.87364ZM16.3247 7.15207C16.144 7.20301 16.1108 7.40483 16.2302 7.6713C16.2816 7.50868 16.2634 7.32254 16.3247 7.15207ZM16.5237 10.1323C16.8239 10.1597 16.7659 10.1323 16.8554 9.8129C16.7924 9.80114 16.7874 9.79918 16.7708 9.83837C16.7105 9.95916 16.6256 10.0602 16.5237 10.1323ZM20.24 9.3211L20.2251 9.34657L20.5568 9.77371C20.5568 9.67574 20.575 9.60325 20.5336 9.5523C20.4449 9.46014 20.3461 9.38238 20.24 9.3211V9.3211ZM19.4324 9.51703C19.3882 9.44672 19.3252 9.39597 19.2537 9.37288C19.1821 9.3498 19.1061 9.35571 19.0378 9.38968C19.0926 9.44166 19.156 9.47964 19.224 9.50122C19.2919 9.52281 19.3629 9.52752 19.4324 9.51508V9.51703ZM18.4706 11.5979C18.595 11.69 18.7409 11.7409 18.721 11.9525C18.7352 11.9472 18.7483 11.9383 18.7594 11.9266C18.7706 11.9148 18.7795 11.9005 18.7856 11.8844C18.7917 11.8683 18.7948 11.8509 18.7949 11.8332C18.7949 11.8156 18.7918 11.7982 18.7857 11.7821C18.7741 11.7233 18.7575 11.6763 18.6961 11.6821C18.6868 11.6831 18.6775 11.6804 18.6697 11.6744C18.6618 11.6683 18.656 11.6593 18.653 11.6488C18.6364 11.5528 18.5718 11.5371 18.4706 11.5979ZM21.8022 11.6959C21.8304 11.6528 21.8635 11.6194 21.8386 11.5881C21.8138 11.5567 21.8105 11.496 21.8138 11.4392C21.8134 11.4073 21.8045 11.3763 21.7884 11.3507C21.7724 11.325 21.7499 11.306 21.7242 11.2961C21.6778 11.2766 21.6844 11.353 21.6629 11.3843C21.6413 11.4157 21.6629 11.447 21.6828 11.4705C21.7343 11.5376 21.7768 11.6136 21.8088 11.6959H21.8022ZM19.9167 9.98924C19.9127 10.0128 19.9134 10.0372 19.9189 10.0603C19.9244 10.0835 19.9344 10.1048 19.9482 10.1225C19.9648 10.1519 19.9614 10.2244 20.0178 10.1911C20.0289 10.186 20.0389 10.178 20.0469 10.1677C20.0549 10.1573 20.0607 10.1448 20.0639 10.1313C20.0672 10.1178 20.0677 10.1036 20.0654 10.0898C20.0632 10.076 20.0582 10.0631 20.051 10.0519C20.0247 10.002 20.0083 9.94579 20.0029 9.88736C20.0029 9.84817 19.9797 9.8227 19.9482 9.82858C19.9167 9.83445 19.9299 9.86776 19.9266 9.89128C19.9233 9.91479 19.9266 9.96377 19.9233 9.98924H19.9167ZM17.3347 10.626C17.3662 10.677 17.3894 10.7162 17.4143 10.7514C17.4391 10.7867 17.5237 10.7945 17.5801 10.771C17.6365 10.7475 17.595 10.7201 17.5934 10.6887C17.5834 10.5908 17.527 10.626 17.4806 10.626H17.3347ZM18.9764 7.9946C18.9658 8.02368 18.9603 8.05504 18.9604 8.08671C18.9604 8.11839 18.966 8.14971 18.9767 8.17874C18.9875 8.20776 19.0031 8.23388 19.0228 8.25546C19.0424 8.27704 19.0655 8.29362 19.0908 8.30418C19.1091 8.31398 19.1323 8.32965 19.1505 8.30418C19.1688 8.27871 19.1505 8.25912 19.1505 8.2356C19.1339 8.11804 19.0361 8.07885 18.983 7.9946H18.9764ZM16.4607 9.89128C16.5328 9.83104 16.5901 9.74921 16.6266 9.65419C16.6365 9.62872 16.6746 9.57973 16.6266 9.56406C16.5785 9.54838 16.5188 9.52879 16.4989 9.60325C16.4735 9.69615 16.4628 9.79379 16.4674 9.89128H16.4607ZM22.2648 7.02275C22.2234 6.76803 22.1488 6.69554 21.9862 6.77979C22.076 6.87007 22.1719 6.95134 22.2731 7.02275H22.2648ZM21.7906 6.65439C21.6629 6.49764 21.5965 6.49764 21.4174 6.65439C21.5442 6.67172 21.6721 6.67172 21.7989 6.65439H21.7906ZM19.2699 8.77835C19.2318 8.72937 19.197 8.68038 19.1555 8.63532C19.114 8.59025 19.061 8.61964 19.0145 8.63532C18.9946 8.63532 18.9963 8.66079 19.0013 8.67842C19.0058 8.70596 19.0181 8.73085 19.0362 8.74902C19.0543 8.76718 19.077 8.77753 19.1008 8.77835H19.2699ZM17.9565 9.24076C17.9018 9.31718 17.8189 9.35245 17.8371 9.4367C17.8554 9.52095 17.9366 9.54447 18.0129 9.57386C17.9836 9.46569 17.9646 9.35395 17.9565 9.24076V9.24076ZM20.6977 10.4693C20.6977 10.3733 20.6977 10.3125 20.7077 10.2498C20.7087 10.2243 20.7048 10.1988 20.6962 10.1754C20.6875 10.1519 20.6744 10.1312 20.6579 10.1146C20.6443 10.0992 20.6262 10.0906 20.6073 10.0906C20.5885 10.0906 20.5704 10.0992 20.5568 10.1146C20.5219 10.144 20.5568 10.1715 20.5684 10.1969C20.6049 10.2753 20.6447 10.3576 20.6977 10.4693ZM18.6779 7.63408C18.8437 7.57921 18.857 7.43814 18.7326 7.2618L18.6779 7.63408ZM17.5552 9.64439C17.5973 9.60715 17.6291 9.55598 17.6465 9.49737C17.6639 9.43877 17.6662 9.37537 17.6531 9.31522C17.4988 9.48373 17.4988 9.48373 17.5552 9.64439ZM16.2485 9.52683C16.2899 9.42103 16.3712 9.37792 16.4259 9.29563C16.3645 9.26428 16.3181 9.21921 16.2601 9.28191C16.202 9.34461 16.2269 9.43082 16.2485 9.52683V9.52683ZM21.9315 11.2903C21.9632 11.2088 21.973 11.1179 21.9597 11.0297C21.9586 11.0187 21.9551 11.0083 21.9496 10.9993C21.9441 10.9904 21.9367 10.9833 21.9282 10.9787C21.9 10.9787 21.8917 10.9964 21.8801 11.0179C21.8204 11.1374 21.827 11.1825 21.9315 11.2961V11.2903ZM17.144 9.27603C17.172 9.39248 17.2343 9.49324 17.3197 9.56014C17.3098 9.30934 17.3098 9.27799 17.144 9.27603ZM18.061 10.722C18.0361 10.6554 18.0146 10.6025 17.9963 10.5496C17.9781 10.4967 17.9499 10.4967 17.9134 10.5065C17.8769 10.5163 17.862 10.4948 17.857 10.5261C17.8541 10.5459 17.8557 10.5663 17.8615 10.5852C17.8673 10.6041 17.8772 10.6209 17.8902 10.6339C17.9376 10.6854 17.9984 10.7165 18.0627 10.722H18.061ZM16.9781 9.26623C17.0279 9.0703 17.0163 9.02915 16.8687 8.95469C16.8841 9.0672 16.9216 9.17389 16.9781 9.26623V9.26623ZM18.9781 9.04287C18.9459 8.99352 18.9072 8.95053 18.8636 8.91551C18.8354 8.88024 18.8122 8.91551 18.7907 8.9253C18.7691 8.9351 18.7409 8.95469 18.7442 8.988C18.7475 9.02131 18.7824 9.03111 18.8072 9.04091C18.8658 9.05442 18.9259 9.05509 18.9847 9.04287H18.9781ZM19.7973 9.83837C19.8106 9.82079 19.8209 9.80021 19.8274 9.77786C19.8339 9.7555 19.8365 9.73184 19.8351 9.70826C19.8337 9.68468 19.8283 9.66167 19.8193 9.6406C19.8102 9.61953 19.7976 9.60083 19.7823 9.58561C19.7591 9.5621 19.7376 9.54251 19.7326 9.59737C19.721 9.6875 19.7094 9.78155 19.7973 9.83837ZM19.6414 9.22313C19.4755 9.08597 19.4755 9.08597 19.3926 9.18786C19.4685 9.23759 19.5577 9.25025 19.6414 9.22313ZM16.212 6.90127C16.333 6.83661 16.3364 6.82486 16.3032 6.66027C16.2686 6.68422 16.2413 6.72032 16.2249 6.76352C16.2086 6.80672 16.2041 6.85488 16.212 6.90127V6.90127Z" fill="#F26722"/>
<path d="M0 7.17264H2.17405C2.20556 7.17264 2.25365 7.14716 2.2636 7.19615C2.27357 7.25368 2.27357 7.313 2.2636 7.37053C2.2636 7.40384 2.22712 7.39013 2.20722 7.39013C2.12963 7.38951 2.05208 7.39475 1.97506 7.4058C1.88357 7.41479 1.79802 7.46297 1.7345 7.54127C1.67097 7.61958 1.63385 7.72261 1.63013 7.83099C1.61959 7.9219 1.61405 8.01353 1.61354 8.1053V11.5087C1.61354 11.593 1.61354 11.6792 1.62515 11.7634C1.62401 11.8257 1.63358 11.8877 1.65329 11.9454C1.67299 12.0032 1.70241 12.0557 1.73978 12.0997C1.77714 12.1436 1.82167 12.1782 1.87066 12.2012C1.91965 12.2243 1.97209 12.2353 2.02481 12.2337C2.07124 12.2337 2.11767 12.2337 2.16576 12.2455C2.2636 12.2455 2.29511 12.3121 2.26858 12.4277C2.25863 12.4649 2.23873 12.459 2.21883 12.461H0.102816C0.0679909 12.461 0.0348247 12.461 0 12.461V12.265L0.252064 12.2415C0.351855 12.2453 0.448912 12.2026 0.522394 12.1228C0.595877 12.0429 0.639927 11.9322 0.645086 11.8144C0.656095 11.7308 0.660537 11.6462 0.658352 11.5616V8.0955C0.659212 7.99248 0.652554 7.88955 0.638452 7.78788C0.628577 7.69183 0.591641 7.6025 0.533587 7.53426C0.475533 7.46602 0.399738 7.42285 0.318397 7.41168C0.212933 7.39442 0.106411 7.38786 0 7.39209V7.17264Z" fill="#212458"/>
<path d="M7.37542 10.5949C7.3323 9.81117 7.35883 8.98823 7.35883 8.16334C7.35883 8.08692 7.35883 8.00855 7.35883 7.93213C7.36348 7.85757 7.35408 7.78272 7.33129 7.71297C7.30851 7.64322 7.27292 7.58031 7.22708 7.52878C7.18124 7.47724 7.12629 7.43836 7.0662 7.41493C7.00611 7.3915 6.94238 7.38412 6.87958 7.3933C6.80164 7.3933 6.77179 7.37567 6.77511 7.27182C6.77842 7.16798 6.79832 7.17189 6.86465 7.17189C7.33451 7.17189 7.80326 7.17189 8.27091 7.17189C8.32895 7.17189 8.36709 7.17189 8.36046 7.26203C8.35382 7.35216 8.36046 7.4031 8.27257 7.39134C8.22865 7.38745 8.18448 7.39142 8.14156 7.4031C8.03712 7.41101 7.93908 7.46529 7.86711 7.55505C7.79513 7.64482 7.75455 7.76342 7.75351 7.88707C7.7416 8.00411 7.73551 8.12187 7.73527 8.23975C7.73527 9.59303 7.73527 10.9483 7.73527 12.3055C7.73527 12.3603 7.76346 12.4289 7.71371 12.4681C7.62951 12.4878 7.54213 12.4681 7.46994 12.4132C7.30411 12.2016 7.12501 11.988 6.95089 11.7764L4.1815 8.37495C4.16344 8.34509 4.14163 8.31866 4.11682 8.29658C4.11682 8.44745 4.14004 8.5846 4.14004 8.72764C4.14004 9.69557 4.14004 10.6642 4.14004 11.6334C4.14053 11.7329 4.15281 11.8318 4.17652 11.9273C4.19029 12.0135 4.22885 12.0914 4.28567 12.1478C4.34249 12.2042 4.41407 12.2357 4.48829 12.2369C4.54317 12.2465 4.59866 12.2504 4.65412 12.2486C4.7503 12.2349 4.7304 12.3074 4.73537 12.3721C4.74035 12.4367 4.71547 12.472 4.6508 12.47H3.17324C3.11022 12.47 3.08203 12.4583 3.08701 12.376C3.09198 12.2937 3.07706 12.2467 3.17324 12.2447C3.52149 12.2447 3.65249 12.1703 3.69229 11.6373C3.7039 11.4727 3.70888 11.3062 3.70888 11.1416C3.70888 10.1384 3.70888 9.13584 3.70888 8.13395C3.7092 8.0571 3.70365 7.98037 3.69229 7.9047C3.63757 7.5814 3.45847 7.41486 3.15002 7.3933C3.12017 7.3933 3.07374 7.41486 3.06545 7.37567C3.05631 7.31738 3.05631 7.25761 3.06545 7.19933C3.06545 7.16798 3.10193 7.17973 3.12183 7.17973H4.52311C4.57618 7.17973 4.60105 7.21892 4.6309 7.25419C5.4479 8.26914 6.26655 9.28279 7.08687 10.2951C7.18139 10.4107 7.29084 10.5107 7.37542 10.5949Z" fill="#212458"/>
<path d="M12.8427 9.71811C13.1395 9.71811 13.4363 9.71811 13.7332 9.71811C13.7862 9.71811 13.8459 9.6946 13.841 9.80824C13.836 9.92188 13.8277 9.94735 13.7398 9.9356C13.6897 9.93312 13.6395 9.93839 13.5906 9.95127C13.5529 9.95228 13.5158 9.96214 13.4813 9.9803C13.4469 9.99845 13.4159 10.0245 13.3902 10.057C13.3644 10.0895 13.3443 10.1277 13.3312 10.1694C13.318 10.2111 13.3121 10.2556 13.3136 10.3C13.2904 10.5548 13.3004 10.8095 13.2987 11.0622C13.2987 11.3503 13.2987 11.6383 13.2987 11.9244C13.3012 11.9546 13.2952 11.9849 13.2817 12.0107C13.2683 12.0365 13.248 12.0564 13.2241 12.0674C12.5753 12.5005 11.8261 12.6763 11.0865 12.569C10.4233 12.525 9.80063 12.1779 9.35024 11.6011C9.15193 11.3524 9.00188 11.0556 8.91052 10.7315C8.81916 10.4073 8.78869 10.0635 8.82124 9.72399C8.92074 8.27405 9.86764 7.26889 11.0334 7.10234C11.5564 7.02943 12.0864 7.11437 12.574 7.34923L12.6271 7.37274C12.8327 7.46679 12.9007 7.42564 12.9289 7.167C12.9438 7.04356 13.0068 7.08079 13.0616 7.07295C13.1163 7.06512 13.1213 7.12586 13.1246 7.17288C13.1627 7.70975 13.2009 8.24466 13.2373 8.78153C13.2373 8.81092 13.2738 8.87558 13.2091 8.8697C13.1445 8.86382 13.0898 8.91868 13.0599 8.8168C13.0335 8.7151 13.0014 8.6156 12.9637 8.51897C12.8733 8.30789 12.7481 8.12028 12.5955 7.96719C12.4428 7.81409 12.2658 7.69858 12.0749 7.62746C11.8174 7.49401 11.5342 7.44558 11.2553 7.48733C10.9764 7.52908 10.7123 7.65945 10.4912 7.86454C10.186 8.15616 9.98143 8.56929 9.91573 9.02645C9.77142 9.6843 9.81275 10.3798 10.0335 11.0074C10.1708 11.394 10.4105 11.7176 10.7167 11.9296C11.0229 12.1416 11.379 12.2305 11.7316 12.183C11.9793 12.1415 12.2148 12.0299 12.4181 11.8577C12.4288 11.8501 12.4374 11.839 12.4429 11.8259C12.4485 11.8127 12.4508 11.7979 12.4496 11.7833C12.4496 11.3013 12.4662 10.8193 12.4364 10.3373C12.4379 10.2907 12.4316 10.2441 12.4176 10.2005C12.4037 10.1568 12.3825 10.1169 12.3553 10.0831C12.3281 10.0493 12.2954 10.0223 12.2592 10.0037C12.223 9.98512 12.184 9.97527 12.1445 9.97479C12.0644 9.96023 11.9835 9.95237 11.9024 9.95127C11.8128 9.95127 11.8444 9.87878 11.8394 9.82783C11.8344 9.77689 11.8394 9.73182 11.9057 9.73378C12.2175 9.72007 12.5309 9.71811 12.8427 9.71811Z" fill="#212458"/>
<path d="M17.4424 11.7994C17.4756 11.6681 17.4756 11.6681 17.653 11.623C17.5927 11.8905 17.615 12.1747 17.716 12.4244C17.716 12.4244 17.716 12.4244 17.7044 12.4244C17.6447 12.4244 17.5502 12.4597 17.5286 12.4088C17.4805 12.2853 17.3926 12.1756 17.4009 12.0169C17.4009 11.9522 17.4523 11.9522 17.4839 11.9287C17.5154 11.9052 17.5668 11.8836 17.5518 11.8268C17.5369 11.77 17.4921 11.7916 17.4424 11.7994Z" fill="#F26823"/>
<path d="M17.9958 12.0376C17.9958 12.1493 17.9958 12.259 17.9842 12.3688C17.9842 12.4001 17.9842 12.4471 17.9461 12.4334C17.9079 12.4197 17.8499 12.4805 17.83 12.3903C17.798 12.2563 17.7758 12.1193 17.7637 11.9808C17.766 11.9177 17.7878 11.8577 17.825 11.8123C17.8281 11.8061 17.833 11.8013 17.8387 11.7988C17.8445 11.7963 17.8508 11.7962 17.8565 11.7986C17.8931 11.8241 17.9244 11.8587 17.9485 11.9C17.9726 11.9412 17.9887 11.9882 17.9958 12.0376Z" fill="#F26823"/>
<path d="M20.258 11.9069C20.2812 11.9069 20.2861 11.9421 20.2961 11.9578C20.306 11.9735 20.3177 12.0342 20.3475 12.0283C20.3774 12.0225 20.384 11.9735 20.3856 11.9382C20.3915 11.9059 20.3915 11.8725 20.3856 11.8403C20.3293 11.6855 20.4321 11.7403 20.5084 11.7129C20.4039 11.9304 20.457 12.1381 20.4686 12.3438C20.4686 12.3732 20.5001 12.4261 20.4503 12.43C20.4006 12.4339 20.3409 12.4672 20.3127 12.4065C20.2539 12.2871 20.2203 12.1526 20.2148 12.0146C20.2175 11.9737 20.2328 11.9353 20.258 11.9069Z" fill="#F26823"/>
<path d="M18.1655 12.4346C18.1108 12.4464 18.0859 12.4346 18.0959 12.3543C18.1125 12.2269 18.1191 12.0996 18.1357 11.9722C18.1523 11.8449 18.2053 11.8194 18.2733 11.837C18.3413 11.8547 18.3662 11.9174 18.338 12.033C18.3098 12.1486 18.2767 12.2544 18.2501 12.368C18.2385 12.4229 18.2153 12.4464 18.1655 12.4346Z" fill="#F26823"/>
<path d="M19.0497 9.79886C18.9785 9.80608 18.907 9.79189 18.8418 9.75763C18.7765 9.72337 18.7197 9.67015 18.6766 9.60293C18.6766 9.59117 18.6616 9.57941 18.6766 9.56374C18.6998 9.51867 18.8573 9.503 18.8772 9.55002C18.9248 9.64191 18.9828 9.72564 19.0497 9.79886V9.79886Z" fill="#FFFAF7"/>
<path d="M18.2151 9.04297C18.2765 9.20756 18.2301 9.41525 18.4175 9.49167C18.2516 9.5818 18.1538 9.5093 18.1505 9.31728C18.1489 9.22034 18.1713 9.12497 18.2151 9.04297Z" fill="#FFFAF6"/>
<path d="M19.3633 10.8906C19.4422 10.9711 19.4998 11.0767 19.5292 11.1949C19.5586 11.313 19.5586 11.4387 19.5291 11.5568C19.428 11.4804 19.4678 11.3609 19.4512 11.2492C19.4346 11.1375 19.3931 11.0239 19.3633 10.8906Z" fill="#FFFAF6"/>
<path d="M18.3452 8.87109C18.4364 8.91812 18.5243 8.96122 18.5243 9.10426C18.5243 9.17088 18.5774 9.20811 18.6105 9.25905C18.4845 9.31195 18.327 9.12973 18.3452 8.87109Z" fill="#FFFAF6"/>
<path d="M16.3237 7.15234C16.2623 7.32281 16.2806 7.50895 16.2291 7.67158C16.1098 7.4051 16.1479 7.20329 16.3237 7.15234Z" fill="#FFF9F5"/>
<path d="M20.2395 9.32031C20.3456 9.3816 20.4444 9.45936 20.5331 9.55152C20.5745 9.60246 20.5546 9.67496 20.5563 9.77293L20.2246 9.34578L20.2395 9.32031Z" fill="#FFFAF7"/>
<path d="M18.4707 11.5985C18.5652 11.5377 18.6216 11.5534 18.6531 11.6494C18.6561 11.6599 18.6619 11.6689 18.6698 11.6749C18.6776 11.681 18.6869 11.6837 18.6962 11.6827C18.7576 11.6827 18.7742 11.7239 18.7858 11.7827C18.7919 11.7988 18.795 11.8162 18.795 11.8338C18.7949 11.8514 18.7918 11.8689 18.7857 11.885C18.7796 11.901 18.7707 11.9154 18.7595 11.9272C18.7484 11.9389 18.7353 11.9478 18.7211 11.9531C18.7476 11.7415 18.6017 11.6906 18.4707 11.5985Z" fill="#FFF6EF"/>
<path d="M21.8083 11.696C21.7783 11.6142 21.7381 11.5382 21.6889 11.4707C21.674 11.4471 21.6458 11.4197 21.669 11.3844C21.6922 11.3492 21.6839 11.2767 21.7304 11.2963C21.756 11.3061 21.7785 11.3252 21.7946 11.3508C21.8106 11.3765 21.8195 11.4074 21.8199 11.4393C21.8199 11.4961 21.805 11.5412 21.8448 11.5882C21.8846 11.6352 21.8365 11.6529 21.8083 11.696Z" fill="#FFF9F5"/>
<path d="M16.4672 11.459C16.6148 11.4864 16.643 11.5883 16.5684 11.8371C16.5004 11.7274 16.4954 11.5863 16.4258 11.4864C16.4308 11.4609 16.4523 11.4668 16.4672 11.459Z" fill="#FFFAF6"/>
<path d="M19.9224 9.98922C19.9224 9.96375 19.9224 9.92652 19.9324 9.89125C19.9423 9.85598 19.9224 9.83247 19.9539 9.82855C19.9854 9.82463 20.0053 9.84814 20.0087 9.88733C20.014 9.94576 20.0305 10.002 20.0568 10.0519C20.064 10.063 20.0689 10.076 20.0712 10.0898C20.0734 10.1036 20.0729 10.1178 20.0697 10.1313C20.0665 10.1448 20.0606 10.1573 20.0526 10.1676C20.0446 10.178 20.0347 10.186 20.0236 10.191C19.9672 10.2243 19.9705 10.1518 19.9539 10.1225C19.9402 10.1047 19.9302 10.0834 19.9247 10.0603C19.9192 10.0371 19.9184 10.0128 19.9224 9.98922V9.98922Z" fill="#FFFAF6"/>
<path d="M17.3418 10.6253H17.4861C17.5325 10.6253 17.5889 10.5901 17.5988 10.688C17.5988 10.7194 17.6254 10.7546 17.5856 10.7703C17.5458 10.786 17.4695 10.8134 17.4197 10.7507C17.37 10.688 17.3733 10.6763 17.3418 10.6253Z" fill="#FFF6EF"/>
<path d="M18.9827 7.99414C19.0357 8.07839 19.1319 8.11758 19.1485 8.2371C19.1485 8.26062 19.175 8.28217 19.1485 8.30568C19.122 8.32919 19.107 8.30568 19.0888 8.30568C19.0641 8.29416 19.0416 8.2768 19.0227 8.25466C19.0038 8.23251 18.9889 8.20605 18.979 8.1769C18.9691 8.14774 18.9643 8.11649 18.9649 8.08507C18.9655 8.05365 18.9716 8.02271 18.9827 7.99414V7.99414Z" fill="#FFF7F1"/>
<path d="M16.4672 9.89067C16.4643 9.79282 16.4766 9.69517 16.5037 9.60264C16.5236 9.52818 16.5883 9.54778 16.6314 9.56345C16.6745 9.57913 16.6314 9.62811 16.6314 9.65358C16.5954 9.74836 16.5387 9.83017 16.4672 9.89067V9.89067Z" fill="#FFF9F5"/>
<path d="M22.2727 7.02254C22.1744 6.95068 22.0812 6.86942 21.9941 6.77958C22.1567 6.69533 22.2313 6.76782 22.2727 7.02254Z" fill="#FFF8F4"/>
<path d="M21.7989 6.65467C21.6749 6.67126 21.5498 6.67126 21.4258 6.65467C21.6049 6.49792 21.6712 6.49792 21.7989 6.65467Z" fill="#FFF7F2"/>
<path d="M19.2692 8.7781H19.1034C19.0797 8.77727 19.0569 8.76693 19.0388 8.74876C19.0207 8.7306 19.0084 8.7057 19.0039 8.67817C19.0039 8.66054 19.0039 8.64094 19.0172 8.63506C19.0636 8.61939 19.1134 8.58608 19.1581 8.63506C19.2029 8.68405 19.2311 8.72911 19.2692 8.7781Z" fill="#FFF5EE"/>
<path d="M17.9562 9.24023C17.964 9.35541 17.9829 9.46914 18.0126 9.57921C17.9363 9.54982 17.8468 9.53414 17.8368 9.44205C17.8269 9.34996 17.9015 9.31665 17.9562 9.24023Z" fill="#FFF9F5"/>
<path d="M20.6967 10.4686C20.6436 10.3569 20.6038 10.2726 20.5674 10.1923C20.5574 10.1668 20.5209 10.1394 20.5558 10.11C20.5694 10.0946 20.5875 10.0859 20.6063 10.0859C20.6252 10.0859 20.6433 10.0946 20.6569 10.11C20.6734 10.1265 20.6865 10.1473 20.6951 10.1708C20.7038 10.1942 20.7077 10.2197 20.7067 10.2452C20.7034 10.3118 20.7 10.3726 20.6967 10.4686Z" fill="#FFF8F3"/>
<path d="M18.6777 7.634L18.7325 7.26172C18.8568 7.4459 18.8386 7.57914 18.6777 7.634Z" fill="#FFF7F2"/>
<path d="M17.554 9.64363C17.4976 9.48296 17.4976 9.48296 17.6519 9.31445C17.665 9.3746 17.6627 9.438 17.6453 9.49661C17.6279 9.55521 17.5961 9.60638 17.554 9.64363V9.64363Z" fill="#FFF7F1"/>
<path d="M16.248 9.52808C16.2264 9.43194 16.1816 9.35739 16.2563 9.28283C16.331 9.20827 16.3642 9.26517 16.4224 9.29656C16.3709 9.37897 16.2895 9.42017 16.248 9.52808Z" fill="#FFF8F2"/>
<path d="M21.931 11.296C21.8265 11.1784 21.8199 11.1373 21.8796 11.0237C21.8912 11.0021 21.8995 10.9747 21.9277 10.9845C21.9362 10.9891 21.9436 10.9962 21.9491 11.0051C21.9546 11.014 21.9581 11.0244 21.9592 11.0354C21.9725 11.1236 21.9627 11.2146 21.931 11.296V11.296Z" fill="#FFF8F4"/>
<path d="M17.1445 9.27539C17.3106 9.27539 17.3106 9.30875 17.3206 9.55989C17.235 9.4929 17.1726 9.39199 17.1445 9.27539V9.27539Z" fill="#FFF7F1"/>
<path d="M18.062 10.7216C18 10.7144 17.9417 10.6834 17.896 10.6334C17.883 10.6203 17.8731 10.6035 17.8672 10.5846C17.8614 10.5657 17.8599 10.5453 17.8627 10.5254C17.8627 10.4941 17.8993 10.5117 17.9192 10.5058C17.9391 10.4999 17.9856 10.5058 18.0022 10.549C18.0188 10.5922 18.0371 10.6549 18.062 10.7216Z" fill="#FFF8F3"/>
<path d="M16.9786 9.26662C16.922 9.17428 16.8846 9.06759 16.8691 8.95508C17.0234 9.02758 17.035 9.06284 16.9786 9.26662Z" fill="#FFF7F1"/>
<path d="M18.9853 9.04308C18.9303 9.05433 18.8741 9.05433 18.8192 9.04308C18.7943 9.03327 18.7594 9.02935 18.7561 8.99011C18.7528 8.95087 18.7843 8.94498 18.8026 8.92732C18.8209 8.90967 18.8474 8.8822 18.8757 8.91751C18.9174 8.95247 18.9544 8.99482 18.9853 9.04308V9.04308Z" fill="#FFF4EC"/>
<path d="M19.7971 9.83922C19.7124 9.78232 19.724 9.68814 19.7323 9.59789C19.7323 9.54295 19.7589 9.56257 19.7821 9.58612C19.7974 9.60136 19.81 9.62008 19.8191 9.64118C19.8282 9.66228 19.8336 9.68532 19.835 9.70893C19.8364 9.73254 19.8337 9.75624 19.8272 9.77862C19.8207 9.80101 19.8104 9.82161 19.7971 9.83922V9.83922Z" fill="#FFFAF6"/>
<path d="M19.6417 9.22315C19.5579 9.2503 19.4685 9.23763 19.3926 9.18783C19.4822 9.0858 19.4822 9.0858 19.6417 9.22315Z" fill="#FFF7F1"/>
<path d="M16.2108 6.90149C16.2029 6.85503 16.2074 6.80681 16.2238 6.76355C16.2402 6.72029 16.2676 6.68414 16.3022 6.66016C16.3354 6.82497 16.3321 6.83674 16.2108 6.90149Z" fill="#FFF3EA"/>
<path d="M19.8809 10.8635L19.9142 10.8418C19.9161 10.8559 19.9144 10.8703 19.9093 10.8833C19.9043 10.8963 19.8961 10.9072 19.8859 10.9148L19.8809 10.8635Z" fill="#FBBC91"/>
<path d="M16.4668 11.4593C16.4519 11.4593 16.4303 11.4593 16.4253 11.4868C16.4162 11.4829 16.4081 11.4763 16.4017 11.4677C16.3953 11.4591 16.3908 11.4488 16.3887 11.4377V11.4377C16.4159 11.4362 16.443 11.4437 16.4668 11.4593V11.4593Z" fill="#FBB789"/>
<path d="M17.8311 7.08307C17.8411 7.18496 17.8228 7.29664 17.8626 7.35346C17.9024 7.41028 17.9605 7.56115 18.0749 7.5925C18.1893 7.62385 18.1777 7.65325 18.1163 7.7473C18.0948 7.77865 18.0848 7.77865 18.0517 7.76101C17.9389 7.70223 17.8858 7.57683 17.7897 7.49062C17.7681 7.46906 17.7714 7.43771 17.7698 7.40832C17.7581 7.29272 17.7515 7.17516 17.7399 7.05956C17.7375 7.04495 17.7378 7.02992 17.7406 7.01542C17.7433 7.00092 17.7486 6.98726 17.7561 6.9753C17.7636 6.96333 17.7731 6.95333 17.784 6.94591C17.7949 6.93849 17.807 6.93382 17.8195 6.9322C17.9515 6.9048 18.0862 6.90084 18.2192 6.92044C18.2308 6.92044 18.244 6.92044 18.2457 6.94395C18.2454 6.9532 18.2427 6.96211 18.2379 6.96947C18.2332 6.97683 18.2266 6.98229 18.2192 6.9851C18.1667 7.01665 18.1213 7.06228 18.0865 7.11834C18.0434 7.18496 17.9256 7.16536 17.8311 7.08307Z" fill="#F26823"/>
<path d="M18.5524 6.4807C18.5524 6.56299 18.5524 6.659 18.4197 6.67663C18.3915 6.67663 18.3749 6.70015 18.3567 6.65704C18.3026 6.536 18.2196 6.4365 18.1179 6.37097C18.0996 6.35726 18.083 6.35138 18.0864 6.31415C18.0924 6.27794 18.1053 6.2438 18.124 6.21424C18.1427 6.18468 18.1668 6.16045 18.1945 6.14335C18.2222 6.12624 18.2528 6.11669 18.284 6.11539C18.3152 6.11409 18.3463 6.12108 18.3749 6.13585C18.5308 6.2299 18.554 6.26908 18.5524 6.4807Z" fill="#F26722"/>
<path d="M16.541 6.39291C16.5535 6.31618 16.5758 6.24216 16.6073 6.17346C16.6272 6.12731 16.6618 6.09234 16.7034 6.07619C16.745 6.06003 16.7904 6.06401 16.8296 6.08725C16.9079 6.11281 16.979 6.1629 17.0352 6.23224C17.075 6.29102 17.0932 6.34393 17.0087 6.38115C16.9509 6.4122 16.8954 6.4489 16.8428 6.49088C16.8113 6.51047 16.7881 6.57709 16.7549 6.5575C16.6936 6.52223 16.6206 6.52027 16.5692 6.46149C16.5606 6.45319 16.5535 6.44274 16.5487 6.4309C16.5438 6.41905 16.5412 6.40608 16.541 6.39291V6.39291Z" fill="#F26722"/>
<path d="M17.1717 7.1132C17.0639 7.1759 17.0059 7.16415 16.9445 7.05638C16.9147 6.9976 16.8483 6.98584 16.8301 6.91139C16.9569 6.89673 17.0847 6.89673 17.2115 6.91139C17.2258 6.91115 17.2399 6.91481 17.2528 6.92208C17.2657 6.92936 17.277 6.94004 17.2858 6.95331C17.2946 6.96658 17.3007 6.98208 17.3037 6.99859C17.3066 7.01511 17.3063 7.0322 17.3027 7.04854C17.2861 7.19354 17.2679 7.34049 17.2513 7.48548C17.2513 7.48548 17.2513 7.50312 17.2513 7.50704C17.1617 7.57953 17.1153 7.71277 17.0009 7.75C16.9644 7.76176 16.9627 7.73237 16.9611 7.70885C16.9557 7.67568 16.9598 7.64135 16.9727 7.61122C16.9856 7.58109 17.0066 7.55686 17.0324 7.54231C17.2049 7.46001 17.2148 7.3013 17.1717 7.1132Z" fill="#F26823"/>
<path d="M17.6777 6.5631C17.7308 6.54362 17.7878 6.54409 17.8406 6.56445C17.8935 6.5848 17.9397 6.62404 17.9729 6.67675C17.9729 6.69046 17.9729 6.70418 17.9729 6.71594C17.9729 6.72769 17.8071 6.72965 17.8071 6.68654C17.7981 6.65326 17.7811 6.62382 17.7581 6.60188C17.7351 6.57993 17.7072 6.56645 17.6777 6.5631V6.5631Z" fill="#F36C25"/>
<path d="M17.4123 6.55447C17.3576 6.70926 17.2763 6.78372 17.1387 6.72298C17.1653 6.66634 17.2055 6.62018 17.2541 6.59023C17.3027 6.56027 17.3577 6.54784 17.4123 6.55447V6.55447Z" fill="#F26923"/>
<path d="M17.1763 7.99609L17.0501 8.06083C17.0269 8.0726 17.002 8.09419 16.992 8.0471C16.982 8.00001 16.992 7.97646 17.0235 7.9745C17.0751 7.96219 17.1287 7.96976 17.1763 7.99609V7.99609Z" fill="#F47B33"/>
<path d="M17.8803 8.00781H18.0098C18.0497 8.00781 18.0447 8.03921 18.0397 8.06667C18.0347 8.09414 18.0164 8.10199 17.9932 8.08826L17.877 8.02939L17.8803 8.00781Z" fill="#F36D26"/>
</svg>
