<svg width="84" height="14" viewBox="0 0 84 14" fill="none" xmlns="http://www.w3.org/2000/svg">
<g clip-path="url(#clip0_757_63930)">
<path fill-rule="evenodd" clip-rule="evenodd" d="M14.5969 0.971788C14.8472 0.730697 15.2441 0.732467 15.4923 0.975778L19.9895 6.43758C20.3032 6.74509 20.3001 7.25082 19.9826 7.55445L15.571 13.0598C15.4624 13.1638 15.3177 13.2218 15.1672 13.2218H11.463C10.941 13.2218 10.6812 12.5897 11.0528 12.2233L15.5731 6.99957L11.463 1.94401H9.81431L13.7451 6.43782C14.0659 6.74393 14.0661 7.25549 13.7457 7.56195L8.58099 13.0598C8.47226 13.1638 8.32759 13.2218 8.17709 13.2218H2.33327C1.04493 13.2218 0.000381238 12.1776 0.000183275 10.8893C-0.000215146 8.29635 0.000123868 5.70348 0.000372411 3.11057C0.000495932 1.82195 1.04515 0.777344 2.33378 0.777344H4.65491C4.97742 0.777344 5.23888 1.03851 5.23888 1.36068C5.23888 1.68284 4.97742 1.94401 4.65491 1.94401H2.72402C1.86491 1.94401 1.16846 2.64046 1.16846 3.49957C1.16846 5.8329 1.16846 8.16623 1.16846 10.4996C1.16846 11.3587 1.86491 12.0551 2.72402 12.0551H7.74494L12.4586 6.99957L7.93831 1.77584C7.56674 1.40947 7.82647 0.777344 8.34851 0.777344H11.9589C12.1094 0.777344 12.254 0.835382 12.3627 0.939347L16.8602 6.43718C17.1806 6.74365 17.1803 7.2552 16.8597 7.56132L12.9288 12.0551H14.6811L18.6877 6.99957L14.5969 1.94401C14.3405 1.69068 14.3372 1.2218 14.5969 0.971788Z" fill="#141413"/>
<path d="M25.6684 1.16623C25.6684 0.951455 25.4943 0.777344 25.2795 0.777344C25.0647 0.777344 24.8906 0.951455 24.8906 1.16623V12.8329C24.8906 13.0477 25.0647 13.2218 25.2795 13.2218C25.4943 13.2218 25.6684 13.0477 25.6684 12.8329V1.16623Z" fill="#141413"/>
<path d="M43.9589 1.80273H37.7109V12.1966H43.9589V1.80273Z" fill="#FF5F00"/>
<path d="M38.3548 6.99954C38.3533 4.97164 39.2673 3.05562 40.8335 1.80356C38.1728 -0.326235 34.3518 -0.0160118 32.0559 2.51621C29.76 5.04843 29.76 8.95246 32.0559 11.4847C34.3518 14.017 38.1728 14.3271 40.8335 12.1973C39.2668 10.9449 38.3527 9.02806 38.3548 6.99954Z" fill="#EB001B"/>
<path d="M50.5939 11.1695V10.9472H50.6833V10.9102H50.4688V10.9472H50.5581V11.1695H50.5939Z" fill="#F79E1B"/>
<path d="M51.0047 10.9102H50.9333L50.8618 11.0954L50.7903 10.9102H50.7188V11.1695H50.7724V10.9657L50.8318 11.1324H50.8976L50.955 10.9657V11.1695H51.0047V10.9102Z" fill="#F79E1B"/>
<path d="M51.3325 7.00014C51.3325 9.53083 49.9137 11.8393 47.6788 12.9452C45.4439 14.0511 42.7853 13.7602 40.832 12.1961C42.3975 10.943 43.3117 9.02722 43.3117 6.99922C43.3117 4.97121 42.3975 3.05545 40.832 1.80232C42.7853 0.238221 45.4439 -0.0526519 47.6788 1.05324C49.9137 2.15913 51.3325 4.46763 51.3325 6.99831V7.00014Z" fill="#F79E1B"/>
<path fill-rule="evenodd" clip-rule="evenodd" d="M75.4472 8.44718C75.4525 7.13999 74.3398 6.57195 73.45 6.11759C72.8527 5.81264 72.3557 5.55891 72.3644 5.16727C72.3707 4.87044 72.6618 4.5552 73.297 4.47424C73.6121 4.43377 74.4805 4.4031 75.4661 4.84468L75.8517 3.08941C75.3223 2.90174 74.6418 2.72266 73.7935 2.72266C71.6195 2.72266 70.0894 3.84745 70.0755 5.45921C70.0617 6.65024 71.1682 7.31506 72.0014 7.71125C72.8584 8.11725 73.1457 8.37733 73.142 8.73916C73.1369 9.2948 72.4589 9.53887 71.8261 9.54867C70.7537 9.56531 70.1181 9.27676 69.6142 9.04786L69.5664 9.02616L69.1681 10.8391C69.6823 11.0684 70.6301 11.2684 71.6144 11.2782C73.9284 11.2782 75.4395 10.1669 75.4472 8.44718ZM66.3361 2.87354L62.7718 11.1494H60.4465L58.6934 4.54417C58.5862 4.13694 58.4942 3.98851 58.1703 3.8168C57.6422 3.53713 56.7688 3.27586 56 3.11272L56.0529 2.87231H59.7962C60.2726 2.87231 60.7024 3.18141 60.8107 3.71621L61.737 8.50606L64.0259 2.87354H66.3361ZM83.2222 11.1496H81.1883L80.9231 9.91313H78.1013L77.6427 11.1496H75.3324L78.6318 3.48085C78.7904 3.11287 79.1459 2.87369 79.5682 2.87369H81.4466L83.2222 11.1496ZM78.7344 8.21657L79.8926 5.10836L80.5591 8.21657H78.7344ZM67.6607 11.1496L69.4794 2.87369H67.2814L65.4614 11.1496H67.6607Z" fill="#1A1F71"/>
</g>
<defs>
<clipPath id="clip0_757_63930">
<rect width="83.2222" height="14" fill="white"/>
</clipPath>
</defs>
</svg>
