<svg width="20" height="20" viewBox="0 0 20 20" fill="none" xmlns="http://www.w3.org/2000/svg">
<path d="M16.9296 2.45117H3.07044C1.37438 2.45117 0 3.78879 0 5.43948V14.4629C0 16.1136 1.37438 17.4512 3.07044 17.4512H16.9296C18.6256 17.4512 20 16.1136 20 14.4629V5.43948C20 3.78879 18.6256 2.45117 16.9296 2.45117Z" fill="#222222"/>
<path fill-rule="evenodd" clip-rule="evenodd" d="M13.7821 10.9526C13.786 10.0541 13.0651 9.66348 12.4883 9.35097C12.1012 9.1412 11.7789 8.96662 11.7845 8.69724C11.7888 8.49308 11.977 8.27632 12.3895 8.22051C12.5932 8.19329 13.1567 8.17185 13.7949 8.47504L14.0455 7.26909C13.7023 7.14046 13.2609 7.0166 12.7113 7.0166C11.3022 7.0166 10.3098 7.79006 10.3022 8.89733C10.2927 9.71672 11.0101 10.1734 11.5508 10.4456C12.106 10.7246 12.2922 10.9033 12.2902 11.1527C12.286 11.5348 11.8468 11.7029 11.4367 11.7094C10.7421 11.7209 10.3299 11.5224 10.0036 11.3652L9.97221 11.3501L9.71406 12.5968C10.0467 12.7547 10.6619 12.8922 11.2995 12.899C12.7976 12.899 13.7778 12.1354 13.7821 10.9526ZM9.91352 7.12073L8.73455 12.8102H7.30832L8.48795 7.12073H9.91352ZM15.9129 10.794L16.6639 8.65811L17.0958 10.794H15.9129ZM18.823 12.8102H17.5043L17.3318 11.9602H15.5027L15.205 12.8102H13.7082L15.8479 7.53791C15.9505 7.28474 16.1812 7.12073 16.4549 7.12073H17.6718L18.823 12.8102ZM5.56559 12.8102L7.87572 7.12073H6.37794L4.89368 10.9931L4.29332 7.70056C4.22309 7.33272 3.94484 7.12073 3.63592 7.12073H1.20941L1.17578 7.28542C1.67361 7.39737 2.23969 7.57772 2.58256 7.76964C2.79225 7.88738 2.85225 7.99014 2.92115 8.26951L4.05825 12.8102H5.56559Z" fill="white"/>
</svg>
