<svg width="12" height="12" viewBox="0 0 12 12" fill="none" xmlns="http://www.w3.org/2000/svg">
<path d="M1.99609 2.08413L1.50785 1.7354L1.39609 1.89186V2.08413H1.99609ZM6.01793 11.083L5.88496 11.6681L6.02453 11.6998L6.1634 11.6651L6.01793 11.083ZM10.0676 2.08413H10.6676V1.86218L10.5232 1.69367L10.0676 2.08413ZM4.96521 5.3962C4.7309 5.16188 4.351 5.16188 4.11669 5.39619C3.88237 5.6305 3.88237 6.0104 4.11668 6.24472L4.54095 5.82046L4.96521 5.3962ZM5.75259 7.03213L5.32833 7.45639C5.4421 7.57017 5.59681 7.63348 5.7577 7.63211C5.9186 7.63074 6.07221 7.5648 6.18403 7.4491L5.75259 7.03213ZM8.48752 5.06573C8.71781 4.82745 8.71134 4.44761 8.47306 4.21732C8.23479 3.98704 7.85495 3.99351 7.62466 4.23178L8.05609 4.64876L8.48752 5.06573ZM1.99609 2.08413H1.39609V6.02628H1.99609H2.59609V2.08413H1.99609ZM1.99609 6.02628H1.39609C1.39609 6.88595 1.59421 8.07776 2.25827 9.16972C2.93337 10.2798 4.07351 11.2564 5.88496 11.6681L6.01793 11.083L6.1509 10.4979C4.6661 10.1605 3.79533 9.38771 3.28356 8.54619C2.76077 7.68655 2.59609 6.72456 2.59609 6.02628H1.99609ZM6.01793 11.083L6.1634 11.6651C9.56387 10.8153 10.6676 8.10682 10.6676 6.02628H10.0676H9.46763C9.46763 7.70451 8.6071 9.81752 5.87246 10.5009L6.01793 11.083ZM10.0676 6.02628H10.6676V2.08413H10.0676H9.46763V6.02628H10.0676ZM10.0676 2.08413L10.5232 1.69367C10.2331 1.35523 9.70029 1.04239 8.98426 0.813116C8.24983 0.577953 7.26803 0.412695 6.01793 0.412695V1.0127V1.6127C7.16511 1.6127 8.02087 1.76465 8.61833 1.95596C9.23419 2.15316 9.52758 2.37603 9.61206 2.4746L10.0676 2.08413ZM6.01793 1.0127V0.412695C4.76834 0.412695 3.77788 0.57782 3.04232 0.81305C2.34022 1.03758 1.77917 1.35554 1.50785 1.7354L1.99609 2.08413L2.48434 2.43287C2.52516 2.37572 2.77638 2.15796 3.40784 1.95603C4.00584 1.76479 4.87024 1.6127 6.01793 1.6127V1.0127ZM4.54095 5.82046L4.11668 6.24472L5.32833 7.45639L5.75259 7.03213L6.17686 6.60787L4.96521 5.3962L4.54095 5.82046ZM5.75259 7.03213L6.18403 7.4491L8.48752 5.06573L8.05609 4.64876L7.62466 4.23178L5.32116 6.61516L5.75259 7.03213Z" fill="#A3A3A3"/>
</svg>
