<?xml version="1.0" encoding="UTF-8"?>
<svg id="layer" xmlns="http://www.w3.org/2000/svg" version="1.1" xmlns:xlink="http://www.w3.org/1999/xlink" viewBox="0 0 599.9 300.5">
  <!-- Generator: Adobe Illustrator 29.8.2, SVG Export Plug-In . SVG Version: 2.1.1 Build 3)  -->
  <defs>
    <style>
      .st0 {
        fill: url(#Gradient_bez_nazwy);
      }

      .st1 {
        fill: #fff;
      }

      .st2 {
        fill: #6c1011;
      }

      .st3 {
        fill: #eebb31;
      }

      .st4 {
        fill: url(#Gradient_bez_nazwy_2);
      }
    </style>
    <radialGradient id="Gradient_bez_nazwy" data-name="Gradient bez nazwy" cx="-76.5" cy="448.5" fx="-76.5" fy="448.5" r="42.5" gradientTransform="translate(419.7 -1432.2) scale(3.5)" gradientUnits="userSpaceOnUse">
      <stop offset="0" stop-color="#f2cb72"/>
      <stop offset="1" stop-color="#efbc32"/>
    </radialGradient>
    <linearGradient id="Gradient_bez_nazwy_2" data-name="Gradient bez nazwy 2" x1="327.9" y1="342" x2="27.9" y2="342" gradientTransform="translate(272 -192)" gradientUnits="userSpaceOnUse">
      <stop offset=".5" stop-color="#6b113d"/>
      <stop offset="1" stop-color="#490724"/>
    </linearGradient>
  </defs>
  <path class="st0" d="M0,0h300v300H0V0Z"/>
  <path class="st2" d="M217.9,128s17.6,9.1,34.3,1.5c-.1,0-17.2,3.5-34.3-1.5ZM241.2,172.6s10.6,1.6,11.3-.2c0,0-1-1.2-11.3.2h0ZM248.1,168.9s6.4,1.3,6.9-.1c0,0-.7-.9-6.9.1ZM211.9,171.4s-11.9-2.1-25.2-5.9c0,0,9.3,5,25.2,5.9ZM163.4,212c10.7,4.1,36.2,11.6,74.5,9.1,0,0-51.1-3.2-74.5-9.7-1.6-.7-2.2-1.3-3.1-1.6-1.1-.4-3.8-.9-4.9-.8,0,0,2.6,1.4,4.5,2.2.8.4,2,.6,3.5.8h0ZM218.1,183.8s-28.6-2.7-59.2-13.8c0,0,23,11.5,59.2,13.8ZM214.2,177.3s-22.2-2.1-45.9-10.7c-.1,0,19,9.6,45.9,10.7h0ZM240.4,214.7s-51.3-1.2-82.9-11.7c0,.1,28.8,15.1,82.9,11.7ZM234.9,197.6s-35.7,1.7-76.8-9.9c0,0,32,14.1,76.8,9.9ZM158.2,193.1s33.6,14.3,79.2,9.5c0,.1-40.7,1.4-79.2-9.5ZM204.5,192c-11.1-1.6-27.2-4.6-47.4-10.4,0,0,13.2,6.7,43.8,10.4,7.9,1.4,26.7,4.1,40.4,1.3,0,0-18.2.3-36.8-1.3h0ZM158.2,197.9s27.9,14.6,76.4,10.2c0-.1-54.7-1.1-76.4-10.2h0ZM164.5,219.2c11.3,4.2,35.3,11.1,72.4,8.7,0,0-48.6-3.1-72.4-9.4-1-.7-2.4-1.5-3.4-1.8-1.4-.4-4.5-.8-5.6-.8,0,0,2.6,1.4,5,2.4,1,.4,2.6.9,4,.9h0ZM220.4,184.1s28.8,3.3,33.5,0c0,0-8.5.6-33.5,0ZM236.5,176.4s14.8,1.5,15.4-.2c0,.1-.2-1.3-15.4.2ZM82.7,146.4c3-1.7,4.8,7.9,4.8,7.9,0,0,0-21.8-10-17.3-5.6,2.5.2,22.3,10,22.1,0-.1-10.3-9.7-4.8-12.7h0ZM252.2,180.4s.6-1.5-22.9.2c0,0,22.6,1.5,22.9-.2h0ZM211.1,188.1c-11.5-1.6-31.5-5-53.9-12,0,0,16,8.9,57.3,12.6,6.5,1,21,2.6,32.3-.6,0,0-17.3,1.4-35.7,0h0ZM229.4,277.5c-14.8-.5-26.4-2.3-35-3.2-13.4-1.5-21.6-1.8-21.6-1.8,0,0,14.3,3.6,21.4,4.7,10.6,1.7,22.5,1.8,34.4,2.1,5.7.2,11.5.2,17.2.2,10.9.6,31.5,1.2,54.2-1.2v-2.3l-38.8,1.8c-11.9.2-22.5,0-31.8-.3ZM220.9,282.2c-10.9-.5-19.7-1.9-26.5-2.6-12.1-1.2-20.5-1.8-20.5-1.8,0,0,13.7,3.7,20,4.7,8.2,1.3,17.2,1.6,26.5,2.1,11.7.6,23.8.6,35.2.3,8.7.6,24.3.9,44.3-1.8v-2c-12.2.2-30.6.7-43.3,1.9-13.8-.1-25.7-.3-35.7-.8h0ZM207.4,297c-5-.4-9.2-1.5-12.7-1.9-8.7-.9-15-1.1-15-1.1,0,0,10.2,3.2,14.7,4.1,4,.8,8.3.6,12.7,1.1,3.4.4,6.9.7,10.4.9h78.4c1.3-.1,2.6-.2,4-.4v-2.3c-9.7.1-22,.4-31.7,1.2-26.6.2-46.8-.6-60.8-1.6ZM117.7,188.4c1.4,3.8,8,4,8.3-.8.2-4-4.2-3.3-4.2-3.3,0,0-2.5-.6-1.2-3.3,0,0-4.2,3.6-2.9,7.4h0ZM214.8,287.1c-8.5-.4-15.4-1.8-20.8-2.3-10.3-1-18.2-1.5-18.2-1.5,0,0,12.6,3.4,18.1,4.2,6.3,1,13.2.9,20.3,1.4,14.9,1,30.9,1.1,45.5.7,8.2.5,22.2.8,40.2-.6v-2.4c-13.1,0-29.8.3-41.5,1.4-17.6,0-32-.3-43.6-.9h0ZM183.3,300h7.3c-5.7-.5-9.6-.8-9.6-.8,0,0,.9.4,2.3.8h0ZM245.1,17.2s-20.2-2.7-25.6-16.1c0,0,2.2,16.3,25.6,16.1h0ZM211.5,291.9c-7.2-.4-13.1-1.7-17.7-2.2-9.1-.9-15.9-1.2-15.9-1.2,0,0,11.1,3.2,15.9,4,5.4.9,11.3.8,17.4,1.3,15,1.3,31.5,1.4,46.6,1,7.9.6,22.7,1,42.1-.7v-2.2c-11.6,0-26.9.2-38.5,1.1-20.8.2-37.3-.3-49.9-1.1h0ZM231.8,267c-4.4-.2-11.6,1.4-16.1-.6-3.5-1.5-8-1.6-16.2-2.4-22.3-2.1-30-2.7-30-2.7,6.8,2,16.1,4.9,26.1,6.1,8.3,1,15.6,2.1,24.8,1.6,4-1.2,13.9,0,17.5,0,20.2.3,39.6-.3,53.4-.9,1.5.3,4.4.7,8.9.8v-2.5c-2.9.3-5.5.7-7.9,1.1-25.1.4-43.7.2-60.5-.5h0ZM276.8,97.7s-3.3-.9-6.1-2.4c-1.6-.9-4.2-1.2-6-.8,0,0,2,.6,5.2,2.2,1.7.8,4.1,1.5,6.9,1h0ZM285.4,181.8s4.5.9,9.2,1.3c-1.2,1.1-3,2.1-6.6,2.2-9.2.5-10.9-3.2-16.4-5.2-5.2-1.9-10.3-2.4-11.7-.6-.4.5-.3.9,0,1.2-3.6.1-7.1-1.1-7.1-1.1,3.4,3.1,7.4,3.3,9.2,3.2,0,.2,0,.5-.3.8-1.4,1.7-7.9-.2-7.9-.2,0,0,3.3,3.8,7.4,3.9,4.1.2,6.1-1.7,9.6,0s4.6,4.2,6,6.7c2.2,3.7,6.1,1.4,7.9,3.5.3.3.6.6.8,1-6.5,2.5-10.2-1-10.2-1,2,6.8,10.3,3.8,12,3.1.8.8,1.4,1.4,1.4,1.4-1.8.2-4.1,2.2-5.5,3-8.4,2.6-8.7-3.4-17.2-3.6-7.3-.2-10.8,4.1-14.7,5.4-3.9,1.4-7.5,1.6-12.7.3l-4.8,4.6c19.9,3.9,19.7-.5,28.5-.5s9.7,3.5,15.2,3.8,10.6-2.6,14.5-2.1c1.6.2,3.3.8,4.9,1.3h-.2c.3.2.6,1-.7,1.1-4.8,1.2-7.1,1.6-11.8,2.3,0,0,5.4.3,13.1-.4,1.6.6.4,2.6-.8,2.9-5.9.9-12.8,1.1-19.2,1,0,0,7.2,2,18.3,1.1,2.2,0-.2,2.3-1.3,2.5-13.5,2.5-34-1.3-34-1.3,9.3,3.9,24.7,4.1,29.6,3.7,5.3-.4-2.6,2.6-13.1,2.4-4-.2-8.8-.7-14.2-1.4-3.8-.5-12-1.9-12-1.9,3.5,2.1,17.7,6,17.7,6-3.7,2.2-20.1,1-20.1,1,8.8,2.5,19.8,3,19.8,3,0,0,3,.1,9.2.2,9.2.7,16.8,1.5,22.7,1.9v-32.7c-1.2-.7-2.4-1.4-3.8-1.9-1.5-.6-2.4-1.6-2.7-2.8,1.5.1,3.8.5,6.5,1.7v-2.8c-2.1-.8-4.2-1-6.6-1,.1-1.1.5-2.3,1.1-3.5,1.3.1,3.2.4,5.4,1v-2.4c-1.4-.3-2.8-.4-4.3-.5.6-.9,1.2-1.7,1.9-2.4.5,0,1.3,0,2.4.2v-1.9h-.7c.2-.2.5-.4.7-.6v-9.7c-1.3.2-2.1.6-2.8,1.3-1.6.1-7.6,1.5-11.6,1.5ZM277.6,185.1s6,3.8,14.4,1.2c0,0-7.3,7.3-14.4-1.2h0ZM188.2,248.2c2.5-.5,8.4,1.2,10.8,1.6,10.1,1.5,18.4,1.9,32.3,1,0,0-14.8-.8-33.1-3.2-2.9-.4-9.4.1-12.3-1.6-2.1-1-4.8-1.7-9.3-2.7-6.3-1.4-10.7-2.2-14.7-2.6,0,0,6.4,3.4,14.4,5.7,3.3.8,9.2,2.2,11.9,1.8h0ZM180.3,240.9c2.3-.5,7.3,1.2,10.1,1.7,10.9,2,23.1,3.3,40.5,2.2,0,0-19.9-1-39.9-3.9-3-.4-9.4-.3-12-1.8-2.2-1.3-3.8-1.9-7.3-2.8-2.6-.6-7.3-1.5-10.7-1.6,0,0,5.1,2.9,10.6,4.7,2.3.9,6.8,1.7,8.7,1.5h0ZM173.8,233.8c2.9-.1,8.2,1.8,11.1,2.5,11.6,2.6,24.9,4.3,45.9,3,0,0-25.3-1.3-46.8-4.8-3-.5-9.4-.8-11.3-2.1-1.3-.9-3.1-1.9-4.6-2.3-2.4-.6-7.1-1.1-9.3-.9,0,0,4.6,2.2,8.6,3.7,1.8.5,4.6.9,6.4.9h0ZM198.2,255.4c3.3-.4,8,1.2,11,1.4,8.2.7,15,.8,25.1.2,0,0-8.5-.3-25.4-2.3-2.2-.3-10.1.7-14.1-1.6-4.1-1.8-7.2-2.5-12.4-3.5-7.6-1.5-14.3-1.8-17.9-2.4,0,0,7.1,3.7,17.6,6.3,4.5,1.2,11.7,2.5,16.1,1.9h0ZM207.7,262c3-.7,6.5.6,9.6.7,9,.3,19.4.4,31.6-.1,0,0-13.6-.3-32.7-1.7-2.6-.2-7.8.6-11.6-.8-3.6-1.1-7.8-1.9-15-2.9-9.5-1.4-18.9-2.4-22.6-2.7,0,0,10.1,4.1,20.1,5.7,5.5,1,12.8,2.3,20.6,1.8h0ZM299.9,258.4v-2.4c-20,.6-31.1,1.6-31.1,1.6,11.7.6,22.1.8,31.1.8h0ZM169.1,226.5c2.5,0,6.9,1.7,9.8,2.5,13.4,3.5,32.3,6.6,60.4,4.9,0,0-34.2-1.6-59.3-6.1-2.9-.5-9.6-1.2-11.4-2.3-1.4-1.1-3.1-1.6-4.4-2-1.7-.5-5.2-.9-6.8-.9,0,0,3.7,1.9,6.7,3.1,1.3.5,3.2.6,5,.8h0ZM299.9,28.8v-1.3c-3.5,0-7.4.2-11.7.6,0,0,4.7,0,11.7.7h0ZM282,273c-12.5.6-23.8.8-34.3.7-20.9-2.1-14.7-1.6-31-2.6-24.3-1.5-45.7-4.7-45.7-4.7,0,0,19.7,5.9,31.4,6.9,35.9,3.2,66.8,2,86.5.4,2.8.2,6.5.2,11.1,0v-3.1c-6.8.5-13.3,1.2-18,2.2v.2h0ZM207.5,108.1c-1.7-.2-11.7-1.2-17.9.2l14.2,1.8c-6.8,3.1-11.8,2.4-11.8,2.4,0,0,6.3,4.3,12.1,3.8,0,0,13.5-15,29.4-15.2s20.6,10,20.6,10c0,0-9-5.8-20.7-4.4-11.7,1.3-24.4,9.8-24.4,9.8,0,0,6-.4,8.6,1.9,2.7,2.3,13.4,5.9,20.4,4.2,6.7-1.6,16-5,17.3-1.5-3.7,1-8.8,5.9-17.4,6.1,0,0,6.1.7,12.2-.6,3.9-.5,14.1-1.6,15.3-1.4,0,0-4.7-.8-9-1-1.5-.1,1.3-1.7,2.4-1.8h0c3-.3,10-1,11.9-1.1,0,0-2.6-1-8.5-1.2-1.9.1.2-2.6,2.4-2.8,3.3-.1,8.8-.1,10.6-.3,0,0-2.6-1.4-8-1.9-2-.1-3.7-2.7-2.2-2.7,5.7-.1,14.3-.5,14.3-.5-2.4-.8-9.9-1.8-13.6-2.1-1.2-.1-1.4-3.2,1.5-3.1,2.6.1,8,.4,8,.4-2.2-.8-5-1.8-6.9-2.7-2.7-1.3-.4-1.9,1.4-2.1,1.2-.1,2-.2,2.7-.6-5.2-1.6-14.2-9.1-26.9-9.1s-7.5.9-11.2,1c-6.2.1-11.1,0-23.2,2.1,0,0,28-.4,34.9.9,1,1.4,1.7,3-.5,2.8h-1.3c-2.9-.5-5.5-.7-8-.8-9.3-.6-23.1-.9-35.9,1.3,0,0,10.2.2,21,.5-2.5.8-4.6,1.7-6.4,2.7-3-.3-10.3-.8-21.4.7l17.8,1.6c-.9.6-1.7,1.2-2.4,1.7-.7.5-1.1.8-1.5,1h0ZM220.4,117s1.7-1.4,4.9-2.4c2-.6,3.4-.1,3.4-.1,0,0,0,2.5-3.4,2.3,3.8,4.2,13.8,2.7,13.8,2.7,0,0-9.5,4.1-18.7-2.5h0ZM241.3,118.6c-1.1,0-.9-.8-.9-1.7s-.2-1.7.9-1.7,3.2.8,3.2,1.7-2.1,1.7-3.2,1.7h0ZM275.4,62.2s10.8.2,24.6,2.3v-2.2c-6-.8-14-1-24.6-.1ZM291,119.4s3.7.5,8.9,2.1v-2.3c-2.4-.3-5.4-.3-8.9.2h0ZM159.4,166.9s4.6-8.6-3.8-15.6c-6.5-5.4-9.6-10.8-9.6-10.8,0,0,1,5.2,7.7,11.9,4.6,4.6,3.8,6.1,2.1,7.5-1.2,1-2.1-5-6.7-7.9-2.3-1.5-5.6-5.4-7.3-8.8,0,0,1.2,7.5,5.2,11,3.7,3.2,5.6,7.5,5.6,8.3,0,0-5.6-.8-9.2-3.5-.1,0,5.8,8.3,16,7.9h0ZM299.9,263.4v-2.2c-23,.6-47.6,1.5-47.6,1.5,19.4,1.2,35.3,1.2,47.6.7ZM299.9,71.3v-1.6c-4.1-.4-8.7-.6-14.1-.6,0,.1,5.8.7,14.1,2.2ZM299.9,98.7v-1.9c-3.5,0-7.4.2-12,.7.1,0,4.9.2,12,1.2h0ZM289.8,129.8s4.3.6,10.1,2.4v-2.6c-2.7-.3-6-.4-10.1.2h0ZM290.2,140.1s4.1.5,9.7,2.3v-2.4c-2.6-.4-5.8-.4-9.7.1h0ZM290.2,124.6s4.1.5,9.7,2.3v-2.4c-2.6-.4-5.8-.4-9.7.1ZM101.8,43.2c2.3,4.6.7,7.9,0,9.1,3.3-3.7,5.4-2.8,5.4-2.8-1.9,2.1-3.1,4-5.8,11.5-2.7,7.5-9.8,14.2-9.8,14.2,11.5-6.7,13.3-17.3,15.6-21.3,2.3-4,7.3-5.2,7.3-5.2-.2,3.3,2.7,6.9,2.7,6.9-2.3-5.6,4-14.6,4-14.6-10.2,11.8-19.4,2.2-19.4,2.2h0ZM125,19.5c-4.4,9-11.5,17.7-20,11.7,0,0,7.7,8.8,16.5-1.9,8.8-10.8,6.7-12.9,12.5-14,0,0-4.8,7.5-.2,18.3,0,0-2.7-12.3,5.8-21.7,0-.1-10.2-1.4-14.6,7.6h0ZM169.8,4.2s-5.2,16.1-11.5,21.1-16.7,10.4-11.9,18.8c0,0-.6-5.2,2.9-6.9,0,0-1.3,5.4,3.5,8.8,0,0-1-8.6,2.9-13.3,3.7-4.5,13.3-14.1,14.1-28.5h0ZM299.5,5.5c-4.9,7.5-13.8,14.1-27.1,12.6-6.1-.7-16.9-4.6-18.8-7.3,0,0,4,5.4,11.3,7.5s7.3,5.2.4,5.4c-6.9.2-10-3.3-15.6-2.9-5.6.4-8.8,3.9-15.2,3.3-6.3-.6-14.8-5.2-15.8-14.6,0,0-16,1.3-22.3-9.5h-1.5c.8,6.6,3.7,18.4,13.9,22.8,0,0-3.8-4.8,1-6.9,0,0,8.1,8.1,15.9,9.6,0,0-11.9,7.9-25-3.5,0,0,4.6,8.1,12.3,9.6,0,0-18.4,6.1-23.6-11.5,0,0-1.7,18.4-11.7,20.6,0,0,0-3.9,2.5-7.3,2.3-3.2,7.9-16,9.5-33.3h-.6c-1.9,8.6-6.5,28.2-11.5,32.4-6.3,5.4-9.2,10.8-6.7,16.9,0,0-3.3-3.1-3.1-8.3,0,0-2.7,8.6-1.3,14,0,0-6.2-6.9-3.7-16.3,1.3-7.1,10.6-6.5,13.4-19,0,0-4.4,8.3-10.6,10.6,0,0,10-10.2,10-24,0,0-2.5,13.5-13.6,22.9s-6.3,16.7-6.3,16.7c0,0,.2-6.9,4.6-9.4,0,0-2.9,11.7,2.9,18.4,0,0-5-2.3-6.5-5.4,0,0-.4,19.6,29.4,13.1,0,0-19.3,10.1-35.7-3.5-11.9-9.8-13.6-16.3-12.7-23.4,0,0-1.9,4.4-6,7.1-4,2.7-14.4,10.2-1.7,19.8,0,0-4.2-5.4-2.7-9.6,0,0,2.5,7.5,8.6,11.1,0,0-5.6-8.3-4-12.5,0,0,5.6,12.5,13.3,16.1,0,0-4.4,0-8.1-2.5,0,0,2.9,4.2,7.1,7.1,0,0-15,5.8-26.1-14,0,0-3.7,1.7-5.6,4.8,0,0,3.8-3.3,6,0,2.1,3.3,1.3,5.6-1.4,7.9-2.7,2.3-11.1,4-18.3,12.9-3.5,4.4-8.5,11.2-6.9,23.2,1.4,10.6,5.8,20.2,13.1,26.1,0,0-16.4-2.8-23.8-21.7-4.4-11.3-5.2-24.8,8.6-40.2,0,0-11.3-5.8,10.6-30.7,0,0-2.7-12.5,13.1-15.9,0,0-2.2-11.9,11.2-24.7h-14.5c3.1,3.6,2.2,7.4,1.4,9.1l-.4.6c-2.1-2-6.1-5.5-12.2-9.6h-19.8c1.2,1.6,2.7,4.2,3.7,8-1.5-.8-3.1-1.5-4.6-2.2-.4-1.3-1.4-3.8-3.1-5.8h-3.9c.7,1,1.4,2.1,1.8,3.6-2-.8-4-1.6-6.1-2.4,0-.2-.3-.7-.6-1.2h-18.5c-4.3,4.3-10.6,7.3-15.1,9.1-2.4-.6-5-1.1-7.5-1.6,5.9-2.2,10.4-5.3,13.1-7.4h-5.3c-3.3,2.9-7.4,5.2-10.8,6.8-.3-.1-.6-.1-.9-.2-2.8-.5-5.6-1.1-8.2-1.6,4.4-1.4,8.2-3.2,11.1-5h-5.2c-3,1.9-6.1,3.3-8.6,4.4-3.5-.7-6.7-1.4-9.9-2.1,2.9-.5,5.6-1.4,7.9-2.3H.1v9.2c1.8.1,4.8.3,8.7.7-1.7,1.7-4.5,3.8-8.7,5.9v3.6c6.2-2.4,12.6-6.4,15.3-8.8,2.1.3,4.4.6,6.8.9-4.3,5.3-14.2,10.2-19.6,11.7-.8-.2-1.6-.4-2.4-.5v12.2c.9-1,1.8-2,2.7-3.1l6.4-.7,2.9-.4v.2c0,0-.5.6-.5.6,0,.1-3.8,5.2-11.5,10.8v3.3c4.7-3.5,10.3-8.3,15.7-14.7h0c0-.1,9.2-.8,9.2-.8l-.4.6-.2.2c0,.1-8.2,10.9-24.4,18.4v16.9c3.6-4.1,5.3-7.6,5.9-9.2l3.1-.7c-2.7,6-6.3,10.2-9.1,12.8v5c7.9-.2,16.2.7,22.7,4.5-2.7.2-5.4.5-8.1.9-2.3-1.5-6.9-3.7-14.6-5v2.8c2.5.9,5.1,2,7.4,3.3-2.5.5-4.9,1-7.4,1.6v2.6c1.8-.3,3.6-.6,5.4-.9v.5c-.2.3-1.3,6-5.4,11.5v3.8l.9-.7c.1-.1,6.5-5.5,9.8-15.4v-.4c2-.2,3.8-.5,5.6-.6v.5c-.2.5-3.6,12.3-10.5,16.5l-5.8.8v.9c1.1-.1,2.1-.2,2.9-.3,7.7-.7,18.7-1.4,28.9-.8-10,1.2-19.2,2.6-27.6,4.2l-4,.8H.1v6.7c1.5-2.3,2.7-4.2,3.3-5.3,2.5-.5,4.9-.9,7.2-1.3-3,6.2-7.1,11.3-10.6,14.9v2.9c8.1-6.4,13.6-15.1,15.6-18.6,2.4-.4,4.7-.7,6.8-.9-4.7,9.7-12,17.1-15.3,20.2-2.4.2-4.8.5-7.1.8v5.8c1.6-1.8,2.3-3.4,2.4-3.8.2,0,1.8-.2,2.5-.2-1.1,3.2-3.3,5.1-4.7,6.1h-.2v5.9c1.3-.2,2.6-.4,3.9-.6-1.2,2.4-2.5,4.3-3.9,5.9v2c3.7-3.2,6.1-6.7,7.3-8.5,1.9-.3,3.8-.6,5.7-.9-3.3,6.7-8.2,10.7-10.6,12.3H0v10.2c1-.8,2.1-1.7,3.2-2.8.3,0,.6-.1,1-.2l5.6-.9c-1.7,2.4-4.6,5.8-9.2,8.8-.2-.1-.4-.1-.6-.2v2.2c.2,0,.3.1.5.1,6.2,1.1,12.3,1.8,17.5,2.2,1.6.2,3.9.5,7,.7l-4,1.3-3.5,1.2-3.1,1c2.8-.2,5.6-.2,8-.1,3.1.1,5.7.4,7.1.6-.9.3-1.8.5-2.6.8-2.4.7-4.5,1.4-6.4,2.1-1.1.4-2,.7-3,1-8.4,3-12.2,4.9-12.2,4.9,2.2-.6,9.2-2.5,17.5-4.8-1.8,2.2-5.2,5.6-10.2,8.5-1.5-.1-3-.3-4.3-.6-6.9-1.3-3.3-6.7.3-10.7,0,0-6.8,4.1-6,9.2,1,6,15.2,5.3,15.2,5.3,0,0-12,6.1,7.6,8.2,5.9-2.2,9.1-8.6,10.1-8.5.8.1.4,2.3-3.8,9.3,3.3.1,6.3.1,9.2,0,0,0,6.1-2.6,11.5-11.5h1.4c0-.1-1.9,7-6.7,11.2,1.5-.1,2.9-.2,4.3-.3h0c-2.1,1.3-3.9,2.5-5.5,3.6-.9.6-1.7,1.2-2.4,1.7-2.5,1.9-4.1,3.4-4.9,4.3-.5.6-.8.9-.8.9.3-.3.8-.6,1.2-1,.9-.7,2-1.4,3.2-2.2,2.2-.6,7.1-1.7,10.4-.8-1.9.8-3.7,1.7-5.5,2.5-1.4.6-2.7,1.3-3.9,1.9-4.1,2-7.4,3.9-9.2,5.3,0-1.2.5-2.1.5-2.1-2.5,2.5-5.2,7.7,1.1,10.5.6-.3,1.9-1,3.8-2.3h0c6.5-4.2,9.7-9.5,10.9-11.8l5.3-2.1c-3.4,6.7-9.1,12.1-12,14.6h0c0,0,0,.1-.2.2l-.4.3c-1,.8-2.4,1.9-3,2.3,8.1,1.4,16.1.5,24.7-1.7.4-.1.9-.2,1.4-.4.3-.1.7-.2,1-.3-1.7,1.3-3.9,3-6.2,5.1-1,.9-2,1.7-2.9,2.7-2.1,2-4.2,4.3-6.2,6.6-.6.7-1.1,1.4-1.6,2.1h0c-.6.8-1.2,1.7-1.7,2.5,0,0,1.2-1.2,3.3-3.2,2.8-1.1,8.7-3.1,12.9-2.6-.7.5-1.4,1.1-2,1.6-1.3,1-2.5,2-3.7,2.9-9,7.3-12.1,10.9-12.9,11.9-.4-1.2-.5-2.8-.2-4.6,0-.5,0-1,.2-1.5-5.4,9.1.2,12.9,8.8,12.5.4-.4,1-1,1.8-1.8.5-.6,1.1-1.2,1.6-2,0-.1,0-.1,0-.2h0c2.1-2.9,5.5-8.6,6.1-15.6,1.7-1.2,3.4-2.4,5-3.5,0,3.1-.9,10.1-5.6,17.2,0,.1,0,.2-.2.3h0c-.5.8-1,1.5-1.5,2.1-1,1.3-1.9,2.3-2.5,2.9.8-.2,1.6-.3,2.3-.5,1.7-.4,3.9-1.3,6.6-2.5-1,1.2-2,2.7-2.9,4.3,0,.2-.2.3-.3.5-1,1.7-1.9,3.7-2.6,6,0,0,2-2.9,5-6.5,2.6-1.3,6.9-3,9.8-2l-4.1,3.9-2.6,2.5h0c-.6.8-6.9,7.4-8.9,9.7-.6-1.3-.6-3.1,0-5.5,0-.1,0-.2,0-.3,0,.1,0,.3-.2.4-4.6,7.6,1.2,11.8,8.4,10.9,3.3-.4,7.1-.9,13.5-3.8-6.1,12.3-3.9,18.3-3.9,18.3,0-3.9,1.4-7.7,3-11.1.3-.7.7-1.4,1-2,2.4-1.3,7.4-3.6,11-2.9-.6.7-1.1,1.3-1.7,2-1.3,1.6-2.6,3.2-3.8,4.7-.8,1.1-1.6,2.1-2.4,3.2-2.4,3.2-4.7,6.4-6.7,9.4,0,0,3.1-3.1,7.8-7.8.2,1.7.3,5.4-1.4,9.6-1.6.2-3.2.2-4.6,0,0,0,6,2.6,13.4.3,0,0-1.6,1.6-3.5,3.8h12.6q0-.1,0,0h3.3c-.1-1.4-.1-2.6-.2-3.4,1.4-1.5,2.8-3,4.2-4.4.2,2.6.4,5.3.4,7.8h2.1c.2-4.5.1-8.4.1-10.6,1.4-1.5,2.8-2.9,4.1-4.4.9,5.1.9,10.6.7,15h1.8c.9-7.4.6-15,.5-18.1l3.7-3.9c1.2,7.9.5,17,0,21.6l-.5.4h8.9c-.6-1.1-1-1.6-1-1.6l3.9-3.6c.7,1.6,1.3,3.4,1.8,5.1h4.6c-.8-5.5-2.3-9.1-2.3-9.1l3.9-3.7c1.4,3.8,2.2,8.4,2.6,12.7h3c0-10-2.5-16.1-2.5-16.1l4.6-4.8c2.9,5.4,2.9,14.9,2.4,20.8h12.6v-.3s-2-18.2-3.3-24.4c0,0-2.2-10-4.9-19.4-2.1-7.2-10.3-12.8-14.1-13.5-6-1.1-12-3.8-12.6-11.6.7,2.8,3.1,5.9,10.2,7.1,10.9,1.8,14.5,9.3,14.5,9.3,0,0-3.2-9.6-12.3-12-8.9-2.5-13-4-12.3-9.1,1-5.6,4.3-5.5,4.3-5.5,0,0-3.5,6.3,6.9,8.7,10.2,2.4,11.3,8.3,11.3,8.3,0,0-4.4-41.1-2.9-68,0,0-10.6-3.3-16.2-14.6,0,0,3.4,13.6,10.1,16.7,3.6,1.7-9.2.8-14-2.4,0,0,9.5,9.8,8.7,20-2.8-8.6-8-10-8-10,0,0,10.7,16.2-1.9,23.6,0,0,7.3-8.5,1.2-15,0,0,1.2,11-8.4,11.5-9.6.6-18.4-14.8-1.2-28.6,0,0-6.9,2.3-10,5.8-2.9,3.2-10.3,4.8-11.7.9,0-.1,0-.2-.1-.3v-.2c-.1-1,.1-2.2.2-3.3.6-2.8,3.2-13.4,8.2-22.3,4.4-7.8-.1-13.1-2.6-15.2,5.6.9,9.8.3,9.8.3,0,0,1,7.9-1.5,14.2-2.4,6.4-7,12.4-7.3,19.4,0,0,4.2-10.3,8.8-14.5s3.6-7.3,3.6-7.3c0,0,1.8,7-2.1,11.8-3.9,4.8-3.9,10.9-3.9,10.9,0,0,2.7-5.9,5.2-7.9,4.2-3.3,3.9-7.6,3.9-7.6,2.3,7.5,6.9,11.9,6.9,11.9-1.3-2.1-2.3-7.1-2.5-11-.2-3.9-3.2-12.9-3.2-12.9,3.8.4,9.8,7.7,9.8,7.7-3.9-17.9,7.1-9.9,7.1-9.9-2.3-5-2.7-10.3-1.9-13.3.8-3.1,5-9,3.8-3.1-1.2,6,2.5,13.3,2.5,13.3-1.5-6.7.3-11.9,3.2-16.2,0,0-1.7,12.2,7,19.3,8.6,7.1,7.5,15.5,7.5,15.5,2.9-7.1.7-11.2-2.4-14.9l6.1-.2c-3.1-.7-5.7-1.4-8-2-.9-1-1.8-2-2.7-3,4.9-.2,8.4-.2,8.4-.2-4.4-1.1-7.8-2.1-10.6-2.9-.6-1-1-1.9-1.4-2.8,5.6-.2,9.8-.4,9.8-.4-4.5-1.2-7.9-2.3-10.8-3.2-.1-.7-.2-1.5-.2-2.2,6.9-.4,11-.8,11-.8-4.2-.9-7.7-2-10.6-2.7.2-.8.4-1.6.6-2.3,7.1-.7,12.9-1.3,12.9-1.3-4.6-.8-8.1-1.6-11-2.2,1-1,1.9-1.9,2.5-2.8,7.9-.4,14.7-.7,14.7-.7-5.2-.9-9.3-1.8-12.7-2.3.5-1,.8-2,1.1-3,7.4-.3,13.5-.6,13.5-.6-5.4-.9-9.5-1.5-12.8-2,.1-.2.1-.4.2-.6.4-1.4.7-2.4,1-3.2,7.5-.5,12.8-.8,12.8-.8-4.9-.6-8.9-1.2-12.3-1.7,0-.7-.2-1.4-.8-2.6-.1-.3-.2-.6-.2-1,9.5-.9,16.9-1.3,16.9-1.3-5.9-.8-10.4-1.5-14-1.9,1.5-.9,3.4-1.7,5-2.4,7.5-.9,13.1-1.4,13.1-1.4-3.7-.5-6.9-1-9.8-1.3.7-1.3.6-2.7.5-3.5,7.2-.8,12.5-1.2,12.5-1.2-2.9-.7-5.7-1.1-8.2-1.5,2.7-1.3,5.2-2.5,7.4-3.8.7-.4,1.3-.8,2-1.2,8.5-5.2,13.3-10.7,15.8-17.6,3.9-10.5,11.7-15.1,17.5-17.2-6,.1-12.6,2.6-15.4,5.8-8.5,9.8-22.3,5-23.4-4,0,0,4,6.7,14,5.6,0,0-9-1.5-11.1-7.9,0,0,5.5,4.1,10.7,3.7,0,0-8.3-3-7.5-8.5,0,0,4.5,5.9,11,5.2,6.7-.7,10.5-3.2,16.2-3.4s9.5,1.5,14.6,1.7c20.1-1.5,39.9-11.6,39.9-11.6,16.1-.4,25.7-6.9,31.4-14.1V4.5c-.3.5-.4.8-.6,1h0ZM38.3,218.7c-.3-.1-.7-.2-1-.4-2.5-1.1-3.2-3-3.2-4.6l13-5.2c-2.6,4.5-6.4,8.2-8.8,10.2h0ZM45.9,250.1c3.2-2.3,6.4-4.7,9.6-7-.4,2-1.6,6.1-5.1,10.2-2.3-.3-3.8-1.4-4.5-3.2h0ZM56.7,252.9c-2,.4-3.6.6-5.1.5,2.1-2.2,5.6-6.5,6.2-11.9,1.4-1,2.9-2.1,4.3-3.1-.4,2.8-1.7,9.1-5.4,14.5h0ZM142.3,283.1l-3.8,3.6c2.2-9.1,2.1-20.5,2-24.8l2.7-2.8c2.6,13.1-.9,24-.9,24h0ZM135.1,244c1.6.8,3.2,1.5,4.8,2.4.3,2.2.8,7.7.3,11.4-1.9,1.7-3.7,3.5-5.6,5.3.8-3.6,1.6-10.9.5-19.1ZM134.3,268.2l3.1-3.2c1.3,9.2,0,19.9-.5,23.1l-4.5,4.4c2.1-8.8,2-19.7,1.9-24.3h0ZM90.1,49.9c0,.1-6,7.2-14.3,9.3-1.4.4-2.8.6-4.3.6h-1.2c0-.1-1.7-.3-1.7-.3,0,0,.9-.3,2.2-.8.6-.2,1.3-.5,2-.8,3.6-1.5,8.6-4.1,10.9-7.2,0,0,1.8.1,4.1-.5s2.9-1.2,2.9-1.2l-.6.9ZM56.5,119.3l-4.3,1.1s10-4.3,16.7-14.6l4.9-2.4s-6.2,11.5-17.3,15.9h0ZM73,128.8h0c0,.1,0,0,0,0h0ZM79.7,180.7c0,.3,0,1.7-.9,3.4,0,.3-.3.6-.5.9h0c0,.2-.2.4-.4.6s-.4.5-.6.8h0c0,.2-.2.3-.4.5-.3.3-.5.5-.9.8l-.2.2c-.2.1-.4.2-.5.4q0,.1-.2.2c-.3.2-.7.5-1.1.7-.2.1-.3.2-.5.3-.3.1-.5.3-.8.4,0,.1-.2.1-.3.1h0c-.6.3-1.3.5-2,.8l.3-.4h0c0-.1,0-.3,0-.3,0-.1.2-.3.3-.4h0c0-.2,0-.3.2-.4.5-.8,1-1.8,1.5-2.9.5-1.2,1-2.6,1.2-4l5.7-1.7h0ZM80.7,191.7h0c-.4-.1-.8-.2-1.3-.3.5,0,.9,0,1.3.3ZM69.2,187.8c-.5,1.1-1.1,2.3-1.8,3.4h0c0,.1,0,.2,0,.2,0,.1-.2.2-.2.4,0,.2-.2.3-.4.5,0,0,0,.1,0,.1h0c0,.1-.2.2-.3.3-.2.2-.4.4-.6.6s-.2.3-.3.4l-1,.2-.8.2-2,.4h-.3l.2-.2.3-.4v-.2h0l.2-.3c.2-.4.6-.8.9-1.4.3-.5.7-1.1,1-1.8.9-1.7,1.8-3.9,2.4-6.4l4.5-.9c.1-.1-.4,2.2-1.6,4.9ZM72.8,178.8c-2.6.5-5.4,1.1-8.1,1.5,2.7-2.5,7.3-7.2,10.2-13.1,1.6.6,3.1.9,4.4.9-1.2,2.8-3.3,6.8-6.5,10.7h0ZM62.8,180.7c-3,.5-6,.9-8.6,1.3,3-2.3,9.1-7.6,12.7-14.4,1.6-.2,3.2-.4,4.8-.6-.6,1.3-3.4,7.7-8.9,13.7h0ZM56.6,165.9c2.3-1.3,6.7-4.2,9.5-8.3.6,1.6,1.3,3,2.2,4.3.5.7,1,1.3,1.5,1.9-2.4.4-7.1,1.3-13.2,2.1h0ZM61.1,146.8c-1.6,3.3-6.7,12.7-17.7,20.5-2.7.2-5.6.4-8.5.5,3-1.8,14.7-9.5,20.2-20,2.2-.4,4.2-.7,6-1h0ZM58.2,145c2.5-1.8,5-4.2,7.2-6.6-.6,1.9-.9,4-1,6.2-1.5.1-3.6.2-6.2.4ZM64.3,147.7c0,2.1.3,4.2.7,6.3-2.1,4.3-5,8.5-10.7,12.2-2.7.3-5.7.7-8.9.9,3.4-2.2,13.4-9.2,18.9-19.4h0ZM56.2,145.2l-7.5.5c7.6-5,12.6-13.7,13.8-15.9,2-.2,4-.4,5.8-.5-3.7,8.3-9.7,13.8-12.1,15.9h0ZM35.7,121.8s-1.5.1-4,.2c9.9-5.3,16.5-14.6,18.6-18,1.7.8,3.2,1.7,4.3,2.8-1.4,3.2-9.2,13.4-18.9,15h0ZM59.1,108l5.5-1.7s-8.7,12-19.5,14.5l-1.9.2c0,.1,8.6-2.6,15.9-13h0ZM37.3,123.7c.2,0,1.6-.2,2.1-.2-1.1,4.3-4.1,6.1-4.1,6.1,0,0-2.3.7-2.8.8,2.7-1.2,4.7-5.5,4.8-6.7ZM30,130.6s-2,.4-2.2.5c3.1-1.9,4.5-5.7,4.8-7.1.2,0,1.7-.1,2.2-.2-.8,4.7-4.8,6.8-4.8,6.8ZM49.3,99.3l-5.4-.4c0,0,11-4.2,16.6-16.4,2.3.2,4.5.5,6.5.7v.2c-.5.5-9.3,13.4-17.7,15.9h0ZM44.6,50.6c-.6.2-1.1.4-1.7.6l-1.2-.4-2.2-.6,1.3-.5c0,0,7.1-2.4,13.3-9l.2-.2s1.2.2,3.9,0c2.7-.2,3.8-.7,3.8-.7-1.7,1.6-10.5,8.2-17.4,10.8h0ZM64.1,44.2c2.9-.2,3.4-.6,3.4-.6-2.8,3.2-10.7,8.1-17.2,10-.3.1-.6.2-.9.3l-.5-.2-2.6-1.1,1.3-.4c0,0,6.9-2,12.9-7.8l.2-.2c0,0,.4.3,3.4,0h0ZM34.8,49.6l-4.1-.7c0,0,8.9-3.6,15.5-10.7l.3-.2s1.2.3,3.4.1c2.8-.2,4.1-.9,4.1-.9-.4.4-9.8,9.5-19.2,12.4ZM35.2,53.1c1.3.1,2.2.3,2.8.4-3.1,6.6-7.1,10.8-9.7,13.1-.9,0-1.8,0-2.8.1,7.1-6.5,9.2-12.1,9.7-13.6h0ZM42.8,55.9c.7.3,1.4.7,2.2,1-2.8,4.8-5.9,8.1-8.3,10-.8-.1-1.6-.1-2.4-.2,4.6-4.1,7.1-8,8.5-10.8ZM49.7,59c.7.3,1.4.5,2.1.8-1.5,2.6-3.8,5.8-6.8,8.3-.8-.1-1.7-.3-2.5-.4,3.7-3.2,5.9-6.3,7.2-8.7h0ZM56.4,61.4c.8.2,1.6.5,2.4.7-2.1,3.3-4.7,5.9-6.7,7.6-.8-.2-1.5-.4-2.3-.6,3.5-3.2,5.5-5.9,6.6-7.7h0ZM54.4,74.3c.5.2,1,.5,1.5.8,0,.1.2.2.3.2,1.8,1.2,2.8,2.7,3.4,3.8-1.2-.1-2.5-.3-3.8-.4-.6-1.7-2-3.2-3.1-4.2-.9-.8-1.6-1.2-1.6-1.2,1.3.2,2.4.5,3.3,1h0ZM59.7,72.3c-.6-.3-1.3-.5-2-.8,3.7-3.3,5.9-6.1,7.3-8.2,1,.1,1.9.2,2.9.3-3,4-6.3,7.1-8.2,8.7ZM66.2,58.3c-.5.1-1,.3-1.4.4l-4-.9s0,0,.2-.1c1.2-.4,8.4-3.3,14.2-8.7h0c0-.1.2-.1.2-.1,1.4.1,3.7-.8,5.8-2.1l1.6-1-.9,1.6c-1.5,2.8-8.1,8.5-15.8,10.9h0ZM56.3,57l-3.6-1.1,1.5-.5c0,0,6.7-1.9,12.8-8.1l.2-.2s1.3.3,3.5,0,4.7-1.7,4.7-1.7c-1.5,1.4-10.2,9.8-19.1,11.6h0ZM69,40.5c5-1.3,9.8-4.2,13-6.5,1.3-1,2.4-1.8,3.1-2.4.6.3,1.1.5,1.6.8-.3.3-.6.6-.9.9-5.6,5.2-11.8,7.3-14.7,8.1-.7-.3-1.4-.6-2.1-.9h0ZM81.1,30.4c-5.8,5.2-11.2,7.6-14.5,8.7-.7-.5-1.3-1-1.9-1.5,4.8-1.4,9.2-4.1,12.2-6.3,1.2-.9,2.2-1.7,2.9-2.3.6.3,1.2.6,1.8.8l-.5.6ZM75.5,28.1c-4.8,4.2-9.4,6.5-12.6,7.8-.5-.6-1-1.1-1.5-1.6,3.8-1.6,7.3-3.8,9.8-5.5,1.4-1,2.4-1.8,3-2.3.7.3,1.4.6,2.1,1-.3.1-.6.4-.8.6h0ZM69.5,25.6c-3.7,3.1-7.2,5.2-10.1,6.6-.5-.6-1.1-1.1-1.7-1.6,2.7-1.4,4.9-2.9,6.4-4,1.2-.9,1.9-1.5,2-1.6l1.4-1.2c1,.4,1.9.8,2.9,1.2-.3.1-.6.4-.9.6h0ZM62.6,23.2c-.3.3-.6.5-.9.8-2.2,2-4.4,3.5-6.5,4.7-.9-.5-1.9-.9-3.1-1.3,1.9-1.1,3.5-2.2,4.8-3.1,1.4-1,2.3-1.8,2.4-1.9l1.4-1.4c1,.4,2,.8,3.1,1.2l-1.2,1h0ZM55.8,20.7c-.7.7-1.4,1.3-2.2,1.9-2,1.7-4,3-5.9,4-.7-.1-1.4-.2-2.2-.2h-1.3c2.5-1.1,7.3-6,9.2-7.9,1.1.4,2.3.8,3.4,1.2l-1,1h0ZM38.8,26.4c-1.2,0-2.6.1-4.1.1h-.6c3.6-1.3,9.4-7.1,12.3-10.4,1.1.3,2.1.6,3.2,1-2.1,2.8-7.2,7.8-10.8,9.3h0ZM40.5,31.4c0-.2.3-.3.4-.5h0c0-.1,4.1-.4,4.1-.4l3.8-.3-.6.8s-.3.4-.8,1c-.4.4-.9,1-1.6,1.7-4.1,4.2-13.5,12.5-28.1,17l-3,.2c0,0,13.5-5.6,25.7-19.5h0ZM26.6,53.2c1-.1,1.9-.1,2.8-.1-3,6.8-7.1,11.4-9.9,14-1.2.1-2.4.2-3.6.4,7.5-6.6,9.9-12.4,10.5-14.2,0,0,0,0,.2,0h0ZM25.4,70.5c1.2,0,2.3-.1,3.4,0,1.8.1,3.4.2,4.8.5.5.1.9.2,1.3.3,7.5,1.8,9.5,6,9.9,6.7-.9,0-1.8-.1-2.8-.1l-2.6-.2c-2.4-4.8-9.4-6.3-13.7-6.8h-.3c-1.9-.2-3.2-.2-3.2-.2,1.1,0,2.1,0,3.2-.2h0ZM42.6,72.3l-.7-.4c-1.2-.6-2.1-1-2.1-1,.7,0,1.4.1,2.1.2,1.3.2,2.4.5,3.4.9.7.3,1.4.6,2,.9.7.4,1.3.8,1.8,1.2,2.1,1.6,3.2,3.4,3.5,4.2-1.4-.1-2.8-.2-4.2-.3-.6-2.4-3.5-4.4-5.8-5.7h0ZM49.9,81.7c2.1.1,4,.2,5.9.3-.8,2.5-4.6,12.9-15.2,16.7l-4.8-.4,2.1-1c0,0,8.4-4.4,12-15.6h0ZM40,102.2c2.3-.1,4.1,0,5.3,0l.9.2c-5.2,10.6-13.1,17-17,19.7-2.6.2-5.8.3-9.4.6,10.6-6.3,18.2-17.4,20.2-20.5h0ZM21.3,124.7l2.8-.2c-1.2,4.3-4.5,6.6-6.5,7.6l-2.4.3c4.8-3,6.1-7.6,6.1-7.7h0ZM27.5,124.4l2.3-.2c-1.7,5.7-5.7,7.3-5.8,7.3,0,0-1.9.4-2.3.4,3.9-2.3,5.7-7,5.8-7.5ZM25.1,134.4l5.5-.8c-2.9,6.7-7.3,11.4-10.1,13.9-2.7.2-5.1.3-7.3.5,6-3.9,10.6-11.3,11.9-13.6ZM34.1,133.1l5.8-.8c-3.1,7.2-8.1,12.2-11,14.6-2.4.2-4.7.3-7,.5,7.4-5.5,11.1-12,12.2-14.3h0ZM43.5,131.8l5.6-.8h0c-3.7,8.1-9.6,13.4-12.2,15.4l-6.6.4c7.9-6,11.9-12.7,13.1-15h0ZM53,130.7l1.6-.2,4.3-.4c-3.9,8.8-10.1,14.1-12.1,15.7-2.6.2-5.4.4-8.2.5,7.4-4.9,12.9-13.3,14.4-15.6h0ZM55.4,99.9l-2.8-.3c0,0,12.1-5,17.9-15.9,2.3.3,4.3.7,5.8.9l-.3.4c-.4.4-9.8,12.6-20.6,14.9h0ZM78.8,43.2c-1.3-.2-2.6-.4-3.9-.7,5.4-1.1,10-4,13-6.2,1.1-.8,1.9-1.5,2.6-2.1l2.8,1.5c-3.6,3.7-10.1,6.2-14.5,7.5h0ZM95.2,6.3c5.7,3.8,8.3,12,6.5,13.6-1.4-1.1-2.8-2.1-4.3-3.1-.2-1.3-1.3-7.3-3.9-11.3.6.3,1.1.6,1.7.8h0ZM97.4,22.8c-1.7,1-3.4,1.6-4.9,1.8-7,1.1-12.4-.1-13.8-.5-1.5-.7-3.2-1.4-4.9-2.1,9.5.7,17-1.4,19.7-2.4,1.8,1.4,3,2.5,3.9,3.2h0ZM88.2,3c1.2,1.6,3.3,5.1,4,10.4-1.5-.9-3-1.8-4.5-2.7-.4-2-1.7-6.6-4-9.6,1.6.7,3.1,1.3,4.5,1.9h0ZM84.9,14.3c1.8,1,3.4,2,4.9,2.9-5.9,3-14.2,3.6-18.9,3.7-2-.8-4.1-1.6-6.3-2.4,9.7-.1,17.2-2.9,20.3-4.2ZM74.8,9.1c2.2,1,4.3,2,6.1,3-5.9,3.5-14.3,4.9-19,5.4-1.8-.6-3.7-1.3-5.6-1.9,9.5-1,16.3-5,18.5-6.5ZM70.7,7.3c-5.2,4.2-12.7,6.3-17.4,7.3-2.5-.8-5-1.5-7.7-2.3,9.8-1.6,16.8-6.1,18.8-7.6,2.2.9,4.3,1.8,6.3,2.6h0ZM52.9.8c2.5.8,4.9,1.6,7.1,2.4-4.9,4.5-12.4,7.1-17.2,8.4-2.3-.6-4.6-1.2-7-1.8,9.1-2.5,15.3-7.4,17.1-9ZM8.5,24.3c5-1.4,15.7-7.3,19.3-11.9,1.8.3,3.5.6,5.4.9-3.5,4.6-11,10.3-17.2,12.1-2.5-.3-5-.7-7.5-1.1h0ZM22,26.1c8.4-3.3,14.3-9.4,16.4-11.8,1.3.3,2.7.6,4,.9-2.8,3.5-7.9,9-14.2,11.4-1.9,0-4-.3-6.2-.5h0ZM4.4,52l-3.3.3c.1-.1,14.1-6.5,26.9-21.7h0c0-.1,0-.3,0-.3l4.4-.4,4.8-.4-.6.8c0,.3-10.8,14.6-32.4,21.7ZM15.7,55.3v-.5c1.5-.3,2.8-.5,4-.7-3.5,7.5-8.4,12.2-10.9,14.3-.9.2-1.9.3-2.8.5,7.6-7.2,9.6-13.3,9.7-13.6h0ZM8.5,72.6c21.4-3,26.2,5.2,26.3,5.4-1.8,0-3.6.1-5.4.2h-.5c-5.4-5.5-20.4-5.6-20.4-5.6h0ZM14.8,98.8l-4.5.4,1.4-1.3c0-.1,6.6-5.9,9.4-15.7,2-.2,3.9-.3,5.8-.4-.8,2.3-5.4,14-12.1,17h0ZM19.5,98.6l1.8-1.4c0-.1,6.5-5.2,9.7-15.6,2-.1,3.9-.1,5.8-.1-1,3.1-4.4,11.9-12.7,16.7l-4.6.4ZM27.4,98.2l2-1.1c0,0,8-4.6,11-15.6,2,0,4,0,5.9.1-.9,3.2-4.3,12.8-14.2,16.8l-4.7-.2h0ZM27.5,103c2.7-.3,5.2-.4,7.4-.6-6.8,12.3-14.7,18.5-17.6,20.5-2.6.2-5.3.4-8.1.7,9.3-6.7,16-16.8,18.3-20.6ZM5.1,133l-3,.3c4.9-3,6.4-7.4,6.4-7.4l3-.3c-1.4,4.4-4.4,6.3-6.4,7.4h0ZM11.8,132.5l-3.2.4c5.1-3.1,6.1-6.9,6.4-7.6l2.9-.3c-1.5,4.1-4.1,6.3-6.1,7.5h0ZM4.5,148.5h-.9c6.8-4,11.1-10.5,12.4-12.8,2-.3,3.9-.6,5.8-.9-2.9,6.6-7.4,11.1-9.8,13.1-3.8.4-6.5.6-7.5.6h0ZM1.8,164c2.5-1.5,7.8-5,11.6-9.7,2.2-.3,4.4-.7,6.7-1-2,2.9-6,7.5-12.9,11.9-1.9-.3-3.7-.7-5.4-1.2h0ZM8.5,165.5c2.5-1.4,10.5-6.2,15.6-12.8,1.7-.3,3.5-.6,5.2-.8h.6c-2.4,3.4-7.2,8.9-15.8,14.6-1.9-.4-3.8-.7-5.6-1h0ZM15.3,166.6c2.2-1.1,12.6-6.9,18.8-15.5,2.3-.4,4.5-.7,6.7-1.1-2.4,3.9-7.8,11.2-17.5,17.6-2.4-.2-5.1-.6-8-1h0ZM26.9,168l-2.3-.2c1.8-1,14.2-8,20.7-18.5,1.9-.3,3.7-.6,5.5-.9-1.6,3.2-6.5,11.5-17.9,19.4-1.9.1-3.9.2-6,.2h0ZM12.6,185.3l1.1-.3s8.6-3.7,13.7-9.5c2.3-.6,4.6-1.3,6.9-1.9-1.5,2.4-5.2,7.7-10.8,11.7h1c-4.1.3-8.2.3-11.9,0h0ZM33.3,184.6c-2.9.3-5.8.6-8.7.7,0-.1,9.3-5.6,14-12.9,1.8-.5,3.5-1,5.2-1.4-1.1,2.1-4.5,8-10.5,13.6h0ZM35.2,184.4c3.3-2.5,9.5-7.9,13.1-14.7,1-.3,1.9-.5,2.8-.8.8-.1,1.7-.1,2.6-.2-.8,1.8-4.2,8.6-10.8,14.6-2.4.4-5,.8-7.7,1.1ZM52.5,182.2c-.8.1-1.6.2-2.3.3-1.7.2-3.6.4-5.6.7,2.8-2.2,9.3-7.6,13-14.7,1.7-.1,3.5-.3,5.3-.5-1,2.1-4.2,8.4-10.4,14.2h0ZM55.3,195.6h-.6c0,.1-1.9.5-1.9.5h-.7c0,.1,0,0,0,0,.5-.6,4-4.7,5.7-10.6l5.1-1s-1.1,4.3-3.7,8.1c-.6.8-1.2,1.5-1.9,2.2,0,.1-.2.2-.3.3,0,.1-.2.2-.3.3h-.8c0,.1-.7.2-.7.2h0ZM45,220c8.3-5.6,11.9-13.1,13.1-15.9l6.3-2.5c-3.9,8.7-11.1,15.7-14.3,18.5-1.8.1-3.5.1-5.1-.1h0ZM58.3,219.4c-2.2.3-4.5.6-6.8.7,9.8-7.3,14.5-17.3,15.6-19.6l6.1-2.5c-4,10.4-11.8,18.5-14.9,21.4h0ZM66.7,217.6c0,0-.3.1-.4.1-1.9.6-4.2,1.1-6.5,1.5,10.4-8.2,14.9-19.5,15.9-22.1l6.1-2.4c-4.3,11.7-13,20.8-15.1,22.9h0ZM98,239.8l4.7-4.1c-.1,6-.9,18.3-5.6,27.2-1.8,1.1-3.5,2.1-5.2,3,1.3-2.3,6.3-12.1,6.1-26.1h0ZM90.4,266.8c-1.4.8-2.8,1.5-4.2,2.2,1.5-3.1,4-9.4,4.8-17.6.2-1.8.3-3.7.3-5.8,1.5-1.3,3-2.6,4.5-3.9,0,5.7-.9,17.1-5.4,25.1ZM105.1,233.6l3.9-3.4c0,5-.4,18.9-5.5,28.8-1.6,1-3.1,2-4.7,3,1.8-3.8,6.4-14.3,6.3-28.4h0ZM111.5,228.1c1-.8,1.9-1.6,2.7-2.4.4,3.6,1.6,17.2-3.5,28.5-1.7,1.2-3.5,2.4-5.3,3.6,2-4.1,6.9-15.1,6.1-29.7h0ZM110.5,224c-1.9,1.4-3.9,2.8-6,4.3,1.6-3.8,3.3-9.2,3.4-15.7,1.3.2,2.6.4,4.2.5,0,3.1-.4,7-1.6,10.9h0ZM101.8,230.2c-2.1,1.4-4.3,2.9-6.6,4.3,2.3-3.7,6.5-12.1,6.3-23.4.3-.2.6-.4.9-.6.8.5,1.6.8,2.5,1.2.1,4.3-.4,11.5-3.1,18.5h0ZM93,235.9c-1.7,1-3.4,2.1-5.2,3.1,2.2-3.6,6.4-11.7,6.5-23,1.7-1.2,3.2-2.2,4.5-3,0,4.3-.5,14.5-5.8,22.9h0ZM93.1,198.2c-3,6.3-5.8,10.3-7.5,12.4-2.2.8-4.4,1.7-6.6,2.5,8.6-8.1,12.3-18.6,13.4-22.3,0,2.1,0,4.8.7,7.4h0ZM79.2,215.5c.5-.2,1-.4,1.6-.6,1.4-.5,2.9-.9,4.3-1.1,1.7-.3,3.3-.5,4.7-.6s2.5-.1,3-.1h.4l-3.8,2.4-1,.6-.3.2c-1.6-.7-5-.4-7.6-.1-2,.2-3.5.6-3.5.6.6-.6,1.4-1,2.2-1.3h0ZM87.3,220.7c1.6-1.1,3-2.1,4.4-3,0,4.2-.7,13.6-6.1,22.5-2,1.1-4.1,2.3-6.2,3.4,2.5-3.3,7.6-11.5,7.9-22.9ZM77.1,244.8c-1.5.8-3,1.5-4.4,2.2,2.6-3.9,6.2-11.2,6.6-20.7,1.8-1.3,3.6-2.5,5.3-3.7,0,4-1.1,13.2-7.5,22.2ZM88.2,209.6c2.7-2.9,4.5-6,5.8-8.7.4.9.8,1.7,1.4,2.5.7.9,1.3,1.8,2,2.6-2.2.8-5.5,2.1-9.2,3.6h0ZM91.7,178.3l-3.5.4h-1c0,.1-1.7.3-1.7.3,0,0,.9-.9,2-2.3,1-1.3,2-3,2.8-4.9.3-.8.6-1.6.8-2.5,0,0,.9-.1,2-.4,1.8-.5,4.4-1.5,5.9-3.8,0,0,0,.8-.4,2.1-.7,3-2.6,8.7-6.9,11.1h0ZM90.4,191.2c-3.7,10.7-10.7,19.4-13.8,22.8-3.1,1.2-5.9,2.2-7.9,2.9,10-8.4,14.8-20.2,15.9-23.4l5.8-2.3h0ZM67.7,222.8c1-.8,2.1-1.5,3.2-2.3,2.9-.9,7.3-1.8,12.6-1.1-1.2.8-2.3,1.6-3.4,2.4-1-.1-3.2-.2-6.1,0-2.3.2-4.9.8-7.6,1.8l1.3-.8h0ZM56.2,231.9s0,0,0,0c1.5-1.3,3.1-2.7,4.9-4.1,3.6-1.2,9.5-2.8,13.4-1.9-1.4,1-2.7,2-4,3,0,0,0,.1-.2.1-2.4-.1-8.3-.1-14.1,2.9h0ZM65.3,250.2c2-2.7,6-9.4,6.3-18.6,1.7-1.2,3.3-2.3,4.9-3.4-.2,3.9-1.2,11.8-6.3,19.9-1.7.8-3.3,1.5-4.9,2.1h0ZM70.9,253.4c.3-.3.6-.6.9-.9.8-.8,1.7-1.6,2.6-2.4,3-1.4,7.2-2.8,10.1-1.8l-2.9,2.8-.2.2c-1.3-.1-6.1-.2-10.5,2.1h0ZM62,271.2c2.3-2,5.3-4.6,8.8-7.6,0,2.2,0,6.9-2.4,10.6-2.9-.1-5.4-.9-6.4-3h0ZM69.5,274.2c1.5-2.1,3.4-6.1,3.2-12.2l3.8-3.3c.2,3.1,0,9.6-2.8,15-1.4.3-2.8.4-4.2.5h0ZM74.8,273.5c1.4-2,4-7,3.6-16.4,1.4-1.2,2.8-2.5,4.3-3.8.2,3.8.2,11.9-3,18.7-1.5.6-3.2,1.1-4.9,1.5h0ZM81.1,271.4c1.3-2.7,4-9.7,3.6-19.9,1.5-1.3,3-2.6,4.4-3.9,0,2.2-.2,5.2-.6,8.5-.6,4.4-1.7,9.4-3.7,13.6-1.2.6-2.5,1.2-3.7,1.7h0ZM84.6,276.5c0-.1,0-.1,0-.2,0,0,0-.1.2-.1l-.3.3ZM85.8,274.5c.6-1,1.2-1.9,1.8-2.7l.6-.8c2.8-1.4,8.4-3.9,11.8-2.5h.1l-2,2.3c-2.2,0-7.3,0-12.3,3.7h0ZM92.3,294.8c-1.4.4-2.9.7-4.3,1,.7-1.4,2.8-6.3,2-11.5l3-3c.5,2.7.9,8-.7,13.5h0ZM93.5,294.4c1-2.9,3-9.4,1.8-15.4,1.1-1.1,2.3-2.3,3.5-3.5.4,3.7.8,10.8-1.3,17.5-1.3.5-2.6,1-4,1.4h0ZM104.1,285.8c-.2,1.5-.5,3-.8,4.6-1.3.7-2.8,1.4-4.4,2.1.9-2.6,3.5-10.8,2-19,1-1,1.9-1.9,2.9-2.9.6,2.8,1.2,8,.3,15.2h0ZM105.8,288.9l-.6.5c-.2.1-.3.2-.5.3.1-.5.4-1.8.8-3.4v-.3c.2-.5.3-1,.4-1.5.1-.7.2-1.4.3-2.1.5-3.9.7-8.9-.1-14,1.2-1.2,2.3-2.3,3.5-3.5.7,4.6,1.5,13.8-.8,22.1l-3,1.9h0ZM114.3,283.3l-4.7,3.1.5-.5s3.9-11.6,1.4-23c1.1-1.1,2.3-2.2,3.4-3.3.7,4.6,1.7,14.5-.6,23.7ZM122.5,275.8c.7-3.5,2.1-13-.4-23.4,1.2-1.2,2.4-2.3,3.5-3.4,1.1,4.8,2.2,12.9.4,22.9-1.1,1.4-2.3,2.6-3.5,3.9h0ZM131.4,271.3c1.2,9,0,19.2-.5,22.6l-4.3,4.1c1.8-9.2,1.6-19.9,1.5-23.2,1.1-1.2,2.2-2.4,3.3-3.5h0ZM125.3,222c1.5,2,2.5,6.2,2.1,15.5,0,.6-.3,1.3-.4,1.9l-5.3,5.6c1.6-3.8,4.1-11.4,3.6-23ZM120.2,278.4l-4.4,3.8c.9-3,3.7-14,1.2-24.7,1-.9,1.9-1.8,2.8-2.7,1.2,4.1,2.7,12.4.4,23.6h0ZM118.2,218.1c-1.5,1.2-3.2,2.5-4.9,3.8.9-2.4,1.7-5.5,2-9,1.1-.1,2.2-.2,3.3-.4-.3,1.4-.5,2.8-.5,4.3,0,.6,0,1,.1,1.3h0ZM105.8,193.4c-1.2-8.3,5.5-13.3,5.5-13.3-6,15,5.8,20,5.8,20-8.6,1.2-11.1-4.4-11.1-4.4-1.2,5.8,4,9.4,4,9.4-23.5-3.3-11.8-24.2-10.8-25.8h0c-.9,11.1,6.5,14.1,6.5,14.1h0ZM101.9,154.4c-.6,3.6-2,6.1-3.6,7.8-1.1,1.2-2.2,2-3.2,2.6-1.2.7-2,.9-2,.9,1.5-1.5,2.5-3,3.3-4.6,3.8-7.5.5-15-1.2-18.1-2.3-.6-3.9-1.8-3.9-1.8,10.7,19.1-2.1,25-5.3,26.1h-.5v.2h0,0c-.4,2.4-1.4,5.5-4.5,9.4-2,.5-4.2,1.1-6.5,1.6,2.3-2.3,5.6-6,8-10.5,1-.1,1.6-.3,1.6-.3,0,0-9.3-.3-13.5-7.3-6.8-11.5-2.3-21.4-2.3-21.4-1.3,8.5,5,15.6,5,15.6-.8-1.7-5-17.9,0-22,8.1-6.7,15.6,5.2,15.6,5.2-2.7-4.4-3.2-10.1-3.3-13.1,5.7,6.9,12.8,9.9,18.8,11.1l-3.6,5.5c1.6,5.6,1.8,9.8,1.2,13.1h0ZM163.2,78.3c-1.1.2-2.2.6-3.2,1-5.3,2.3-9,7.2-14.1,16.2-.4.7-.8,1.2-1.1,1.8-1.4,2.1-2.9,3.6-4.3,4.7-6.2,4.8-12.2,2.1-12.2,2.1,14.2-.8,16.3-15.6,23.1-21.7,2.9-2.6,6.6-3.6,9.1-4,1.6-.1,2.7-.1,2.7-.1h0ZM111.5,77.3c12.1-4.7,10-10.3,10-10.3,3.6,3.1,3.4,8.6-6.7,12.1-11.9,4.1-18.8,15.7-18.8,15.7,0,0,3.4-12.8,15.5-17.5h0ZM98.7,104.5c-2.1,8.8,1,19.2,1,19.2-9.6-10.8-1-19.2-1-19.2h0ZM103.4,104.1c-2.9,12.1,2.3,23.2,2.3,23.2-11.8-13.8-2.3-23.2-2.3-23.2ZM109.4,101.4c-4.2,19,5,32.1,5,32.1-17.7-15-5-32.1-5-32.1ZM113.4,106.7c0,14.6,3.6,21.7,3.6,21.7-10.2-8.6-3.6-21.7-3.6-21.7h0ZM119.2,90c1.5-6.9,7.5-3.5,10.2-7.9,0,0,.4,4-3.7,5.8,0,0,5.8-.4,9-6,0,0-.4,6.5-4,8.5,0,0,5.8-.8,10-6s6-7.9,13.3-7.3c-7.9,2.3-8.6,15-17.5,21-8.1,5.5-19.8,3.3-17.3-8.1h0ZM157.6,101.1c-.1,1-.2,2.1-.4,3.1-.2,1.1-.5,2.2-1,3.2,0,.1-.1.2-.1.3-.4.7-1,1.5-1.7,2.2-1.1,1.2-2.5,2.4-3.9,3.7-1.9,1.7-3.6,3.4-4.4,5.1,0,0,1.5-6.3,5.2-10.4.2-.2.4-.5.6-.7,1-1.2,1.8-2.4,2.6-3.7.5-.9,1-1.8,1.5-2.6.8-1.6,1.4-2.8,1.6-3.4v-.3c.1,0,.1.1.1.4,0,.5,0,1.7-.1,3.1h0ZM169.9,83.4c0,.8-.4,1.8-1.2,2.8-1.1,1.4-3.1,2.8-6.8,3.9l-.6.2c-1,.3-1.9.6-2.7,1-2.9,1.2-4.7,2.6-6.2,4.5-.4.5-.7,1-1.1,1.5-.8,1.3-1.6,2.8-2.5,4.6-.2.4-.4.8-.6,1.2l-.5.9c-.7,1.4-1.4,2.6-2.2,3.7-6.7,10-15.7,10.1-17.6,2.2,0,0,2.8,3.8,7.7,2.3,3.1-1,6.2-5.3,9.1-10,1-1.7,2-3.5,3-5.1,1.7-3,3.3-5.7,4.7-7.2.6-.7,1.3-1.3,1.9-1.9,1-.9,2-1.6,3-2.3.6-.4,1.2-.7,1.7-1.1,3.2-1.8,6.7-2.8,10.6-3.4.2.6.4,1.3.3,2.2h0ZM195.5,54.4c-12,13.1-29.6,2.7-29.6,2.7,17.7,5,29.6-2.7,29.6-2.7ZM117.1,19.9c3.8-9.8,7.5-11,11.5-13.4,4-2.5,15.9-1.4,15.9-1.4-1.2.8-2.9,4.4-2.9,4.4,0,0,2.8-2.5,9.6-5.4C154.2,2.9,156.6,1.4,158.6,0h-9.4c-8.8,2.3-16.2,1.7-22,4.1-9.1,3.9-10.1,15.8-10.1,15.8h0ZM92.5,123.7s-10.4-14.2-2.7-37.1c0,0-15.5,16.5,2.7,37.1ZM251.3,9.5c-4.9-2.7-8.4-6.3-10.8-9.5h-2.2c2.4,5.2,5.5,6.8,5.5,6.8-5.8-.2-12.5-3.8-17.2-6.8h-2c12.8,13,26.7,9.5,26.7,9.5h0ZM272,13.2c13.1,1.1,23-5,26.8-13.2h-4.3c-5.7,4.1-15.1,7.7-26.6,0h-2.2c2.2,2.4,5.6,5.2,10.6,7,0,0-7.4.2-15.5-7h-1.8c2,3.1,5,6.9,8.3,8.9,0,0-6.7-1.6-14-8.9h-1.4c3.4,5.2,10,12.3,20.1,13.2h0ZM149.8,11.8c-8.3,1.9-9.6,9.8-9.6,9.8,0,0,3.5-6,9-6.9,3.4-.6,7.1-3.3,7.1-3.3,0,0-2.3,6.5-7.9,9s-8.5,7.9-8.8,10.8c0,0,3.3-5.4,9.6-8.1,6.3-2.7,10.4-10.2,11-18.8,0,0-3.5,5.9-10.4,7.5h0ZM289.2,114.2s4.4.3,10.7,1.6v-2.2c-2.9-.1-6.5,0-10.7.6h0ZM299.9,253.8v-3.3c-12.2.7-20.4,2.3-20.4,2.3,7.9.9,14.6,1.1,20.4,1h0ZM299.9,242.9v-3.1c-8.3.4-14.4,1.6-14.4,1.6,5.6,1.3,10.4,1.6,14.4,1.5ZM299.9,248.2v-3c-8.7.3-14.4,1.6-14.4,1.6,5.6,1.1,10.4,1.5,14.4,1.4h0ZM284.1,102.5s6.5.3,15.8,1.6v-2.2c-4.4-.1-9.6,0-15.8.6ZM299.9,35.9v-1.6c-4.1,0-8.8.1-14.3.6.1,0,5.9.2,14.3,1ZM278.1,48.5s9.3.2,21.9,1.7v-2c-5.8-.4-13-.4-21.9.3ZM283.1,41.8s7,.2,16.8,1.3v-1.8c-4.7-.2-10.2-.1-16.8.5ZM293.1,171.1s2.7.4,6.8,1.5v-1.6c-2-.1-4.2-.1-6.8.1h0ZM299.9,92.9v-.8c-1.8.1-3.7.1-5.8.3,0,0,2.2.1,5.8.5h0ZM299.9,177.6v-1.6c-2-.1-4.2,0-6.6.3,0,0,2.7.3,6.6,1.3ZM289.8,134.9s4.3.6,10.1,2.4v-2.5c-2.7-.3-6-.4-10.1.1ZM290.2,145.3s4.1.5,9.7,2.3v-2.3c-2.6-.4-5.8-.5-9.7,0ZM271.9,55.3s12.3.3,28,2.3v-2.2c-6.8-.8-15.9-1-28-.1ZM287.6,108.1s5,.3,12.3,1.5v-1.8c-3.5-.1-7.5,0-12.3.3ZM291.4,160.8s3.6.5,8.6,2v-2.2c-2.5-.2-5.3-.2-8.6.2h0ZM290.6,150.5s3.9.5,9.3,2.2v-2.3c-2.5-.4-5.6-.4-9.3,0h0ZM291.7,166s3.4.4,8.2,1.9v-2c-2.3-.3-5-.3-8.2.1h0ZM291,155.6s3.7.5,9,2.1v-2.2c-2.5-.3-5.5-.3-9,.1h0Z"/>
  <g>
    <path class="st4" d="M299.9,0h300v300h-300V0Z"/>
    <path class="st1" d="M400.8,150v43.5h23.3v6.6h-34.2v-50.2h10.9ZM443.5,150v50.2h-11v-50.2h11ZM513.4,174.8c0,15.8-12.1,26.4-30,26.4s-14.5-2.2-19.3-6.3c-5.4-4.6-8.6-11.7-8.6-19.4s3.3-15,9.7-19.8c6-4.6,12.3-6.7,20.4-6.7,16.7.1,27.8,10.4,27.8,25.8ZM467.1,174.5c0,11.9,7.7,20.5,18.1,20.5s7.5-1.3,10.4-3.7c4.1-3.5,6.2-8.5,6.2-15,0-12.4-7.5-20.9-18.3-20.9s-16.4,7.8-16.4,19.1h0ZM525.2,150c12.6-.2,18.8-.4,18.8-.4,8.3,0,12,.6,15.3,2.7,4.2,2.6,6.2,6.3,6.2,11.2s-5,11.6-12.7,13.9c7,14.4,12.7,19,19,18.6l.2.4-.8,3.2c-.2,1-2.4,1.6-6.2,1.6-6,0-10.4-2.5-14.6-8.1-2.2-3.1-4.3-6.9-7.7-14-1.4.1-2.4.2-4,.2s-1.5,0-2.6-.1v21.1h-11v-50.3h.1ZM536.2,173.4c4.2.2,5.1.2,5.8.2,8.3,0,12.1-2.9,12.1-9.3s-1.7-6.5-4.8-7.7c-1.6-.6-3.4-.9-7.3-.9s-2.5,0-5.7.1v17.6h-.1Z"/>
    <path class="st3" d="M339.8,220c4.2-.1,4.3-.1,7.7-.1,2.9-.1,5.1-.1,6.3-.1,7.2,0,10.7.8,13.4,3.2,2.3,2.1,3.7,5.1,3.7,8.4,0,5.2-2.5,8.4-8,10.6,3.6.6,5.2,1.2,7,2.4,3.3,2.2,5.3,6.2,5.3,10.4s-3.2,10.7-8.4,13.1c-3.7,1.7-7.3,2.1-16.4,2.1h-10.7v-50h0ZM352.6,241.3c5,0,6.9-.5,8.8-2.1,1.9-1.7,2.8-3.9,2.8-6.8s-1.2-5.7-3.4-7.2c-1.6-1-3.8-1.5-7.6-1.5s-3.1,0-7.3.3v17.3h6.7ZM352.8,266c5.9,0,9.7-.9,12.2-3,2.3-1.9,3.5-4.6,3.5-7.6s-2-7.1-5.3-8.7c-2.3-1.1-5.8-1.6-10.8-1.6h-6.5v20.8h6.9ZM408.3,220l19.3,50h-6.7l-5.9-16.2h-21.8l-6.7,16.2h-6.3l23.2-50s4.9,0,4.9,0ZM404.8,226.5l-9.8,23.5h18.6l-8.8-23.5h0ZM440.4,220l34.1,39.8-1.1-39.8h5.5v49.8c-.1,0-2.8.9-2.8.9l-36.1-41.7,1.2,40.9h-5.5v-50h4.7ZM502,220v50h-6.2v-50h6.2ZM535.3,220l-25.7,22.2,26.8,27.8h-8.7l-25.4-26.8,24.9-23.3h8.1Z"/>
    <path class="st1" d="M359,147.9h-16.9l-.6.5s-1.3,4.2-1.4,5.2c.2,2,9.7.2,9.7.2l-22,46.3h9.7l5.1-12.4h21.3l4.5,12.4h12.1l-21.5-52.2h0ZM344.8,182.2l8.7-21.8,8,21.8h-16.7Z"/>
  </g>
</svg>