<svg width="35" height="25" viewBox="0 0 35 25" fill="none" xmlns="http://www.w3.org/2000/svg">
<path d="M7.44641 7.58273C7.79743 7.16628 8.03572 6.6068 7.97294 6.03516C7.45901 6.0595 6.83189 6.35684 6.46873 6.77395C6.14291 7.13085 5.85421 7.71358 5.9296 8.2611C6.50631 8.30848 7.08279 7.98766 7.44641 7.58273Z" fill="#222222"/>
<path d="M7.96641 8.3681C7.45677 8.33941 6.9935 8.51247 6.61871 8.65247C6.3773 8.74265 6.17259 8.81912 6.01586 8.81912C5.84304 8.81912 5.63066 8.7395 5.39177 8.64994C5.07737 8.53207 4.71703 8.39698 4.3405 8.40353C3.47784 8.41549 2.6775 8.87824 2.23987 9.61399C1.33964 11.0857 2.00227 13.269 2.87776 14.468C3.30279 15.0611 3.81534 15.7141 4.49034 15.6906C4.786 15.6796 4.99833 15.5946 5.21825 15.5066C5.47282 15.4047 5.73758 15.2987 6.15357 15.2987C6.55025 15.2987 6.80289 15.4014 7.04557 15.5001C7.27694 15.5941 7.49925 15.6845 7.8287 15.6786C8.52891 15.6669 8.96677 15.0853 9.39203 14.4917C9.85642 13.8476 10.0598 13.2249 10.0887 13.1361L10.0918 13.1269C10.091 13.1262 10.0852 13.1236 10.0749 13.1191C9.91875 13.0511 8.74099 12.5378 8.72917 11.1685C8.71732 10.0194 9.65642 9.43649 9.81012 9.3411C9.81985 9.33505 9.82644 9.33096 9.82943 9.32881C9.22935 8.487 8.29131 8.39201 7.96641 8.3681Z" fill="#222222"/>
<path fill-rule="evenodd" clip-rule="evenodd" d="M19.4089 9.63855C19.4089 7.90492 18.141 6.71424 16.3196 6.71424H12.8012V15.6167H14.258V12.5752H16.2745C18.1146 12.5752 19.4089 11.3785 19.4089 9.63855ZM15.9294 11.4154H14.258V7.88036H15.9359C17.1976 7.88036 17.9194 8.52177 17.9194 9.64485C17.9194 10.7677 17.1976 11.4154 15.9294 11.4154Z" fill="#222222"/>
<path fill-rule="evenodd" clip-rule="evenodd" d="M19.7701 13.7722C19.7701 12.6307 20.6873 11.9767 22.378 11.878L24.1925 11.773V11.2796C24.1925 10.558 23.6918 10.163 22.801 10.163C22.066 10.163 21.5328 10.5208 21.4224 11.0699H20.1085C20.1477 9.91613 21.292 9.07736 22.8404 9.07736C24.5048 9.07736 25.5911 9.90396 25.5911 11.1872V15.6167H24.2447V14.5497H24.2122C23.8282 15.2468 22.9829 15.6845 22.066 15.6845C20.7134 15.6845 19.7701 14.9197 19.7701 13.7722ZM24.1925 13.1984V12.6985L22.5735 12.7972C21.6632 12.8528 21.188 13.1736 21.188 13.7351C21.188 14.278 21.6826 14.6297 22.4564 14.6297C23.4448 14.6297 24.1925 14.0313 24.1925 13.1984Z" fill="#222222"/>
<path d="M26.8288 16.9312V17.9982C26.9264 18.023 27.2838 18.0352 27.3945 18.0352C28.8123 18.0352 29.4818 17.5233 30.0675 15.9622L32.6231 9.15747H31.1402L29.4236 14.4134H29.3909L27.674 9.15747H26.1524L28.6171 15.6353L28.487 16.03C28.2656 16.6967 27.902 16.9555 27.2579 16.9555C27.1406 16.9555 26.9195 16.9432 26.8288 16.9312Z" fill="#222222"/>
</svg>
