<svg width="38" height="27" viewBox="0 0 38 27" fill="none" xmlns="http://www.w3.org/2000/svg">
<path d="M4.58594 20.8626V16.9082H5.85746C6.78167 16.9082 7.37623 17.2415 7.37623 17.9307C7.37623 18.3205 7.18786 18.5917 6.92296 18.7498C7.30558 18.9193 7.52927 19.2469 7.52927 19.6932C7.52927 20.4898 6.92295 20.8626 5.98108 20.8626L4.58594 20.8626ZM5.40419 18.5521H6.01052C6.38137 18.5521 6.54033 18.377 6.54033 18.055C6.54033 17.7104 6.25187 17.5974 5.86334 17.5974H5.40419V18.5521ZM5.40419 20.1734H5.91044C6.40493 20.1734 6.69337 20.0548 6.69337 19.6819C6.69337 19.3148 6.44614 19.1622 5.98108 19.1622H5.40419V20.1734ZM9.11608 20.9304C8.30959 20.9304 7.90341 20.5519 7.90341 20.0435C7.90341 19.4842 8.38024 19.1566 9.08664 19.1509C9.26218 19.154 9.43726 19.1691 9.61055 19.1961V19.0605C9.61055 18.7159 9.40452 18.5521 9.01011 18.5521C8.74442 18.5489 8.48058 18.5949 8.23306 18.6877L8.0859 18.0776C8.33903 17.9759 8.74521 17.9081 9.1043 17.9081C9.96964 17.9081 10.3994 18.3487 10.3994 19.1114V20.6818C10.158 20.8005 9.70474 20.9304 9.11608 20.9304V20.9304ZM9.61055 20.292V19.6876C9.47331 19.6583 9.3332 19.6431 9.19261 19.6424C8.92181 19.6424 8.70989 19.7441 8.70989 20.0096C8.70989 20.2469 8.88649 20.3711 9.19848 20.3711C9.34035 20.3756 9.48138 20.3485 9.61055 20.292ZM10.9713 20.8626V18.1567C11.3943 17.9936 11.8458 17.9092 12.3017 17.9081C13.1611 17.9081 13.6556 18.3148 13.6556 19.0662V20.8626H12.8433V19.1227C12.8433 18.7329 12.6549 18.5521 12.2958 18.5521C12.1175 18.5497 11.9408 18.5844 11.7778 18.6538V20.8626L10.9713 20.8626ZM16.4946 18.0776L16.3415 18.6933C16.1312 18.6059 15.9054 18.5579 15.6763 18.5521C15.1995 18.5521 14.9405 18.8741 14.9405 19.4051C14.9405 19.987 15.2113 20.2864 15.7175 20.2864C15.9434 20.2805 16.1658 20.2305 16.3709 20.1395L16.5004 20.7666C16.2339 20.8804 15.9444 20.9364 15.6527 20.9304C14.6756 20.9304 14.1104 20.3485 14.1104 19.4277C14.1104 18.5126 14.6697 17.9081 15.6057 17.9081C15.9108 17.9067 16.2131 17.9643 16.4946 18.0776H16.4946ZM18.2495 20.9304C17.343 20.9304 16.7778 20.3259 16.7778 19.4164C16.7778 18.5126 17.343 17.9081 18.2495 17.9081C19.162 17.9081 19.7153 18.5126 19.7153 19.4164C19.7153 20.3259 19.162 20.9304 18.2495 20.9304H18.2495ZM18.2495 20.2864C18.6675 20.2864 18.8853 19.9531 18.8853 19.4164C18.8853 18.8854 18.6675 18.5521 18.2495 18.5521C17.8375 18.5521 17.6079 18.8854 17.6079 19.4164C17.6079 19.9531 17.8375 20.2864 18.2495 20.2864H18.2495ZM20.1854 20.8626V18.1567C20.6084 17.9936 21.0599 17.9092 21.5158 17.9081C22.3752 17.9081 22.8697 18.3148 22.8697 19.0662V20.8626H22.0574V19.1227C22.0574 18.7329 21.869 18.5521 21.5099 18.5521C21.3316 18.5497 21.1549 18.5844 20.9919 18.6538V20.8626L20.1854 20.8626ZM24.7018 20.9304C24.0013 20.9304 23.6422 20.5632 23.6422 19.8175V18.5973H23.2419V17.9759H23.6422V17.3488L24.4546 17.3093V17.9759H25.108V18.5973H24.4546V19.8062C24.4546 20.1339 24.5958 20.2864 24.8607 20.2864C24.9657 20.2862 25.0703 20.2748 25.1727 20.2525L25.2139 20.8796C25.0458 20.9153 24.874 20.9324 24.7018 20.9304H24.7018ZM26.7523 20.9304C25.9458 20.9304 25.5396 20.5519 25.5396 20.0435C25.5396 19.4842 26.0164 19.1566 26.7228 19.1509C26.8984 19.154 27.0734 19.1691 27.2467 19.1961V19.0605C27.2467 18.7159 27.0407 18.5521 26.6463 18.5521C26.3806 18.5489 26.1168 18.5949 25.8692 18.6877L25.7221 18.0776C25.9752 17.9759 26.3814 17.9081 26.7405 17.9081C27.6058 17.9081 28.0356 18.3487 28.0356 19.1114V20.6818C27.7942 20.8005 27.3409 20.9304 26.7523 20.9304H26.7523ZM27.2467 20.292V19.6876C27.1095 19.6583 26.9694 19.6431 26.8288 19.6424C26.558 19.6424 26.3461 19.7441 26.3461 20.0096C26.3461 20.2469 26.5227 20.3711 26.8347 20.3711C26.9765 20.3756 27.1176 20.3485 27.2467 20.292H27.2467ZM30.8149 18.0776L30.6619 18.6933C30.4516 18.6059 30.2258 18.5579 29.9967 18.5521C29.5199 18.5521 29.2608 18.8741 29.2608 19.4051C29.2608 19.987 29.5316 20.2864 30.0379 20.2864C30.2638 20.2805 30.4861 20.2305 30.6913 20.1395L30.8208 20.7666C30.5543 20.8804 30.2648 20.9364 29.9731 20.9304C28.9959 20.9304 28.4308 20.3485 28.4308 19.4277C28.4308 18.5126 28.9901 17.9081 29.926 17.9081C30.2312 17.9067 30.5335 17.9643 30.8149 18.0776H30.8149ZM32.601 20.9304C31.9005 20.9304 31.5414 20.5632 31.5414 19.8175V18.5973H31.1411V17.9759H31.5414V17.3488L32.3538 17.3093V17.9759H33.0072V18.5973H32.3538V19.8062C32.3538 20.1339 32.495 20.2864 32.7599 20.2864C32.8649 20.2862 32.9696 20.2748 33.0719 20.2525L33.1131 20.8796C32.945 20.9153 32.7732 20.9324 32.601 20.9304H32.601Z" fill="#1E3764"/>
<path d="M10.2523 14.9309C14.5509 14.9309 16.7002 12.1808 18.8495 9.43066H4.58594V14.9309H10.2523Z" fill="url(#paint0_linear_757_63906)"/>
<path d="M27.4468 3.93066C23.1482 3.93066 20.9989 6.68078 18.8496 9.43089H33.1132V3.93066H27.4468Z" fill="url(#paint1_linear_757_63906)"/>
<defs>
<linearGradient id="paint0_linear_757_63906" x1="7.47101" y1="12.4347" x2="17.798" y2="8.43771" gradientUnits="userSpaceOnUse">
<stop stop-color="#005AB9"/>
<stop offset="1" stop-color="#1E3764"/>
</linearGradient>
<linearGradient id="paint1_linear_757_63906" x1="19.7132" y1="9.90795" x2="30.6941" y2="6.004" gradientUnits="userSpaceOnUse">
<stop stop-color="#FBA900"/>
<stop offset="1" stop-color="#FFD800"/>
</linearGradient>
</defs>
</svg>
