<svg width="38" height="27" viewBox="0 0 38 27" fill="none" xmlns="http://www.w3.org/2000/svg">
<path d="M14.2676 17.4518C13.9352 17.4518 13.6672 17.1838 13.6672 16.8514V10.6011C13.6672 10.2687 13.9352 10.0007 14.2676 10.0007C14.5999 10.0007 14.868 10.2687 14.868 10.6011V16.8514C14.8733 17.1838 14.5999 17.4518 14.2676 17.4518Z" fill="#222222"/>
<path d="M17.4249 17.4518C17.0926 17.4518 16.8245 17.1838 16.8245 16.8514V10.6011C16.8245 10.2687 17.0926 10.0007 17.4249 10.0007C17.7573 10.0007 18.0253 10.2687 18.0253 10.6011V16.8514C18.0253 17.1838 17.7573 17.4518 17.4249 17.4518Z" fill="#222222"/>
<path d="M20.5769 17.4518C20.2445 17.4518 19.9765 17.1838 19.9765 16.8514V10.6011C19.9765 10.2687 20.2445 10.0007 20.5769 10.0007C20.9092 10.0007 21.1773 10.2687 21.1773 10.6011V16.8514C21.1826 17.1838 20.9092 17.4518 20.5769 17.4518Z" fill="#222222"/>
<path d="M23.7342 17.4518C23.4019 17.4518 23.1338 17.1838 23.1338 16.8514V10.6011C23.1338 10.2687 23.4019 10.0007 23.7342 10.0007C24.0666 10.0007 24.3346 10.2687 24.3346 10.6011V16.8514C24.3346 17.1838 24.0666 17.4518 23.7342 17.4518Z" fill="#222222"/>
<path d="M25.8087 19.9391H12.1931C11.8607 19.9391 11.5927 19.671 11.5927 19.3387C11.5927 19.0063 11.8607 18.7383 12.1931 18.7383H25.8087C26.1411 18.7383 26.4091 19.0063 26.4091 19.3387C26.4091 19.671 26.1411 19.9391 25.8087 19.9391Z" fill="#222222"/>
<path d="M26.6557 10.1347C26.5699 10.1347 26.4788 10.1133 26.393 10.0757L19.0009 6.50029L11.6088 10.0757C11.3086 10.2205 10.9494 10.0972 10.8047 9.797C10.66 9.49681 10.7832 9.13766 11.0834 8.99293L18.7382 5.28882C18.9044 5.20841 19.0974 5.20841 19.2636 5.28882L26.9184 8.99293C27.2185 9.13766 27.3418 9.49681 27.1971 9.797C27.0953 10.0114 26.8808 10.1347 26.6557 10.1347Z" fill="#222222"/>
</svg>
