<svg width="24" height="18" viewBox="0 0 24 18" fill="none" xmlns="http://www.w3.org/2000/svg">
<g clip-path="url(#clip0_757_64151)">
<path d="M21.3049 12.0801H2.06836V12.3848L21.3018 12.3909L21.3049 12.0801V12.0801Z" fill="#D71A20"/>
<path d="M9.7173 1.34971C8.9994 1.34401 8.18883 1.58061 7.29677 2.22023C7.29665 2.22023 7.56425 2.94835 7.00555 3.71585C7.00543 3.71585 7.02016 3.72369 7.02067 3.72351C7.56226 3.40155 10.1423 0.971462 12.9396 3.87691C12.9396 3.87691 17.356 3.463 16.1847 7.59293C16.1847 7.59293 17.7467 8.19469 17.5576 10.4576C17.5639 10.4581 17.5702 10.4581 17.5765 10.4576C17.642 10.3129 18.5567 8.33993 17.1113 7.42803C17.2719 6.95541 17.3096 6.44474 17.2203 5.95086C17.131 5.45698 16.9181 4.99852 16.6045 4.62472C16.0495 3.93879 15.0327 3.28369 13.1703 3.55861C13.1702 3.55861 11.871 1.36681 9.7173 1.3497V1.34971ZM5.26579 1.43408C5.26579 1.43408 5.26542 1.4529 5.26579 1.45325C5.51108 1.59175 7.00278 2.55273 5.33008 3.70051L6.36637 8.22186C6.36637 8.22186 7.8191 7.02721 9.02518 7.57376C9.79477 7.92262 9.99327 8.88603 9.84589 10.3847C9.85344 10.3854 9.86103 10.3854 9.86858 10.3847C9.97916 10.1216 11.4054 7.43602 9.23319 6.6227C8.82341 6.4691 8.24606 6.42112 7.20978 6.80678L6.24913 4.01113C6.24913 4.01113 7.7738 1.91537 5.26579 1.43408V1.43408ZM14.3428 7.07522C13.848 7.10678 13.3823 7.33672 13.038 7.71949C11.7523 6.4464 10.6174 7.84221 10.6174 7.84221C11.4524 8.69197 11.0486 10.4576 11.0486 10.4576C11.0482 10.4566 11.0668 10.4589 11.0675 10.4576C11.4805 9.7805 11.6928 8.985 11.6764 8.17584C12.3702 7.96097 12.7808 8.7319 12.7808 8.7319C13.6485 7.76602 14.5164 7.70405 14.9895 8.00327C16.1634 8.74612 15.7611 10.3847 15.7611 10.3847C15.7686 10.3854 15.7762 10.3854 15.7838 10.3847C16.7665 8.45281 15.8756 7.54118 15.2618 7.26313C14.9726 7.12672 14.6584 7.06248 14.3428 7.07522V7.07522Z" fill="#D71A20"/>
<path fill-rule="evenodd" clip-rule="evenodd" d="M16.1697 15.6487C16.1697 15.6262 16.1878 15.6306 16.2136 15.6306H16.274C16.283 15.6302 16.2919 15.6304 16.3009 15.6312C16.3403 15.6397 16.3766 15.6607 16.4048 15.6915L17.1032 16.6202L17.5662 16.6206L16.8553 15.6402L16.7182 15.4678C16.7126 15.4588 16.7147 15.4476 16.7392 15.421L17.4288 14.6223L17.4927 14.5529C17.4994 14.544 17.516 14.5313 17.4788 14.5313H17.0968C17.0427 14.5313 17.0447 14.527 17.0123 14.5622L16.3798 15.3019C16.3701 15.3163 16.3577 15.3285 16.3434 15.3376C16.3292 15.3468 16.3134 15.3528 16.2969 15.3553H16.2178C16.2135 15.3551 16.2063 15.3552 16.1948 15.3552C16.1879 15.354 16.1741 15.3552 16.1712 15.3368C16.1696 15.3262 16.169 15.3155 16.1693 15.3048V13.6013H15.7395V16.6204H16.1691V15.6697L16.1697 15.6487ZM20.5589 14.4844C20.4125 14.4861 20.2669 14.5089 20.1262 14.5523C20.0048 14.6014 19.8947 14.6781 19.8034 14.777C19.7121 14.876 19.6417 14.9949 19.5971 15.1257C19.522 15.3639 19.5076 15.6194 19.5554 15.8656C19.6694 16.3444 19.8372 16.4776 20.1427 16.598C20.9525 16.7672 21.413 16.52 21.4974 15.8418C21.4974 15.8418 21.6131 15.0748 21.2693 14.7C21.2693 14.7 21.0886 14.4844 20.5589 14.4844V14.4844ZM20.5309 14.8508C20.9867 14.8508 21.0453 15.2146 21.0453 15.2146C21.0818 15.3895 21.0911 15.5697 21.0729 15.7479C21.0436 16.1219 20.7744 16.2779 20.702 16.2854C20.5769 16.3121 20.4477 16.3068 20.3248 16.2701C20.0394 16.1867 20.0087 15.7715 20.0087 15.7715C19.9848 15.5893 19.9947 15.4039 20.0379 15.2258C20.0544 15.1615 20.0821 15.1011 20.1197 15.048C20.172 14.9867 20.2355 14.9375 20.3063 14.9036C20.377 14.8697 20.4535 14.8517 20.5309 14.8508V14.8508ZM14.545 14.487C14.545 14.487 13.9784 14.4959 13.7371 14.9537C13.7371 14.9537 13.287 15.7405 13.9499 16.4037C14.049 16.4887 14.2079 16.6404 14.7143 16.6326C14.8223 16.6267 15.0243 16.6579 15.4194 16.3066L15.2903 16.1092L15.2766 16.0906C15.2599 16.0778 15.24 16.0708 15.2195 16.0705C15.199 16.0701 15.1789 16.0766 15.1619 16.0888L15.0441 16.1747C14.9782 16.2263 14.8966 16.249 14.7036 16.2666C14.4266 16.281 14.2284 16.1994 14.1014 15.9212C14.1014 15.9212 14.0581 15.8437 14.0581 15.5961C14.0583 15.5854 14.0562 15.5708 14.0792 15.5708H15.4051C15.4173 15.5708 15.4267 15.5712 15.4297 15.5658C15.4336 15.5493 15.435 15.5322 15.4339 15.5152C15.4339 15.4214 15.4346 15.3138 15.4293 15.2336C15.421 15.1205 15.392 15.0102 15.3439 14.9092C15.3439 14.9092 15.1762 14.487 14.545 14.487V14.487ZM14.6274 14.8004C15.0518 14.8328 15.0494 15.3168 15.0402 15.3136H14.0635C14.0635 14.7461 14.6274 14.8004 14.6274 14.8004V14.8004ZM11.5492 13.6713V16.6025H12.0055V15.5366L12.0158 15.536H12.5634C12.6654 15.5349 12.7669 15.5212 12.866 15.4951C13.1012 15.421 13.3069 15.2652 13.4508 15.0521C13.5015 14.9563 13.6077 14.6075 13.5433 14.373C13.5196 14.2454 13.4686 14.1255 13.3944 14.0226C13.3944 14.0226 13.1625 13.6713 12.5714 13.6713H11.5492V13.6713ZM12.0099 14.0626H12.5922C12.6544 14.0576 12.7169 14.0663 12.7759 14.0881C12.8349 14.11 12.8891 14.1446 12.9352 14.1897C12.9812 14.2349 13.0182 14.2897 13.0438 14.3508C13.0695 14.4119 13.0832 14.478 13.0842 14.5449C13.0842 14.9435 12.8376 15.074 12.8376 15.074C12.7786 15.1208 12.7101 15.152 12.6377 15.1648C12.6248 15.1654 12.6118 15.1651 12.5988 15.1648H12.0099V14.0626V14.0626ZM9.0327 15.6352C9.0327 15.6127 9.05083 15.6171 9.07655 15.6171H9.13701C9.14597 15.6167 9.15494 15.6169 9.16387 15.6177C9.20336 15.6262 9.23956 15.6472 9.26779 15.678L9.96618 16.6067L10.4292 16.6071L9.71832 15.6267L9.58115 15.4543C9.57556 15.4453 9.57765 15.4341 9.60218 15.4075L10.2918 14.6088L10.3557 14.5394C10.3624 14.5305 10.379 14.5178 10.3418 14.5178H9.95986C9.90571 14.5178 9.90765 14.5135 9.87531 14.5487L9.24283 15.2884C9.23306 15.3028 9.22069 15.315 9.20644 15.3242C9.1922 15.3333 9.17639 15.3393 9.15993 15.3418H9.08082C9.07648 15.3417 9.06934 15.3418 9.05783 15.3418C9.0509 15.3406 9.03709 15.3417 9.03418 15.3234C9.03265 15.3128 9.03203 15.3021 9.03232 15.2913V13.5879H8.60252V16.6069H9.03211V15.6563L9.0327 15.6352ZM6.88418 15.1272L6.88422 15.1234C6.88515 15.1134 6.88784 15.1038 6.89214 15.095C6.89214 15.095 7.00901 14.8512 7.37941 14.8512C7.37941 14.8512 7.77109 14.8404 7.77109 15.165V16.5895H8.18029V15.2163C8.18029 15.1763 8.18228 15.1406 8.18029 15.0963C8.17254 14.9669 8.12684 14.8434 8.04974 14.7435C7.97265 14.6437 7.8681 14.5725 7.75107 14.5403C7.63197 14.5081 7.5085 14.4987 7.38636 14.5126C7.19527 14.539 7.01899 14.637 6.88856 14.7892L6.87918 14.802C6.86979 14.8148 6.84111 14.8202 6.84111 14.7747V14.6443C6.84218 14.6324 6.84094 14.6204 6.83745 14.609C6.83395 14.5976 6.82829 14.5871 6.82081 14.5782C6.81334 14.5693 6.80423 14.5621 6.79405 14.5572C6.78386 14.5522 6.77282 14.5496 6.76165 14.5495H6.46258V16.5895H6.88386V15.1329L6.88418 15.1272ZM18.4733 14.4874C18.4209 14.4897 18.3687 14.4949 18.3168 14.503C18.3168 14.503 18.0573 14.5332 17.714 14.8214C17.714 14.8214 17.6643 14.8475 17.7176 14.9044L17.8631 15.0597C17.8767 15.073 17.9138 15.0979 17.9972 15.0452C18.1172 14.9653 18.2454 14.9007 18.3792 14.8525C18.4672 14.8256 18.5614 14.8345 18.6437 14.8774C18.7259 14.9203 18.7906 14.9943 18.8253 15.0852C18.8253 15.0852 18.8535 15.1298 18.8535 15.372C18.8548 15.4239 18.8537 15.4248 18.8154 15.4248C18.8154 15.4248 17.915 15.3745 17.6721 15.8243C17.6721 15.8243 17.4401 16.1375 17.7637 16.4833C17.7637 16.4833 17.9835 16.7214 18.435 16.5921C18.5842 16.5591 18.722 16.4826 18.8333 16.3711C18.8343 16.3695 18.8399 16.3635 18.8412 16.3618C18.8551 16.3443 18.8908 16.3241 18.9002 16.3633C18.902 16.37 18.9031 16.3769 18.9034 16.3838C18.9048 16.3971 18.9055 16.4103 18.9055 16.4236C18.9057 16.4753 18.8985 16.5735 19.0294 16.5735H19.2278C19.24 16.5737 19.2619 16.5717 19.2619 16.5461V15.2079C19.2572 15.1197 19.2444 15.0322 19.2236 14.9468C19.1649 14.8103 19.0731 14.6933 18.9578 14.6079C18.9488 14.6033 18.8099 14.4734 18.4733 14.4874H18.4733ZM18.8068 15.7049C18.8175 15.7052 18.8476 15.7049 18.8476 15.7345V16.0761C18.8256 16.1185 18.7958 16.1558 18.76 16.1856C18.7242 16.2154 18.6832 16.237 18.6393 16.2493C18.5495 16.2846 18.2567 16.3866 18.124 16.272C18.0755 16.2359 18.0413 16.1819 18.0278 16.1203C18.0144 16.0587 18.0226 15.9939 18.051 15.9385C18.051 15.9385 18.0932 15.8358 18.345 15.7637C18.4958 15.7222 18.6511 15.7024 18.8068 15.7049V15.7049ZM5.28403 14.4872C5.23163 14.4895 5.17937 14.4948 5.12748 14.503C5.12748 14.503 4.86804 14.5332 4.52468 14.8214C4.52468 14.8214 4.47503 14.8475 4.52831 14.9044L4.67378 15.0597C4.68745 15.073 4.72436 15.0979 4.80775 15.0452C4.92779 14.9653 5.05603 14.9007 5.18994 14.8525C5.27794 14.8256 5.37208 14.8345 5.45437 14.8774C5.53666 14.9203 5.60132 14.9943 5.63599 15.0852C5.63599 15.0852 5.66421 15.1298 5.66421 15.372C5.66556 15.4239 5.66419 15.4246 5.62592 15.4246C5.62592 15.4246 4.72577 15.3745 4.48278 15.8243C4.48278 15.8243 4.2506 16.1375 4.57425 16.4833C4.57425 16.4833 4.79426 16.7212 5.24575 16.5919C5.39492 16.5589 5.53273 16.4824 5.64406 16.3709C5.64499 16.3693 5.65059 16.3632 5.65192 16.3616C5.66579 16.3441 5.7015 16.3241 5.71095 16.3633C5.71263 16.37 5.71365 16.3769 5.71397 16.3838C5.71544 16.397 5.71618 16.4102 5.71619 16.4234C5.71646 16.4751 5.70927 16.5735 5.84009 16.5735H6.03853C6.05075 16.5737 6.07259 16.5717 6.07259 16.5461V15.2079C6.06783 15.1197 6.05494 15.0322 6.03411 14.9468C5.97552 14.8103 5.88381 14.6932 5.76857 14.6079C5.75951 14.6033 5.62064 14.4732 5.28403 14.4872V14.4872ZM5.61726 15.7047C5.62798 15.705 5.65836 15.7049 5.65836 15.7345V16.0758C5.63635 16.1184 5.60656 16.1557 5.57075 16.1855C5.53495 16.2153 5.49388 16.237 5.45004 16.2493C5.36025 16.2846 5.0672 16.3866 4.93448 16.272C4.8861 16.2359 4.85189 16.1818 4.83846 16.1203C4.82503 16.0587 4.83333 15.9939 4.86175 15.9385C4.86175 15.9385 4.90389 15.8356 5.1557 15.7635C5.30644 15.722 5.46165 15.7022 5.61726 15.7047V15.7047ZM2.11328 13.6765V16.5893H3.12084C3.32732 16.5973 3.53327 16.5621 3.72726 16.4857C3.89862 16.4037 4.04317 16.2685 4.14229 16.0975C4.21584 15.9227 4.23189 15.7262 4.18782 15.5403C4.16395 15.4872 4.15355 15.3895 3.94263 15.2258C3.85481 15.1615 3.74983 15.1297 3.64365 15.1354C3.63786 15.1352 3.60567 15.1369 3.60033 15.1157C3.60006 15.1157 3.59103 15.0873 3.63922 15.072C3.77678 15.027 3.90042 14.9429 3.99703 14.8285C4.04359 14.7752 4.07947 14.7123 4.10244 14.6435C4.12542 14.5748 4.135 14.5017 4.1306 14.4288C4.12349 14.2837 4.08493 14.1424 4.01799 14.0161C4.01799 14.0161 3.92791 13.8261 3.59067 13.728C3.56831 13.7214 3.38784 13.6765 2.13906 13.6765H2.11328V13.6765ZM2.57848 14.0624H3.20868C3.49103 14.0624 3.58201 14.2493 3.58201 14.2493C3.62604 14.33 3.65229 14.4205 3.65876 14.5138C3.65996 14.572 3.64904 14.6297 3.62676 14.6828C3.60448 14.7359 3.57142 14.7829 3.53002 14.8205C3.4324 14.9026 3.31554 14.9541 3.19236 14.9693C3.12276 14.9734 2.79314 14.9693 2.59359 14.9693C2.58249 14.9693 2.57623 14.9701 2.57627 14.9665L2.57649 14.9585V14.0658C2.57653 14.064 2.57575 14.0626 2.57852 14.0624H2.57848ZM2.57343 15.3177H3.24494C3.54568 15.3177 3.64244 15.5074 3.64244 15.5074C3.68918 15.5887 3.71723 15.6807 3.72424 15.7758C3.72503 15.8355 3.71307 15.8946 3.68929 15.9486C3.66551 16.0025 3.63053 16.0499 3.58704 16.0871C3.48179 16.1708 3.35765 16.2228 3.22741 16.2379C3.15328 16.2421 2.80231 16.2379 2.58975 16.2379C2.57793 16.2378 2.57118 16.2387 2.57122 16.235V15.3214C2.57126 15.3196 2.5705 15.318 2.57343 15.3177V15.3177Z" fill="black"/>
</g>
<defs>
<clipPath id="clip0_757_64151">
<rect width="19.4483" height="15.3" fill="white" transform="translate(2.06836 1.34961)"/>
</clipPath>
</defs>
</svg>
