<svg width="38" height="27" viewBox="0 0 38 27" fill="none" xmlns="http://www.w3.org/2000/svg">
<g clip-path="url(#clip0_757_63942)">
<path d="M26.8628 5.24219H11.1387V20.9663H26.8628V5.24219Z" fill="url(#paint0_linear_757_63942)"/>
<path d="M19.1368 11.781C18.6092 11.781 18.1126 11.9142 17.6782 12.147V8.6582H16.0527V14.8638C16.0527 16.5668 17.4338 17.9479 19.1368 17.9479C20.8398 17.9479 22.2208 16.5668 22.2208 14.8638C22.2208 13.1608 20.8398 11.781 19.1368 11.781ZM19.1368 16.3483C18.317 16.3483 17.6523 15.6849 17.6523 14.8638C17.6523 14.044 18.317 13.3793 19.1368 13.3793C19.9566 13.3793 20.6213 14.044 20.6213 14.8638C20.6213 15.6849 19.9566 16.3483 19.1368 16.3483Z" fill="white"/>
<path d="M20.7672 11.1009C21.5707 11.1009 22.222 10.4496 22.222 9.64615C22.222 8.84272 21.5707 8.19141 20.7672 8.19141C19.9638 8.19141 19.3125 8.84272 19.3125 9.64615C19.3125 10.4496 19.9638 11.1009 20.7672 11.1009Z" fill="url(#paint1_linear_757_63942)"/>
</g>
<defs>
<linearGradient id="paint0_linear_757_63942" x1="797.321" y1="1566.48" x2="797.321" y2="11.2855" gradientUnits="userSpaceOnUse">
<stop stop-color="#5A5A5A"/>
<stop offset="0.1459" stop-color="#494949"/>
<stop offset="0.5197" stop-color="#212121"/>
<stop offset="0.8174" stop-color="#090909"/>
<stop offset="1"/>
</linearGradient>
<linearGradient id="paint1_linear_757_63942" x1="61.9474" y1="50.9013" x2="267.604" y2="256.558" gradientUnits="userSpaceOnUse">
<stop stop-color="#E52F08"/>
<stop offset="1" stop-color="#E94F96"/>
</linearGradient>
<clipPath id="clip0_757_63942">
<rect x="11.1387" y="5.24219" width="15.7241" height="15.7241" rx="1.96552" fill="white"/>
</clipPath>
</defs>
</svg>
