<svg width="51" height="14" viewBox="0 0 51 14" fill="none" xmlns="http://www.w3.org/2000/svg">
<g clip-path="url(#clip0_576_48270)">
<path fill-rule="evenodd" clip-rule="evenodd" d="M14.5969 0.971788C14.8472 0.730697 15.2441 0.732467 15.4923 0.975778L19.9895 6.43757C20.3032 6.74509 20.3001 7.25082 19.9826 7.55445L15.571 13.0598C15.4624 13.1638 15.3177 13.2218 15.1672 13.2218H11.463C10.941 13.2218 10.6812 12.5897 11.0528 12.2233L15.5731 6.99957L11.463 1.94401H9.81431L13.7451 6.43782C14.0659 6.74393 14.0661 7.25549 13.7457 7.56195L8.58099 13.0598C8.47226 13.1638 8.32759 13.2218 8.17709 13.2218H2.33327C1.04493 13.2218 0.000381238 12.1776 0.000183275 10.8893C-0.000215146 8.29635 0.000123868 5.70348 0.000372411 3.11057C0.000495932 1.82195 1.04515 0.777344 2.33378 0.777344H4.65491C4.97742 0.777344 5.23888 1.03851 5.23888 1.36068C5.23888 1.68284 4.97742 1.94401 4.65491 1.94401H2.72402C1.86491 1.94401 1.16846 2.64046 1.16846 3.49957C1.16846 5.8329 1.16846 8.16623 1.16846 10.4996C1.16846 11.3587 1.86491 12.0551 2.72402 12.0551H7.74494L12.4586 6.99957L7.93831 1.77584C7.56674 1.40947 7.82647 0.777344 8.34851 0.777344H11.9589C12.1094 0.777344 12.254 0.835382 12.3627 0.939347L16.8602 6.43718C17.1806 6.74365 17.1803 7.2552 16.8597 7.56132L12.9288 12.0551H14.6811L18.6877 6.99957L14.5969 1.94401C14.3405 1.69068 14.3372 1.2218 14.5969 0.971788Z" fill="#141413"/>
<path d="M25.6684 1.16623C25.6684 0.951455 25.4943 0.777344 25.2795 0.777344C25.0647 0.777344 24.8906 0.951455 24.8906 1.16623V12.8329C24.8906 13.0477 25.0647 13.2218 25.2795 13.2218C25.4943 13.2218 25.6684 13.0477 25.6684 12.8329V1.16623Z" fill="#141413"/>
<path d="M43.9589 1.80469H37.7109V12.1985H43.9589V1.80469Z" fill="#FF5F00"/>
<path d="M38.3568 6.99954C38.3552 4.97164 39.2693 3.05562 40.8355 1.80356C38.1747 -0.326235 34.3537 -0.0160118 32.0579 2.51621C29.762 5.04843 29.762 8.95246 32.0579 11.4847C34.3537 14.017 38.1747 14.3271 40.8355 12.1973C39.2687 10.9449 38.3547 9.02806 38.3568 6.99954Z" fill="#EB001B"/>
<path d="M50.5939 11.1695V10.9472H50.6833V10.9102H50.4688V10.9472H50.5581V11.1695H50.5939Z" fill="#F79E1B"/>
<path d="M51.0047 10.9099H50.9333L50.8618 11.0952L50.7903 10.9099H50.7188V11.1693H50.7724V10.9654L50.8318 11.1322H50.8976L50.955 10.9654V11.1693H51.0047V10.9099Z" fill="#F79E1B"/>
<path d="M51.3325 7.00209C51.3325 9.53278 49.9137 11.8413 47.6788 12.9471C45.4439 14.0531 42.7853 13.7622 40.832 12.1981C42.3975 10.9449 43.3117 9.02917 43.3117 7.00118C43.3117 4.97317 42.3975 3.0574 40.832 1.80428C42.7853 0.240174 45.4439 -0.0506988 47.6788 1.05519C49.9137 2.16108 51.3325 4.46958 51.3325 7.00026V7.00209Z" fill="#F79E1B"/>
</g>
<defs>
<clipPath id="clip0_576_48270">
<rect width="51" height="14" fill="white"/>
</clipPath>
</defs>
</svg>
