<svg width="38" height="27" viewBox="0 0 38 27" fill="none" xmlns="http://www.w3.org/2000/svg">
<path d="M16.3488 16.7233C16.3488 16.3162 16.0188 15.9862 15.6117 15.9862H13.0447L12.9644 15.9906C12.5951 16.0306 12.3077 16.3434 12.3077 16.7233C12.3077 17.1304 12.6377 17.4604 13.0447 17.4604H15.6117L15.692 17.456C16.0613 17.416 16.3488 17.1032 16.3488 16.7233Z" fill="#222222"/>
<path fill-rule="evenodd" clip-rule="evenodd" d="M12.6575 5.87109H25.2486C27.1842 5.87109 28.7538 7.44068 28.7538 9.37627V10.0101L28.7539 10.02L28.7538 10.0299V16.8302C28.7538 18.7658 27.1842 20.3353 25.2486 20.3353H12.6575C10.7219 20.3353 9.15234 18.7658 9.15234 16.8302V9.37627C9.15234 7.44068 10.7219 5.87109 12.6575 5.87109ZM25.2486 7.34523C26.3388 7.34523 27.2287 8.20477 27.2775 9.2829H10.6286C10.6774 8.20477 11.5674 7.34523 12.6575 7.34523H25.2486ZM10.6265 16.8302V10.757H27.2797V16.8302C27.2797 17.9516 26.3701 18.8612 25.2486 18.8612H12.6575C11.5361 18.8612 10.6265 17.9516 10.6265 16.8302Z" fill="#222222"/>
</svg>
