<svg width="504" height="4" viewBox="0 0 504 4" fill="none" xmlns="http://www.w3.org/2000/svg">
<g clip-path="url(#clip0_832_76567)">
<path d="M0 3L5.41612 1L10.8322 3L16.2484 1L21.6645 3L27.0806 1L32.4967 3L37.9128 1L43.329 3L48.7451 1L54.1612 3L59.5773 1L64.9934 3L70.4096 1L75.8257 3L81.2418 1L86.6579 3L92.074 1L97.4902 3L102.906 1L108.322 3L113.706 1L119.09 3L124.474 1L129.858 3L135.242 1L140.626 3L146.01 1L151.393 3L156.777 1L162.161 3L167.545 1L172.929 3L178.313 1L183.697 3L189.081 1L194.464 3L199.848 1L205.232 3L210.616 1L216 3L221.416 1L226.832 3L232.248 1L237.664 3L243.081 1L248.497 3L253.913 1L259.329 3L264.745 1L270.161 3L275.577 1L280.993 3L286.41 1L291.826 3L297.242 1L302.658 3L308.074 1L313.49 3L318.906 1L324.322 3L329.706 1L335.09 3L340.474 1L345.858 3L351.242 1L356.626 3L362.01 1L367.393 3L372.777 1L378.161 3L383.545 1L388.929 3L394.313 1L399.697 3L405.081 1L410.465 3L415.848 1L421.232 3L426.616 1L432 3L437.416 1L442.832 3L448.248 1L453.664 3L459.081 1L464.497 3L469.913 1L475.329 3L480.745 1L486.161 3L491.577 1L496.993 3L502.41 1L507.826 3L513.242 1L518.658 3L524.074 1L529.49 3L534.906 1L540.322 3L545.706 1L551.09 3L556.474 1L561.858 3L567.242 1L572.626 3L578.01 1L583.393 3L588.777 1L594.161 3L599.545 1L604.929 3L610.313 1L615.697 3L621.081 1L626.464 3L631.848 1L637.232 3L642.616 1L648 3L653.416 1L658.832 3L664.248 1L669.664 3L675.081 1L680.497 3L685.913 1L691.329 3L696.745 1L702.161 3L707.577 1L712.993 3L718.41 1L723.826 3L729.242 1L734.658 3L740.074 1L745.49 3L750.906 1L756.322 3L761.706 1L767.09 3L772.474 1L777.858 3L783.242 1L788.626 3L794.01 1L799.393 3L804.777 1L810.161 3L815.545 1L820.929 3L826.313 1L831.697 3L837.081 1L842.464 3L847.848 1L853.232 3L858.616 1L864 3L869.416 1L874.832 3L880.248 1L885.664 3L891.081 1L896.497 3L901.913 1L907.329 3L912.745 1L918.161 3L923.577 1L928.993 3L934.41 1L939.826 3L945.242 1L950.658 3L956.074 1L961.49 3L966.906 1L972.322 3L977.706 1L983.09 3L988.474 1L993.858 3L999.242 1L1004.63 3L1010.01 1L1015.39 3L1020.78 1L1026.16 3L1031.55 1L1036.93 3L1042.31 1L1047.7 3L1053.08 1L1058.46 3L1063.85 1L1069.23 3L1074.62 1L1080 3L1085.42 1L1090.83 3L1096.25 1L1101.66 3L1107.08 1L1112.5 3L1117.91 1L1123.33 3L1128.75 1L1134.16 3L1139.58 1L1144.99 3L1150.41 1L1155.83 3L1161.24 1L1166.66 3L1172.07 1L1177.49 3L1182.91 1L1188.32 3L1193.71 1L1199.09 3L1204.47 1L1209.86 3L1215.24 1L1220.63 3L1226.01 1L1231.39 3L1236.78 1L1242.16 3L1247.55 1L1252.93 3L1258.31 1L1263.7 3L1269.08 1L1274.46 3L1279.85 1L1285.23 3L1290.62 1L1296 3" stroke="#222222" stroke-width="2" stroke-linecap="round" stroke-linejoin="round"/>
</g>
<defs>
<clipPath id="clip0_832_76567">
<rect width="504" height="4" fill="white"/>
</clipPath>
</defs>
</svg>
