<svg width="20" height="20" viewBox="0 0 20 20" fill="none" xmlns="http://www.w3.org/2000/svg">
<path d="M16.9296 2.45117H3.07044C1.37438 2.45117 0 3.78879 0 5.43948V14.4629C0 16.1136 1.37438 17.4512 3.07044 17.4512H16.9296C18.6256 17.4512 20 16.1136 20 14.4629V5.43948C20 3.78879 18.6256 2.45117 16.9296 2.45117Z" fill="#222222"/>
<path fill-rule="evenodd" clip-rule="evenodd" d="M8.25977 13.2258H11.9115V6.67529H8.25977V13.2258Z" fill="#EA5C0F"/>
<path fill-rule="evenodd" clip-rule="evenodd" d="M8.49232 9.95046C8.49232 8.62156 9.11552 7.43815 10.0863 6.67535C9.37641 6.11751 8.4806 5.78467 7.50709 5.78467C5.20233 5.78467 3.33398 7.64975 3.33398 9.95046C3.33398 12.2512 5.20233 14.1164 7.50709 14.1164C8.4806 14.1164 9.37641 13.7836 10.0863 13.2256C9.11552 12.4628 8.49232 11.2794 8.49232 9.95046Z" fill="#DD0C17"/>
<path fill-rule="evenodd" clip-rule="evenodd" d="M16.8382 9.95046C16.8382 12.2512 14.9699 14.1164 12.665 14.1164C11.6914 14.1164 10.7959 13.7836 10.0859 13.2256C11.0565 12.4628 11.68 11.2794 11.68 9.95046C11.68 8.62156 11.0565 7.43815 10.0859 6.67535C10.7959 6.11751 11.6914 5.78467 12.665 5.78467C14.9699 5.78467 16.8382 7.64975 16.8382 9.95046Z" fill="#F79E1B"/>
<path fill-rule="evenodd" clip-rule="evenodd" d="M16.7079 12.5608V12.3702H16.6657L16.617 12.5013L16.5683 12.3702H16.526V12.5608H16.5559V12.417L16.6014 12.5409H16.6324L16.6781 12.4168V12.5608H16.7079Z" fill="#F79E1B"/>
<path fill-rule="evenodd" clip-rule="evenodd" d="M16.4401 12.5608V12.4027H16.4942V12.3706H16.3563V12.4027H16.4104V12.5608H16.4401Z" fill="#F79E1B"/>
</svg>
