<svg width="38" height="27" viewBox="0 0 38 27" fill="none" xmlns="http://www.w3.org/2000/svg">
<path d="M5.24219 3.10754V23.7549C5.24219 24.7433 6.07052 25.5519 7.08292 25.5519H19.7195C29.273 25.5519 33.4146 20.3317 33.4146 13.4043C33.4146 6.51283 29.273 1.31055 19.7195 1.31055H7.08292C6.07052 1.31055 5.24219 2.11919 5.24219 3.10754Z" fill="white"/>
<path d="M13.7012 6.37859V21.635H20.5027C26.6783 21.635 29.3566 18.2297 29.3566 13.4138C29.3566 8.80452 26.6783 5.22852 20.5027 5.22852H14.8792C14.2258 5.22852 13.7012 5.74964 13.7012 6.37859Z" fill="#CC0066"/>
<path d="M19.7192 23.9068H8.72999C7.75441 23.9068 6.96289 23.1341 6.96289 22.1817V4.688C6.96289 3.7356 7.75441 2.96289 8.72999 2.96289H19.7192C30.1469 2.96289 31.7023 9.51291 31.7023 13.4124C31.7023 20.178 27.441 23.9068 19.7192 23.9068ZM8.72999 3.53793C8.07653 3.53793 7.55193 4.05007 7.55193 4.688V22.1817C7.55193 22.8196 8.07653 23.3318 8.72999 23.3318H19.7192C27.0637 23.3318 31.1133 19.8097 31.1133 13.4124C31.1133 4.82277 23.9713 3.53793 19.7192 3.53793H8.72999V3.53793Z" fill="black"/>
<path d="M16.0922 11.3566C16.3315 11.3566 16.5524 11.3926 16.7641 11.4645C16.9758 11.5363 17.1507 11.6531 17.3071 11.7969C17.4544 11.9496 17.574 12.1383 17.6661 12.354C17.7489 12.5786 17.7949 12.8392 17.7949 13.1446C17.7949 13.4142 17.7581 13.6568 17.6937 13.8814C17.62 14.106 17.5188 14.3037 17.3807 14.4654C17.2427 14.6272 17.0678 14.753 16.8561 14.8518C16.6445 14.9416 16.396 14.9955 16.1106 14.9955H14.5V11.3477H16.0922V11.3566ZM16.037 14.3307C16.1567 14.3307 16.2671 14.3127 16.3868 14.2767C16.4972 14.2408 16.5984 14.1779 16.6813 14.0881C16.7641 13.9982 16.8377 13.8904 16.893 13.7466C16.9482 13.6029 16.9758 13.4411 16.9758 13.2345C16.9758 13.0548 16.9574 12.8841 16.9206 12.7403C16.8837 12.5966 16.8193 12.4618 16.7365 12.363C16.6537 12.2641 16.5432 12.1743 16.4052 12.1204C16.2671 12.0665 16.1014 12.0395 15.899 12.0395H15.3099V14.3396H16.037V14.3307Z" fill="white"/>
<path d="M21.1168 11.3566V12.0305H19.1473V12.8122H20.9604V13.4322H19.1473V14.3217H21.1629V14.9955H18.3281V11.3477H21.1168V11.3566Z" fill="white"/>
<path d="M23.934 11.3574L25.333 15.0053H24.477L24.1917 14.1967H22.7928L22.4983 15.0053H21.6699L23.0781 11.3574H23.934V11.3574ZM23.98 13.5947L23.5107 12.2559H23.5015L23.0137 13.5947H23.98Z" fill="white"/>
<path d="M26.6668 11.3574V14.3314H28.4891V15.0053H25.8477V11.3574H26.6668V11.3574Z" fill="white"/>
<path d="M10.6254 14.8604C11.5759 14.8604 12.3465 14.1081 12.3465 13.1802C12.3465 12.2522 11.5759 11.5 10.6254 11.5C9.67485 11.5 8.9043 12.2522 8.9043 13.1802C8.9043 14.1081 9.67485 14.8604 10.6254 14.8604Z" fill="black"/>
<path d="M11.9249 21.6344C10.48 21.6344 9.32031 20.4933 9.32031 19.0916V17.1059C9.32031 16.4051 9.90014 15.8301 10.6272 15.8301C11.3451 15.8301 11.9342 16.3961 11.9342 17.1059V21.6344H11.9249Z" fill="black"/>
</svg>
