<svg width="38" height="27" viewBox="0 0 38 27" fill="none" xmlns="http://www.w3.org/2000/svg">
<g clip-path="url(#clip0_757_63910)">
<path d="M13.8248 13.1659V13.1697C13.8248 13.2076 13.8098 13.2435 13.7831 13.2701L10.4103 16.6429C10.3967 16.6565 10.3788 16.6638 10.3599 16.6638H10.3386C10.2993 16.6638 10.2673 16.6318 10.2673 16.5925V13.1697C10.2673 13.2076 10.2522 13.2435 10.2256 13.2701L6.87365 16.6221C6.84698 16.6487 6.81061 16.6638 6.77326 16.6638H6.7694C6.73158 16.6638 6.6957 16.6487 6.66855 16.6221L3.31709 13.2706C3.29042 13.2439 3.27539 13.2076 3.27539 13.1702V13.1664C3.27539 13.1285 3.29042 13.0927 3.31709 13.066L6.66901 9.71358C6.6957 9.68691 6.73205 9.67188 6.76987 9.67188H6.77375C6.81157 9.67188 6.84745 9.68691 6.87411 9.71358L10.2261 13.0655C10.2527 13.0922 10.2678 13.1285 10.2678 13.1659V9.74315C10.2678 9.70388 10.2998 9.67188 10.339 9.67188H10.3604C10.3793 9.67188 10.3972 9.67915 10.4108 9.69272L13.7836 13.0655C13.8103 13.0922 13.8248 13.1285 13.8248 13.1659Z" fill="#910590"/>
<path d="M16.9902 14.4912H18.2186C18.267 15.119 18.6537 15.549 19.2584 15.549H19.7178C20.1531 15.549 20.6559 15.2544 20.6559 14.6458C20.6559 13.2014 17.0871 14.0949 17.0871 11.583C17.0871 10.443 18.03 9.67969 19.1277 9.67969H19.6161C20.7187 9.67969 21.6086 10.3462 21.7198 11.6216H20.506C20.4286 11.0324 20.1094 10.7281 19.5871 10.7281H19.1423C18.7216 10.7281 18.3203 11.0178 18.3203 11.5059C18.3203 12.9454 21.8891 11.96 21.8891 14.5879C21.8891 15.8342 20.9316 16.5974 19.684 16.5974H19.2004C17.9721 16.5974 17.053 15.7569 16.9902 14.4912Z" fill="#910590"/>
<path d="M22.2715 16.52V9.74805H23.4079V13.4281L25.1682 11.6505H26.6044L24.7813 13.4716L26.764 16.5198H25.4342L23.9641 14.3362L23.4081 14.8871V16.5198L22.2715 16.52Z" fill="#910590"/>
<path d="M28.0544 13.7999V16.5197H26.918V11.6504H28.0544V12.3218C28.2332 11.9015 28.5814 11.6504 29.036 11.6504H29.6599V12.602H28.9491C28.3833 12.602 28.0544 13.2348 28.0544 13.7999Z" fill="#910590"/>
<path d="M30.0645 11.6504H31.2008V16.5197H30.0645V11.6504Z" fill="#910590"/>
<path d="M31.8555 9.74805H32.9871V16.5198H31.8555V9.74805Z" fill="#910590"/>
<path d="M33.5918 9.74805H34.7234V16.5198H33.5918V9.74805Z" fill="#910590"/>
<path d="M31.2498 9.74805H30.0215V10.9462H31.2498V9.74805Z" fill="#910590"/>
</g>
<defs>
<clipPath id="clip0_757_63910">
<rect width="31.4483" height="10.9385" fill="white" transform="translate(3.27539 7.75781)"/>
</clipPath>
</defs>
</svg>
