<svg width="38" height="27" viewBox="0 0 38 27" fill="none" xmlns="http://www.w3.org/2000/svg">
<path d="M10.5348 4.58594H17.2804C18.222 4.58594 18.8076 5.37768 18.588 6.35226L15.4474 20.2617C15.2258 21.2329 14.283 22.0253 13.3408 22.0253H6.59588C5.65557 22.0253 5.06861 21.2329 5.28827 20.2617L8.43011 6.35226C8.64977 5.37768 9.59205 4.58594 10.5348 4.58594Z" fill="#E21836"/>
<path d="M16.7199 4.58594H24.4771C25.4186 4.58594 24.9941 5.37768 24.7726 6.35226L21.6326 20.2617C21.4122 21.2329 21.481 22.0253 20.5375 22.0253H12.7803C11.8369 22.0253 11.2531 21.2329 11.4747 20.2617L14.6146 6.35226C14.8375 5.37768 15.7778 4.58594 16.7199 4.58594Z" fill="#00447C"/>
<path d="M24.1688 4.58594H30.9144C31.8573 4.58594 32.443 5.37768 32.2215 6.35226L29.0815 20.2617C28.8598 21.2329 27.9164 22.0253 26.9736 22.0253H20.2312C19.2878 22.0253 18.7026 21.2329 18.9236 20.2617L22.0641 6.35226C22.2838 5.37768 23.2254 4.58594 24.1688 4.58594Z" fill="#007B84"/>
<path d="M12.2972 9.04311C11.6035 9.05041 11.3986 9.04311 11.3332 9.02717C11.308 9.15048 10.8399 11.378 10.8386 11.3798C10.7378 11.8305 10.6645 12.1517 10.4154 12.3592C10.274 12.4798 10.1089 12.5379 9.91755 12.5379C9.60992 12.5379 9.43071 12.3804 9.40062 12.0815L9.39487 11.9789C9.39487 11.9789 9.48858 11.3753 9.48858 11.3719C9.48858 11.3719 9.97986 9.34197 10.0678 9.07364C10.0724 9.05838 10.0737 9.05041 10.0749 9.04311C9.11865 9.05176 8.94913 9.04311 8.93746 9.02717C8.93105 9.04905 8.90737 9.1749 8.90737 9.1749L8.40573 11.4628L8.36266 11.6568L8.2793 12.2915C8.2793 12.4798 8.31514 12.6334 8.3865 12.7634C8.61504 13.1753 9.26695 13.2371 9.63574 13.2371C10.1109 13.2371 10.5566 13.1329 10.8579 12.9428C11.3807 12.6241 11.5175 12.126 11.6395 11.6833L11.696 11.4562C11.696 11.4562 12.2021 9.3479 12.2881 9.07364C12.2914 9.05838 12.2927 9.05041 12.2972 9.04311ZM14.0191 10.7439C13.8971 10.7439 13.6741 10.7744 13.4738 10.8757C13.4012 10.9142 13.3324 10.9586 13.2599 11.0029L13.3254 10.7591L13.2895 10.7181C12.8648 10.8068 12.7698 10.8187 12.3775 10.8757L12.3446 10.8982C12.2991 11.2878 12.2586 11.5807 12.0898 12.3465C12.0255 12.6287 11.9587 12.9137 11.8918 13.1952L11.9099 13.231C12.3119 13.2092 12.4339 13.2092 12.7833 13.2151L12.8116 13.1834C12.856 12.9488 12.8617 12.8939 12.96 12.4188C13.0062 12.1935 13.1026 11.6986 13.1501 11.5224C13.2374 11.4807 13.3236 11.4396 13.4058 11.4396C13.6016 11.4396 13.5778 11.6158 13.5702 11.6861C13.5618 11.8039 13.4904 12.1889 13.4173 12.5195L13.3685 12.7329C13.3344 12.8905 13.2971 13.0436 13.2631 13.1998L13.2779 13.231C13.6741 13.2092 13.7949 13.2092 14.1333 13.2151L14.1731 13.1834C14.2343 12.817 14.2522 12.719 14.3607 12.1856L14.4153 11.9405C14.5213 11.4608 14.5746 11.2176 14.4944 11.0195C14.4095 10.7975 14.206 10.7439 14.0191 10.7439ZM15.9426 11.2461C15.732 11.2878 15.5977 11.3156 15.4641 11.3336C15.3318 11.3555 15.2027 11.3753 14.9992 11.4045L14.9831 11.4196L14.9683 11.4316C14.9471 11.588 14.9323 11.7232 14.9041 11.8821C14.8803 12.0465 14.8436 12.2332 14.784 12.5015C14.7377 12.7069 14.7139 12.7785 14.6876 12.8508C14.662 12.923 14.6337 12.9932 14.5817 13.1952L14.5939 13.2139L14.6041 13.231C14.7943 13.2217 14.9188 13.2151 15.0467 13.2139C15.1744 13.2091 15.3068 13.2139 15.5117 13.2151L15.5296 13.2L15.5488 13.1834C15.5784 13.0012 15.5829 12.9522 15.6009 12.8633C15.6189 12.768 15.6498 12.636 15.7256 12.2836C15.7614 12.118 15.8014 11.953 15.8385 11.7841C15.8772 11.6158 15.9176 11.4501 15.9561 11.2846L15.9503 11.2646L15.9426 11.2461ZM15.9471 10.5689C15.7557 10.4524 15.4198 10.4894 15.1937 10.6504C14.9683 10.8081 14.9427 11.032 15.1334 11.15C15.3215 11.2633 15.6587 11.2296 15.8828 11.0673C16.1077 10.9061 16.1358 10.6843 15.9471 10.5689ZM17.1045 13.2675C17.4917 13.2675 17.8886 13.1575 18.1874 12.8308C18.4172 12.5659 18.5226 12.1717 18.5591 12.0094C18.678 11.4714 18.5854 11.2202 18.4692 11.0672C18.2926 10.834 17.9805 10.7592 17.6568 10.7592C17.4621 10.7592 16.9985 10.779 16.6362 11.1235C16.3761 11.372 16.2559 11.7092 16.1834 12.0324C16.1103 12.3618 16.0261 12.9548 16.5547 13.1754C16.7178 13.2477 16.9529 13.2675 17.1045 13.2675ZM17.0742 12.057C17.1635 11.6496 17.2689 11.3077 17.5379 11.3077C17.7487 11.3077 17.764 11.5621 17.6703 11.9709C17.6535 12.0616 17.5765 12.399 17.4725 12.5426C17.3998 12.6486 17.3138 12.7129 17.2188 12.7129C17.1905 12.7129 17.0223 12.7129 17.0197 12.4553C17.0183 12.3281 17.0435 12.1981 17.0742 12.057ZM19.527 13.2151L19.5573 13.1834C19.6002 12.9489 19.6073 12.8937 19.7023 12.4188C19.7498 12.1936 19.8481 11.6987 19.8943 11.5224C19.9818 11.4805 20.0665 11.4395 20.1513 11.4395C20.3458 11.4395 20.3221 11.6157 20.3144 11.6859C20.3073 11.804 20.236 12.1888 20.1615 12.5194L20.1153 12.7328C20.08 12.8905 20.0415 13.0435 20.0075 13.1999L20.0222 13.2311C20.4198 13.2092 20.5361 13.2092 20.8764 13.2151L20.9175 13.1834C20.9772 12.8169 20.9933 12.7189 21.1051 12.1856L21.1584 11.9404C21.2649 11.4607 21.3188 11.2176 21.2399 11.0195C21.1526 10.7975 20.9478 10.7439 20.7634 10.7439C20.6413 10.7439 20.4172 10.7743 20.2181 10.8757C20.1469 10.9142 20.0755 10.9585 20.0055 11.0029L20.0665 10.7592L20.0338 10.718C19.6092 10.8068 19.5122 10.8187 19.1204 10.8757L19.0903 10.8983C19.0428 11.2879 19.0042 11.5806 18.8353 12.3466C18.771 12.6288 18.7043 12.9137 18.6375 13.1953L18.6554 13.2311C19.0581 13.2092 19.1783 13.2092 19.527 13.2151ZM22.448 13.231C22.473 13.1052 22.6214 12.3592 22.6228 12.3592C22.6228 12.3592 22.7492 11.8119 22.7569 11.792C22.7569 11.792 22.7967 11.735 22.8365 11.7125H22.895C23.4473 11.7125 24.0709 11.7125 24.5598 11.3415C24.8924 11.0871 25.1198 10.7114 25.2212 10.2548C25.2475 10.1429 25.2669 10.0098 25.2669 9.87661C25.2669 9.70175 25.2329 9.52874 25.1346 9.39356C24.8853 9.03382 24.3889 9.0272 23.8159 9.02449C23.8141 9.02449 23.5335 9.0272 23.5335 9.0272C22.8 9.03653 22.5059 9.03382 22.385 9.01855C22.3748 9.07368 22.3556 9.17171 22.3556 9.17171C22.3556 9.17171 22.0928 10.4278 22.0928 10.4299C22.0928 10.4299 21.4641 13.1006 21.4345 13.2264C22.0749 13.2185 22.3375 13.2185 22.448 13.231ZM22.9348 10.9996C22.9348 10.9996 23.2142 9.74601 23.2128 9.75076L23.2219 9.68648L23.2258 9.63746L23.3375 9.64934C23.3375 9.64934 23.9136 9.70039 23.9271 9.70175C24.1545 9.79249 24.2482 10.0264 24.1827 10.3317C24.1231 10.6107 23.9476 10.8453 23.7222 10.9586C23.5366 11.0546 23.3092 11.0625 23.0749 11.0625H22.9233L22.9348 10.9996ZM24.6741 12.0802C24.6003 12.4049 24.5154 12.9978 25.0414 13.2092C25.2091 13.2828 25.3594 13.3047 25.5121 13.2967C25.6734 13.2877 25.8229 13.2043 25.9613 13.0842C25.9488 13.1335 25.9363 13.1829 25.9238 13.2324L25.9477 13.2641C26.326 13.2477 26.4434 13.2477 26.8533 13.2509L26.8904 13.2217C26.9503 12.8588 27.0067 12.5063 27.1622 11.8119C27.238 11.4793 27.3136 11.1499 27.3914 10.8187L27.3792 10.7822C26.956 10.8631 26.8429 10.8804 26.4358 10.94L26.4049 10.9659C26.4008 10.9997 26.3965 11.0321 26.3926 11.0644C26.3293 10.959 26.2375 10.8689 26.096 10.8127C25.9149 10.7393 25.4898 10.8339 25.1243 11.1772C24.8674 11.4223 24.7441 11.7582 24.6741 12.0802ZM25.5629 12.1001C25.6535 11.7 25.7576 11.3614 26.0272 11.3614C26.1977 11.3614 26.2875 11.5238 26.2693 11.8006C26.2548 11.8696 26.2392 11.9424 26.2206 12.0246C26.1936 12.1435 26.1644 12.2614 26.1359 12.3794C26.107 12.4602 26.0733 12.5363 26.0363 12.587C25.9669 12.6885 25.8018 12.7514 25.7068 12.7514C25.6798 12.7514 25.5134 12.7514 25.5077 12.4983C25.5064 12.3723 25.5315 12.2426 25.5629 12.1001ZM30.2045 10.779L30.1718 10.7405C29.753 10.828 29.6772 10.8419 29.2925 10.8955L29.2642 10.9247C29.2629 10.9294 29.2617 10.9367 29.2598 10.9433L29.2584 10.9367C28.972 11.6184 28.9804 11.4713 28.7473 12.008C28.746 11.9836 28.746 11.9683 28.7446 11.9423L28.6863 10.779L28.6496 10.7405C28.2109 10.828 28.2006 10.8419 27.7955 10.8955L27.7639 10.9247C27.7595 10.9386 27.7595 10.9538 27.7568 10.9705L27.7595 10.9764C27.8101 11.2434 27.7979 11.1838 27.8487 11.6051C27.8724 11.8119 27.904 12.0198 27.9277 12.2241C27.9676 12.5658 27.99 12.7341 28.0388 13.2556C27.7652 13.7214 27.7004 13.8976 27.437 14.3064L27.4388 14.3104L27.2534 14.613C27.2322 14.6449 27.2129 14.6668 27.186 14.6761C27.1564 14.6912 27.1179 14.6939 27.0645 14.6939H26.9617L26.809 15.218L27.333 15.2274C27.6406 15.226 27.8339 15.0776 27.938 14.8781L28.2675 14.2957H28.2622L28.2969 14.2546C28.5186 13.7624 30.2045 10.779 30.2045 10.779ZM24.6741 17.6622H24.4518L25.2745 14.855H25.5475L25.6341 14.5658L25.6425 14.8874C25.6323 15.0862 25.7839 15.2624 26.1821 15.2332H26.6426L26.8011 14.6927H26.6278C26.5282 14.6927 26.482 14.6667 26.4878 14.6111L26.4794 14.2839H25.6265V14.2856C25.3508 14.2915 24.5274 14.3129 24.3607 14.3587C24.159 14.4123 23.9464 14.57 23.9464 14.57L24.0299 14.2805H23.2321L23.0659 14.855L22.2321 17.7051H22.0704L21.9117 18.2418H23.5006L23.4474 18.4207H24.2303L24.2823 18.2418H24.5019L24.6741 17.6622ZM24.0222 15.4254C23.8944 15.4618 23.6567 15.5724 23.6567 15.5724L23.8681 14.855H24.5019L24.349 15.3777C24.349 15.3777 24.1532 15.3896 24.0222 15.4254ZM24.0343 16.4503C24.0343 16.4503 23.8352 16.4761 23.7042 16.5066C23.5751 16.547 23.3331 16.6742 23.3331 16.6742L23.5514 15.9276H24.1885L24.0343 16.4503ZM23.6792 17.6688H23.0434L23.2277 17.0387H23.8615L23.6792 17.6688ZM25.2103 15.9276H26.1268L25.9951 16.3676H25.0665L24.927 16.8486H25.7396L25.1243 17.7423C25.0813 17.8079 25.0426 17.8311 24.9997 17.8496C24.9566 17.8722 24.9001 17.8986 24.8346 17.8986H24.6092L24.4543 18.4254H25.0439C25.3504 18.4254 25.5314 18.2816 25.6651 18.0928L26.087 17.4972L26.1776 18.102C26.1968 18.2153 26.2758 18.2816 26.3292 18.3074C26.3882 18.3379 26.4492 18.3903 26.5354 18.3981C26.6278 18.4022 26.6945 18.4054 26.7389 18.4054H27.0286L27.2026 17.8159H27.0883C27.0227 17.8159 26.9097 17.8045 26.8905 17.7833C26.8713 17.7575 26.8713 17.7178 26.8609 17.6574L26.769 17.0513H26.3927L26.5577 16.8486H27.4846L27.6271 16.3676H26.769L26.9027 15.9276H27.7581L27.9168 15.385H25.3664L25.2103 15.9276ZM17.4699 17.7913L17.6838 17.0572H18.5629L18.7236 16.5113H17.8436L17.9779 16.0594H18.8378L18.9971 15.5308H16.8456L16.6895 16.0594H17.1784L17.048 16.5113H16.5578L16.3954 17.0666H16.8841L16.599 18.0378C16.5605 18.1663 16.617 18.2154 16.6529 18.2751C16.6895 18.3332 16.7267 18.3717 16.8102 18.3936C16.8964 18.4135 16.9554 18.4253 17.0356 18.4253H18.0268L18.2033 17.8205L17.764 17.8827C17.6792 17.8827 17.4442 17.8722 17.4699 17.7913ZM17.5707 14.2772L17.3479 14.6926C17.3002 14.7833 17.2573 14.8396 17.2187 14.8656C17.1847 14.8875 17.1172 14.8966 17.0196 14.8966H16.9033L16.748 15.428H17.134C17.3196 15.428 17.4622 15.3578 17.5303 15.3227C17.6034 15.2823 17.6227 15.3054 17.6792 15.2491L17.8096 15.1325H19.0151L19.1751 14.5793H18.2927L18.4467 14.2772H17.5707ZM19.3504 17.802C19.3299 17.7715 19.3447 17.7177 19.3761 17.6058L19.7056 16.4807H20.8777C21.0485 16.4782 21.1718 16.4761 21.2521 16.4702C21.3382 16.4609 21.4319 16.4292 21.534 16.3722C21.6394 16.3125 21.6934 16.2495 21.7389 16.1773C21.7897 16.1052 21.8713 15.9475 21.9413 15.7042L22.3555 14.2805L21.1391 14.2878C21.1391 14.2878 20.7646 14.3448 20.5997 14.4077C20.4333 14.478 20.1955 14.674 20.1955 14.674L20.3054 14.2838H19.554L18.502 17.8827C18.4647 18.0225 18.4397 18.1239 18.434 18.1848C18.432 18.2504 18.5142 18.3154 18.5675 18.3644C18.6304 18.4134 18.7235 18.4055 18.8128 18.4134C18.9067 18.4207 19.0402 18.4253 19.2245 18.4253H19.8019L19.9792 17.8079L19.4622 17.8583C19.407 17.8583 19.367 17.8278 19.3504 17.802ZM19.9182 15.7209H21.1493L21.071 15.9739C21.06 15.9799 21.0337 15.9614 20.9084 15.9766H19.8424L19.9182 15.7209ZM20.1648 14.8721H21.4063L21.317 15.1769C21.317 15.1769 20.7319 15.171 20.6381 15.1888C20.2258 15.2624 19.9849 15.4897 19.9849 15.4897L20.1648 14.8721ZM21.0986 16.8214C21.0884 16.8592 21.0723 16.8822 21.0498 16.8995C21.0248 16.9162 20.9843 16.9221 20.924 16.9221H20.7486L20.7589 16.6139H20.0292L19.9996 18.1206C19.9985 18.2293 20.0087 18.2922 20.0858 18.3426C20.1629 18.4055 20.4005 18.4135 20.7203 18.4135H21.1775L21.3426 17.8495L20.9445 17.8721L20.8122 17.8801C20.7941 17.8721 20.7768 17.8648 20.7576 17.845C20.7408 17.8278 20.7126 17.8383 20.7172 17.7296L20.7203 17.3434L21.1377 17.3256C21.3632 17.3256 21.4595 17.25 21.5417 17.1779C21.6201 17.1088 21.6458 17.0295 21.6754 16.9221L21.7454 16.5802H21.1718L21.0986 16.8214Z" fill="#FEFEFE"/>
</svg>
