<svg width="14" height="14" viewBox="0 0 14 14" fill="none" xmlns="http://www.w3.org/2000/svg">
<path d="M13.3334 4.0608C13.8624 4.84027 14 6.31564 14 7C14 10.8598 10.8598 14 6.99996 14C3.14015 14 0 10.8598 0 7C0 4.90316 0.928315 2.93441 2.54705 1.59875C3.79631 0.567725 5.3778 0 6.99996 0C7.24707 0 7.49573 0.0129883 7.73986 0.0387085C8.10934 0.0775879 8.40396 0.387512 8.38371 0.758447C8.36209 1.15365 8.01329 1.44366 7.62595 1.40145C7.41985 1.37864 7.20931 1.36719 6.99996 1.36719C6.83111 1.36719 6.66278 1.37496 6.49547 1.39026C6.08779 1.42751 5.80393 1.81178 5.89493 2.211L5.89972 2.23219C5.97551 2.56501 5.78821 2.89647 5.46846 3.01593C3.81315 3.63458 2.70129 5.19796 2.70129 6.99889C2.70129 9.34763 4.6297 11.2585 6.99996 11.2585C9.33741 11.2585 11.2438 9.39993 11.2962 7.09604C10.6986 6.99026 10.1563 6.61488 9.86044 6.03195C9.36082 5.04749 9.75388 3.84436 10.7384 3.34474C11.6669 2.87349 12.76 3.21597 13.3334 4.0608Z" fill="#050000"/>
</svg>
