<svg width="17" height="18" viewBox="0 0 17 18" fill="none" xmlns="http://www.w3.org/2000/svg">
<g clip-path="url(#clip0_905_70784)">
<path fill-rule="evenodd" clip-rule="evenodd" d="M14.5505 14.748H12.6973C12.5054 14.748 12.3496 14.9026 12.3496 15.0925C12.3496 15.2825 12.5054 15.437 12.6973 15.437H14.5505C14.7424 15.437 14.8983 15.2825 14.8983 15.0925C14.8983 14.9026 14.7424 14.748 14.5505 14.748Z" fill="#222222"/>
<path fill-rule="evenodd" clip-rule="evenodd" d="M10.8438 11.7613H12.3879C12.5798 11.7613 12.7357 11.6067 12.7357 11.4168C12.7357 11.2268 12.5798 11.0723 12.3879 11.0723H10.8438C10.6519 11.0723 10.4961 11.2268 10.4961 11.4168C10.4961 11.6067 10.6519 11.7613 10.8438 11.7613Z" fill="#222222"/>
<path fill-rule="evenodd" clip-rule="evenodd" d="M10.8438 10.5367H14.5496C14.7415 10.5367 14.8973 10.3821 14.8973 10.1922C14.8973 10.0022 14.7415 9.84766 14.5496 9.84766H10.8438C10.6519 9.84766 10.4961 10.0022 10.4961 10.1922C10.4961 10.3821 10.6519 10.5367 10.8438 10.5367Z" fill="#222222"/>
<path d="M9.13956 5.61264C9.41387 6.15482 9.91678 6.50383 10.4705 6.60235C10.4648 6.87086 10.4313 7.13294 10.374 7.386H12.9187C12.9567 7.10074 12.9773 6.80905 12.9773 6.51349C12.9773 5.87665 12.8498 4.50381 12.3598 3.77875C11.8286 2.99317 10.8157 2.67378 9.95477 3.11165C9.04233 3.57656 8.67723 4.69698 9.14021 5.61264H9.13956Z" fill="#222222"/>
<path d="M8.96372 1.87142C9.34428 1.87142 9.65207 1.56234 9.65272 1.1805C9.65272 0.798651 9.34428 0.488925 8.96372 0.488281C8.58316 0.488281 8.27344 0.798007 8.27344 1.1805C8.27344 1.56234 8.58252 1.87142 8.96372 1.87142Z" fill="#222222"/>
<path d="M8.33427 10.0226C7.78243 10.3111 7.15461 10.4753 6.48815 10.4753C4.29109 10.4753 2.50357 8.69745 2.50357 6.51262C2.50357 4.83714 3.53448 3.38188 5.06895 2.80621C5.36515 2.69481 5.53901 2.38702 5.46882 2.07729L5.46432 2.05733C5.37996 1.68579 5.64268 1.32905 6.02002 1.29428C6.17521 1.28012 6.33168 1.27239 6.48815 1.27239C6.68197 1.27239 6.87708 1.28269 7.06832 1.30394C7.42763 1.34322 7.75088 1.07406 7.77084 0.706382C7.78952 0.36124 7.51649 0.0727631 7.17393 0.0360596C6.94791 0.0115906 6.71739 0 6.48815 0C4.9846 0 3.51903 0.528659 2.36126 1.48746C0.860279 2.73023 0 4.56218 0 6.51327C0 10.1044 2.91052 13.0265 6.48815 13.0265C7.1295 13.0265 7.74895 12.9325 8.33427 12.7574V10.0226Z" fill="#222222"/>
<path fill-rule="evenodd" clip-rule="evenodd" d="M16.0916 8.90016C16.06 8.59108 15.7973 8.34961 15.4773 8.34961H9.9183L9.8552 8.35283C9.56415 8.38181 9.33362 8.61104 9.304 8.89952L9.30078 8.96198V16.6665L9.30207 16.7058C9.32718 17.1095 9.73929 17.3832 10.1295 17.2422L10.7882 17.0046C10.9248 16.9556 11.0741 16.9556 11.2107 17.0046L12.4869 17.465C12.6234 17.5139 12.7728 17.5139 12.9093 17.465L14.1856 17.0046C14.3221 16.9556 14.4715 16.9556 14.608 17.0046L15.2667 17.2422C15.6569 17.3832 16.069 17.1095 16.0942 16.7058L16.0954 16.6665V8.96198L16.0922 8.89952L16.0916 8.90016ZM15.4 16.557L14.8449 16.3568C14.5552 16.2525 14.2377 16.2525 13.948 16.3568L12.6975 16.8075L11.4476 16.3568C11.1579 16.2525 10.8404 16.2525 10.5506 16.3568L9.99557 16.557V9.03861H15.4V16.557Z" fill="#222222"/>
</g>
<defs>
<clipPath id="clip0_905_70784">
<rect width="16.0942" height="17.5044" fill="white"/>
</clipPath>
</defs>
</svg>
