<svg width="24" height="18" viewBox="0 0 24 18" fill="none" xmlns="http://www.w3.org/2000/svg">
<path d="M23.9999 4.05078H18.1328V14.4008H23.9999V4.05078Z" fill="#23AA4A"/>
<path d="M17.4627 4.05078H13.5117V14.4008H17.4627V4.05078Z" fill="#CF1E29"/>
<path d="M13.5099 4.05078H7.75781V14.4008H13.5099V4.05078Z" fill="#F7941D"/>
<path d="M6.77559 4.05078H0V14.4008H6.77559V4.05078Z" fill="#EE3124"/>
<path d="M7.75882 4.05078H6.77539V14.4008H7.75882V4.05078Z" fill="#1A1817"/>
<path d="M18.1318 4.05078H17.4609V14.4008H18.1318V4.05078Z" fill="#047BC1"/>
<path d="M13.5574 11.3181L13.5669 11.3065L13.5727 11.3211C13.6238 11.4278 13.7019 11.5151 13.7971 11.572C13.8924 11.6289 14.0006 11.6529 14.1081 11.6409C14.3074 11.6436 14.5033 11.5817 14.6721 11.4627L14.6789 11.4573L14.7115 10.8731L14.6789 10.8997C14.6093 10.9497 14.5298 10.9794 14.4474 10.9862C14.3591 10.9862 14.323 10.9318 14.323 10.7978V9.35484C14.3362 9.19484 14.3186 9.03354 14.2715 8.88181C14.2244 8.73007 14.1488 8.59143 14.0498 8.47524C13.8205 8.23242 13.4727 8.11412 12.9866 8.11412C12.6298 8.10664 12.2755 8.18327 11.9468 8.33904L11.9357 8.34452V9.01965L11.9628 9.00431C12.2393 8.84494 12.5451 8.75981 12.856 8.75565C12.9437 8.74494 13.0325 8.7549 13.1166 8.78489C13.2007 8.81488 13.2783 8.86425 13.3444 8.92982C13.3899 8.99552 13.4233 9.07062 13.4428 9.15082C13.4623 9.23101 13.4675 9.31474 13.4581 9.39719V9.4589L13.4457 9.45452C13.2582 9.38989 13.0632 9.35631 12.8671 9.35484C12.1158 9.35484 11.6674 9.78861 11.6674 10.5189C11.6674 11.2236 12.0842 11.6617 12.755 11.6617C12.9026 11.6687 13.0499 11.6418 13.1878 11.5827C13.3258 11.5236 13.4515 11.4336 13.5574 11.3181V11.3181ZM13.0475 9.9259C13.1851 9.92699 13.3217 9.95187 13.4526 9.99966L13.4587 10.0022V10.4561C13.4664 10.6052 13.4237 10.7521 13.3392 10.8676C13.2937 10.9184 13.2394 10.9582 13.1797 10.9847C13.1199 11.0111 13.056 11.0236 12.9918 11.0213C12.9282 11.0266 12.8643 11.0159 12.8049 10.9898C12.7455 10.9638 12.6921 10.9232 12.6485 10.871C12.605 10.8187 12.5724 10.7562 12.5533 10.688C12.5341 10.6198 12.5288 10.5477 12.5378 10.4769C12.532 10.401 12.5413 10.3246 12.5651 10.2533C12.589 10.182 12.6268 10.1176 12.6757 10.0648C12.7246 10.012 12.7834 9.9721 12.8479 9.94807C12.9123 9.92403 12.9807 9.91646 13.0481 9.9259H13.0475ZM7.22697 11.642C7.42373 11.643 7.61662 11.5808 7.78284 11.4627L7.79326 11.4591L7.82061 10.8749L7.78805 10.9015C7.72083 10.9513 7.64337 10.981 7.56303 10.9877C7.4979 10.9877 7.43115 10.9654 7.43115 10.7993V9.37528C7.45216 9.08538 7.3901 8.79551 7.254 8.5479C7.14629 8.3984 7.00762 8.28069 6.85007 8.20502C6.69251 8.12936 6.52085 8.09802 6.35002 8.11376C6.17873 8.10588 6.00802 8.14089 5.85031 8.21624C5.69259 8.29159 5.55182 8.40538 5.43823 8.54936L5.43074 8.55958L5.4239 8.54863C5.31754 8.39781 5.17935 8.27908 5.02181 8.20316C4.86427 8.12723 4.69234 8.09651 4.52155 8.11376C4.34457 8.1043 4.16803 8.14069 4.00561 8.2201C3.84319 8.2995 3.69927 8.41979 3.58501 8.57163L3.57492 8.58587L3.43359 8.17656H2.55078V8.87323H2.91159V11.5982H3.77421V9.62649C3.75598 9.42579 3.79841 9.22403 3.8947 9.0536C3.9417 8.98869 4.00139 8.93679 4.06915 8.9019C4.13691 8.86701 4.21093 8.85008 4.28547 8.85242C4.35438 8.84894 4.42309 8.86334 4.48624 8.8945C4.54938 8.92566 4.60526 8.97273 4.64953 9.03206C4.72711 9.17716 4.75877 9.34735 4.73941 9.51513V11.5982H5.60235V9.62649C5.58412 9.42579 5.62655 9.22403 5.72284 9.0536C5.76987 8.98874 5.82957 8.93686 5.89733 8.90198C5.96508 8.86709 6.03908 8.85014 6.11361 8.85242C6.18263 8.8489 6.25144 8.86328 6.31469 8.89444C6.37795 8.92559 6.43394 8.97269 6.47832 9.03206C6.55586 9.17718 6.58753 9.34736 6.5682 9.51513V10.8406C6.55574 11.0348 6.59617 11.2287 6.68413 11.3966C6.75022 11.4839 6.83422 11.5517 6.92889 11.5945C7.02356 11.6372 7.12608 11.6535 7.22762 11.642H7.22697ZM20.9192 11.6409C21.0954 11.6465 21.269 11.5913 21.4164 11.4828L21.4232 11.477L21.4506 10.8738L21.418 10.8993C21.3503 10.9536 21.2697 10.9837 21.1865 10.9859C21.0836 10.9859 21.0286 10.941 20.9533 10.8008L20.3623 9.70281L21.1562 8.17656H20.2929L19.6762 9.36871H19.3756V6.78906H18.1528V7.4861H18.5133V11.6004H19.3756V10.0942H19.6417L20.1953 11.137C20.2572 11.2928 20.3593 11.4241 20.4885 11.5141C20.6176 11.6041 20.7679 11.6487 20.9198 11.642L20.9192 11.6409ZM17.8848 11.5989V9.36835C17.8972 9.20282 17.8801 9.0362 17.8345 8.87817C17.7888 8.72013 17.7156 8.57386 17.6191 8.44785C17.5064 8.33153 17.3739 8.24198 17.2295 8.18456C17.0851 8.12715 16.9319 8.10306 16.779 8.11376C16.6002 8.10573 16.4221 8.14295 16.2578 8.22266C16.0936 8.30237 15.9475 8.42251 15.8304 8.57419L15.8206 8.5877L15.6783 8.17656H14.7955V8.87323H15.1563V11.5993H16.0189V9.64037C16.0008 9.43747 16.0431 9.23355 16.1394 9.06054C16.1882 8.99245 16.2506 8.93814 16.3215 8.90199C16.3924 8.86585 16.4699 8.84887 16.5478 8.85242C16.6187 8.84695 16.6899 8.86038 16.7554 8.8916C16.8208 8.92282 16.8788 8.97095 16.9245 9.03206C17.0039 9.17653 17.0382 9.34642 17.0222 9.51513V11.6004L17.8848 11.5989ZM9.71681 11.5993C10.0745 11.6258 10.4328 11.5582 10.7631 11.4018C10.9464 11.302 11.0985 11.1422 11.1991 10.9435C11.2997 10.7448 11.3441 10.5165 11.3265 10.2888C11.344 10.0449 11.2839 9.80186 11.1567 9.60296C11.0295 9.40406 10.8436 9.26219 10.6319 9.20258L10.61 9.19564L10.6299 9.18395C10.7745 9.09528 10.8942 8.96316 10.9755 8.80243C11.0569 8.6417 11.0966 8.45872 11.0904 8.27405C11.0945 8.1224 11.0694 7.97154 11.0169 7.83172C10.9644 7.69191 10.8856 7.56643 10.7859 7.46382C10.5592 7.23744 10.2369 7.14506 9.67318 7.14506H7.87662V7.86948H8.25665V11.6004L9.71681 11.5993ZM9.15736 9.62138H9.64257C9.85078 9.59253 10.0612 9.65034 10.2339 9.78387C10.2861 9.84393 10.3259 9.91608 10.3506 9.99525C10.3752 10.0744 10.3841 10.1587 10.3766 10.2421C10.3766 10.7 10.176 10.8701 9.63671 10.8701H9.15736V9.62138ZM9.15671 7.87277H9.52306C9.70693 7.84433 9.8936 7.89479 10.0457 8.01408C10.0928 8.06784 10.1293 8.13208 10.1529 8.20265C10.1764 8.27321 10.1865 8.34854 10.1825 8.42375C10.1906 8.50253 10.1837 8.58233 10.1621 8.65787C10.1406 8.73341 10.1051 8.80296 10.0578 8.86191C9.91072 8.9817 9.7284 9.03395 9.54813 9.00796H9.15736L9.15671 7.87277Z" fill="white"/>
</svg>
