<svg width="35" height="25" viewBox="0 0 35 25" fill="none" xmlns="http://www.w3.org/2000/svg">
<path fill-rule="evenodd" clip-rule="evenodd" d="M15.8973 15.688V12.0578H17.9141C18.7412 12.0578 19.441 11.8062 20.0073 11.297C20.5926 10.7878 20.8852 10.1588 20.8852 9.39805C20.8852 8.65523 20.5926 8.02623 20.0073 7.51105C19.4347 6.99587 18.7348 6.73828 17.9141 6.73828H14.6758V15.688H15.8973ZM15.8973 10.9616V7.84652H17.9396C18.4295 7.84652 18.8303 8.00227 19.1484 8.31976C19.4728 8.62528 19.6383 8.99069 19.6383 9.40404C19.6383 9.82337 19.4728 10.1948 19.1484 10.5003C18.8303 10.8058 18.4231 10.9616 17.9396 10.9616H15.8973Z" fill="#222222"/>
<path fill-rule="evenodd" clip-rule="evenodd" d="M26.2167 10.045C25.695 9.58974 24.9825 9.3621 24.0791 9.3621C22.9211 9.3621 22.0432 9.76346 21.4515 10.5722L22.5267 11.2072C22.9211 10.662 23.4619 10.3925 24.1427 10.3925C24.5944 10.3925 24.9888 10.5302 25.326 10.8118C25.6632 11.0933 25.8286 11.4288 25.8286 11.8302V12.0938C25.3642 11.8422 24.7662 11.7164 24.0409 11.7164C23.1947 11.7164 22.514 11.9021 22.005 12.2795C21.496 12.6509 21.2415 13.1541 21.2415 13.7891C21.2415 14.3881 21.4833 14.8853 21.9668 15.2867C22.4503 15.688 23.0484 15.8857 23.7673 15.8857C24.6071 15.8857 25.2815 15.5383 25.7841 14.8374H25.835V15.688H26.9993V11.914C26.9993 11.1233 26.7384 10.5003 26.2167 10.045ZM22.9084 14.5558C22.6348 14.3581 22.5012 14.1065 22.5012 13.807C22.5012 13.4775 22.6667 13.196 23.0038 12.9624C23.3347 12.7407 23.7482 12.6269 24.2445 12.6269C24.9252 12.6269 25.4533 12.7707 25.835 13.0522C25.835 13.5375 25.6314 13.9568 25.2306 14.3162C24.8298 14.6756 24.3717 14.8554 23.8564 14.8554C23.4937 14.8554 23.1756 14.7535 22.9084 14.5558Z" fill="#222222"/>
<path d="M29.5696 18.3777L33.6414 9.55979H32.3117L30.4285 13.9568H30.403L28.4689 9.55979H27.1393L29.8241 15.2927L28.3099 18.3777H29.5696Z" fill="#222222"/>
<path d="M11.8477 11.4171C11.8477 11.0325 11.8133 10.6645 11.7495 10.3105H6.8125V12.3382L9.65583 12.3388C9.5405 13.0134 9.16937 13.5886 8.6007 13.972V15.2875H10.2932C11.2815 14.3713 11.8477 13.0171 11.8477 11.4171Z" fill="#4285F4"/>
<path d="M8.60134 13.9729C8.13021 14.2912 7.52351 14.4773 6.81375 14.4773C5.44269 14.4773 4.27959 13.552 3.86306 12.3047H2.11719V13.6614C2.98215 15.3805 4.75992 16.5603 6.81375 16.5603C8.23327 16.5603 9.42581 16.0927 10.2938 15.2878L8.60134 13.9729Z" fill="#34A853"/>
<path d="M3.69891 11.2973C3.69891 10.9471 3.75719 10.6085 3.86332 10.2903V8.93359H2.11745C1.7598 9.64449 1.55859 10.4469 1.55859 11.2973C1.55859 12.1477 1.76042 12.9501 2.11745 13.661L3.86332 12.3044C3.75719 11.9861 3.69891 11.6475 3.69891 11.2973Z" fill="#FABB05"/>
<path d="M6.81375 8.11809C7.58853 8.11809 8.28234 8.38536 8.83015 8.90763L10.33 7.40657C9.41906 6.55681 8.23143 6.03516 6.81375 6.03516C4.76054 6.03516 2.98215 7.21487 2.11719 8.93405L3.86306 10.2907C4.27959 9.04342 5.44269 8.11809 6.81375 8.11809Z" fill="#E94235"/>
</svg>
