<svg width="46" height="11" viewBox="0 0 46 11" fill="none" xmlns="http://www.w3.org/2000/svg">
<path d="M5.21777 0C5.53484 0 5.63661 0.0168769 5.7832 0.0439453C6.0694 0.0963167 6.27008 0.309497 6.24219 0.591797C6.22136 0.799819 6.08056 0.966598 5.89551 1.0293C5.64769 1.11168 4.97596 0.959947 4.63281 1.2373C4.46492 1.37352 4.39283 1.51899 4.32129 1.70312C4.24972 1.8874 4.18716 2.1559 3.71875 2.41309C2.70547 2.96998 2.0314 4.01362 2.03125 5.23535C2.0313 7.00102 3.45783 8.43164 5.21777 8.43164C6.80121 8.43149 8.12237 7.27268 8.3623 5.75293L8.37695 5.5918C8.37719 5.54159 8.372 5.49433 8.36133 5.45117C8.3175 5.27552 8.24975 5.16927 7.96582 4.95801C7.59889 4.68468 7.30371 4.28959 7.30371 3.78223C7.30405 3.00433 7.93295 2.37412 8.70801 2.37402C9.24033 2.37402 9.65775 2.70744 9.87109 3.02832C10.0288 3.26567 10.1836 3.57687 10.2764 3.93945C10.3658 4.2889 10.4355 4.68379 10.4355 5.23535C10.4355 8.12625 8.09965 10.4697 5.21777 10.4697C2.33592 10.4697 5.43832e-05 8.12623 0 5.23535C0.000217662 2.34461 2.33602 3.06564e-05 5.21777 0ZM32.0352 2.55664C32.646 2.55664 33.1871 2.71707 33.6436 3.03418C33.8688 3.1847 33.9843 3.37686 33.9844 3.60352C33.9844 3.94244 33.7225 4.20801 33.3887 4.20801C33.2125 4.20789 33.0647 4.12814 32.9717 4.06152C32.7456 3.89591 32.4729 3.74316 32.0127 3.74316C31.1567 3.74329 30.5117 4.40745 30.5117 5.28711C30.5119 6.1666 31.1569 6.82996 32.0127 6.83008C32.5744 6.83008 32.8424 6.61299 33.0195 6.46973C33.0849 6.41454 33.2134 6.32518 33.3809 6.30371L33.4551 6.29883C33.7958 6.29883 34.043 6.54682 34.043 6.88867C34.043 7.06304 33.9622 7.23822 33.8213 7.37012C33.6204 7.56395 33.0389 8.01758 31.998 8.01758C30.4257 8.01744 29.2405 6.85292 29.2402 5.30957C29.2402 3.76592 30.4677 2.55667 32.0352 2.55664ZM37.0869 2.55664C38.6544 2.55666 39.8456 3.72069 39.8457 5.26465C39.8457 6.80832 38.6173 8.01758 37.0498 8.01758C35.4825 8.01749 34.2922 6.85332 34.292 5.30957C34.292 3.76553 35.5194 2.55664 37.0869 2.55664ZM26.5918 2.59375C26.9495 2.59399 27.209 2.85398 27.209 3.21289V7.21387C27.2089 7.65859 26.8897 7.98047 26.4512 7.98047C26.1887 7.98037 25.9266 7.82845 25.751 7.57324L23.6699 4.62402V7.35449C23.6697 7.7231 23.4202 7.9803 23.0527 7.98047C22.6851 7.98047 22.428 7.72322 22.4277 7.35449V3.40527C22.4277 2.93521 22.7678 2.59381 23.2363 2.59375C23.5091 2.59375 23.7645 2.74012 23.9365 2.99512L25.9668 5.8623V3.21289C25.9668 2.85382 26.2299 2.59375 26.5918 2.59375ZM28.5039 6.74609L28.623 6.75781H28.625C28.9048 6.81389 29.1161 7.06065 29.1162 7.36035C29.1162 7.7021 28.8445 7.98029 28.5039 7.98047C28.1632 7.98047 27.8857 7.69928 27.8857 7.36035C27.8859 7.06325 28.0984 6.81445 28.3809 6.75781C28.4204 6.74947 28.4619 6.74609 28.5039 6.74609ZM45.2725 2.59375C45.694 2.59394 45.9999 2.90369 46 3.33105V7.36133C46 7.72041 45.7516 7.98047 45.3896 7.98047C45.0277 7.98046 44.7646 7.7204 44.7646 7.36133V4.91016L43.8057 6.72363C43.7173 6.90092 43.5593 7.13952 43.249 7.13965C42.9387 7.13965 42.7801 6.918 42.6768 6.72461L41.7178 4.91016V7.36133C41.7178 7.72041 41.4585 7.98047 41.1006 7.98047C40.7427 7.98047 40.4834 7.72041 40.4834 7.36133V3.36816C40.4834 2.91938 40.8076 2.59384 41.2549 2.59375C41.5597 2.59375 41.823 2.77498 41.9961 3.10449L43.2715 5.53613L44.5898 3.03809C44.7345 2.7557 44.9836 2.59375 45.2725 2.59375ZM16.5068 2.62988C16.8833 2.62998 17.1465 2.89135 17.1465 3.26465C17.1465 3.42621 17.0832 3.59199 16.9736 3.71875L14.4307 6.84473H16.6025C16.9176 6.84484 17.1465 7.07451 17.1465 7.39062C17.1465 7.70676 16.9176 7.94325 16.6025 7.94336H13.292C12.9198 7.94336 12.6592 7.68538 12.6592 7.31641C12.6593 7.1568 12.7308 6.97508 12.8457 6.8418L15.3672 3.72852H13.3506C13.0303 3.72852 12.8066 3.50115 12.8066 3.17578C12.8067 2.85048 13.0354 2.62988 13.3506 2.62988H16.5068ZM21.1523 2.62988C21.4813 2.62997 21.7109 2.85603 21.7109 3.19043C21.7109 3.5249 21.4813 3.7587 21.1523 3.75879H19.0107V4.68262H20.8135C21.1249 4.68262 21.3427 4.90047 21.3428 5.21289C21.3428 5.52544 21.125 5.74414 20.8135 5.74414H19.0107V6.81543H21.2256C21.5546 6.81544 21.7842 7.04145 21.7842 7.37598C21.784 7.71032 21.5545 7.94335 21.2256 7.94336H18.3711C18.0048 7.94336 17.7393 7.67366 17.7393 7.30176V3.26465C17.7393 2.89714 18.0048 2.62988 18.3711 2.62988H21.1523ZM37.0645 3.74414C36.2044 3.74421 35.5635 4.40742 35.5635 5.28711C35.5635 6.1668 36.2085 6.83001 37.0645 6.83008C37.9205 6.83008 38.5732 6.16685 38.5732 5.28711C38.5732 4.40738 37.9245 3.74414 37.0645 3.74414ZM7.37695 0.464844C7.70405 0.464844 7.96951 0.731456 7.96973 1.05957C7.96959 1.38775 7.7041 1.65332 7.37695 1.65332C7.04999 1.65311 6.78529 1.38762 6.78516 1.05957C6.78537 0.731588 7.05004 0.465057 7.37695 0.464844Z" fill="#A3A3A3"/>
</svg>
