<svg preserveAspectRatio="none" width="100%" height="100%" overflow="visible" style="display: block;" viewBox="0 0 83.2222 14" fill="none" xmlns="http://www.w3.org/2000/svg">
<g id="C2P horizontal mark - light 1" clip-path="url(#clip0_0_79)">
<path id="Vector" fill-rule="evenodd" clip-rule="evenodd" d="M14.5969 0.971788C14.8472 0.730697 15.2441 0.732467 15.4923 0.975778L19.9895 6.43758C20.3032 6.74509 20.3001 7.25082 19.9826 7.55445L15.571 13.0598C15.4624 13.1638 15.3177 13.2218 15.1672 13.2218H11.463C10.941 13.2218 10.6812 12.5897 11.0528 12.2233L15.5731 6.99957L11.463 1.94401H9.81431L13.7451 6.43782C14.0659 6.74393 14.0661 7.25549 13.7457 7.56195L8.58099 13.0598C8.47226 13.1638 8.32759 13.2218 8.17709 13.2218H2.33327C1.04493 13.2218 0.000381238 12.1776 0.000183275 10.8893C-0.000215146 8.29635 0.000123868 5.70348 0.000372411 3.11057C0.000495932 1.82195 1.04515 0.777344 2.33378 0.777344H4.65491C4.97742 0.777344 5.23888 1.03851 5.23888 1.36068C5.23888 1.68284 4.97742 1.94401 4.65491 1.94401H2.72402C1.86491 1.94401 1.16846 2.64046 1.16846 3.49957C1.16846 5.8329 1.16846 8.16623 1.16846 10.4996C1.16846 11.3587 1.86491 12.0551 2.72402 12.0551H7.74494L12.4586 6.99957L7.93831 1.77584C7.56674 1.40947 7.82647 0.777344 8.34851 0.777344H11.9589C12.1094 0.777344 12.254 0.835382 12.3627 0.939347L16.8602 6.43718C17.1806 6.74365 17.1803 7.2552 16.8597 7.56132L12.9288 12.0551H14.6811L18.6877 6.99957L14.5969 1.94401C14.3405 1.69068 14.3372 1.2218 14.5969 0.971788Z" fill="var(--fill-0, #141413)"/>
<path id="Vector_2" d="M25.6684 1.16623C25.6684 0.951455 25.4943 0.777344 25.2795 0.777344C25.0647 0.777344 24.8906 0.951455 24.8906 1.16623V12.8329C24.8906 13.0477 25.0647 13.2218 25.2795 13.2218C25.4943 13.2218 25.6684 13.0477 25.6684 12.8329V1.16623Z" fill="var(--fill-0, #141413)"/>
<path id="Vector_3" d="M43.9589 1.80273H37.7109V12.1966H43.9589V1.80273Z" fill="var(--fill-0, #FF5F00)"/>
<path id="Vector_4" d="M38.3548 6.99954C38.3533 4.97164 39.2673 3.05562 40.8335 1.80356C38.1728 -0.326235 34.3518 -0.0160118 32.0559 2.51621C29.76 5.04843 29.76 8.95246 32.0559 11.4847C34.3518 14.017 38.1728 14.3271 40.8335 12.1973C39.2668 10.9449 38.3527 9.02806 38.3548 6.99954Z" fill="var(--fill-0, #EB001B)"/>
<path id="Vector_5" d="M50.5929 11.1695V10.9472H50.6823V10.9102H50.4678V10.9472H50.5571V11.1695H50.5929Z" fill="var(--fill-0, #F79E1B)"/>
<path id="Vector_6" d="M51.0047 10.91H50.9333L50.8618 11.0953L50.7903 10.91H50.7188V11.1694H50.7724V10.9656L50.8318 11.1323H50.8976L50.955 10.9656V11.1694H51.0047V10.91Z" fill="var(--fill-0, #F79E1B)"/>
<path id="Vector_7" d="M51.3325 7.00014C51.3325 9.53083 49.9137 11.8393 47.6788 12.9452C45.4439 14.0511 42.7853 13.7602 40.832 12.1961C42.3975 10.943 43.3117 9.02722 43.3117 6.99922C43.3117 4.97121 42.3975 3.05545 40.832 1.80232C42.7853 0.238221 45.4439 -0.0526519 47.6788 1.05324C49.9137 2.15913 51.3325 4.46763 51.3325 6.99831V7.00014Z" fill="var(--fill-0, #F79E1B)"/>
<path id="Vector_8" fill-rule="evenodd" clip-rule="evenodd" d="M75.4481 8.4462C75.4534 7.13901 74.3408 6.57097 73.451 6.11662C72.8536 5.81167 72.3567 5.55793 72.3653 5.1663C72.3716 4.86946 72.6628 4.55423 73.298 4.47327C73.6131 4.43279 74.4814 4.40212 75.467 4.84371L75.8527 3.08843C75.3233 2.90076 74.6428 2.72168 73.7945 2.72168C71.6205 2.72168 70.0903 3.84647 70.0765 5.45823C70.0627 6.64926 71.1692 7.31408 72.0024 7.71028C72.8594 8.11627 73.1467 8.37636 73.143 8.73818C73.1379 9.29383 72.4598 9.53789 71.8271 9.54769C70.7547 9.56434 70.1191 9.27578 69.6152 9.04688L69.5674 9.02518L69.1691 10.8381C69.6833 11.0675 70.6311 11.2674 71.6154 11.2772C73.9294 11.2772 75.4405 10.1659 75.4481 8.4462ZM66.3371 2.87256L62.7728 11.1484H60.4475L58.6943 4.54319C58.5872 4.13596 58.4952 3.98754 58.1713 3.81582C57.6432 3.53615 56.7697 3.27488 56.001 3.11174L56.0539 2.87133H59.7972C60.2735 2.87133 60.7033 3.18044 60.8117 3.71524L61.738 8.50508L64.0269 2.87256H66.3371ZM83.2232 11.1486H81.1893L80.9241 9.91216H78.1023L77.6437 11.1486H75.3334L78.6328 3.47987C78.7914 3.11189 79.1469 2.87271 79.5692 2.87271H81.4475L83.2232 11.1486ZM78.7354 8.21559L79.8935 5.10738L80.5601 8.21559H78.7354ZM67.6617 11.1486L69.4803 2.87271H67.2823L65.4623 11.1486H67.6617Z" fill="var(--fill-0, #1A1F71)"/>
</g>
<defs>
<clipPath id="clip0_0_79">
<rect width="83.2222" height="14" fill="white"/>
</clipPath>
</defs>
</svg>
