<svg preserveAspectRatio="none" width="100%" height="100%" overflow="visible" style="display: block;" viewBox="0 0 22 22" fill="none" xmlns="http://www.w3.org/2000/svg">
<g id="&#226;&#156;&#133;Checkbox">
<path id="shape" fill-rule="evenodd" clip-rule="evenodd" d="M0.380602 3.08658C0 4.00544 0 5.17029 0 7.5V14.5C0 16.8297 0 17.9946 0.380602 18.9134C0.888072 20.1386 1.86144 21.1119 3.08658 21.6194C4.00544 22 5.17029 22 7.5 22H14.5C16.8297 22 17.9946 22 18.9134 21.6194C20.1386 21.1119 21.1119 20.1386 21.6194 18.9134C22 17.9946 22 16.8297 22 14.5V7.5C22 5.17029 22 4.00544 21.6194 3.08658C21.1119 1.86144 20.1386 0.888072 18.9134 0.380602C17.9946 0 16.8297 0 14.5 0H7.5C5.17029 0 4.00544 0 3.08658 0.380602C1.86144 0.888072 0.888072 1.86144 0.380602 3.08658ZM17.76 7.14995C18.1189 6.73023 18.0697 6.09899 17.65 5.74003C17.2302 5.38107 16.599 5.43033 16.24 5.85005L9.26161 14.0098L5.72275 10.3089C5.34107 9.90973 4.70806 9.89556 4.30889 10.2773C3.90973 10.6589 3.89556 11.2919 4.27725 11.6911L8.58022 16.1911C8.77555 16.3954 9.04819 16.5075 9.33072 16.4996C9.61324 16.4918 9.87925 16.3647 10.0629 16.15L17.76 7.14995Z" fill="var(--fill-0, #222222)"/>
</g>
</svg>
