<svg preserveAspectRatio="none" width="100%" height="100%" overflow="visible" style="display: block;" viewBox="0 0 12 12" fill="none" xmlns="http://www.w3.org/2000/svg">
<g id="Icon-Cashback&#226;&#156;&#133;">
<path id="Vector" d="M10.1465 3.0636L10.7456 3.02958C10.7275 2.71194 10.4647 2.4636 10.1465 2.4636V3.0636ZM10.5009 9.30486H11.1009V9.28783L11.1 9.27084L10.5009 9.30486ZM3.13738 11.1556L3.05761 11.7503L3.09732 11.7556H3.13738V11.1556ZM1.897 3.0636V2.4636C1.58446 2.4636 1.32427 2.70352 1.29897 3.01504L1.897 3.0636ZM3.60799 8.4387C3.36887 8.66811 3.36099 9.04793 3.5904 9.28705C3.81981 9.52617 4.19963 9.53404 4.43875 9.30463L4.02337 8.87167L3.60799 8.4387ZM8.31741 5.58348C8.55653 5.35407 8.5644 4.97425 8.33499 4.73513C8.10559 4.49601 7.72577 4.48814 7.48665 4.71755L7.90203 5.15052L8.31741 5.58348ZM3.66953 5.23132C3.66953 5.56269 3.93816 5.83132 4.26953 5.83132C4.6009 5.83132 4.86953 5.56269 4.86953 5.23132H4.26953H3.66953ZM4.86953 5.1875C4.86953 4.85613 4.6009 4.5875 4.26953 4.5875C3.93816 4.5875 3.66953 4.85613 3.66953 5.1875H4.26953H4.86953ZM7.27521 8.82768C7.27521 9.15905 7.54384 9.42768 7.87521 9.42768C8.20658 9.42768 8.47521 9.15905 8.47521 8.82768H7.87521H7.27521ZM8.47521 8.78386C8.47521 8.45249 8.20658 8.18386 7.87521 8.18386C7.54384 8.18386 7.27521 8.45249 7.27521 8.78386H7.87521H8.47521ZM10.1465 3.0636L9.54751 3.09761L9.9019 9.33887L10.5009 9.30486L11.1 9.27084L10.7456 3.02958L10.1465 3.0636ZM10.5009 9.30486H9.90094C9.90094 9.52494 9.83449 9.86272 9.65689 10.1262C9.50092 10.3576 9.24863 10.5556 8.76834 10.5556V11.1556V11.7556C9.67412 11.7556 10.2881 11.3367 10.6519 10.7969C10.9941 10.2893 11.1009 9.70168 11.1009 9.30486H10.5009ZM8.76834 11.1556V10.5556H3.13738V11.1556V11.7556H8.76834V11.1556ZM3.13738 11.1556L3.21716 10.5609C3.04454 10.5378 2.75495 10.4416 2.52033 10.2391C2.30543 10.0537 2.12291 9.77049 2.12291 9.30486H1.52291H0.922914C0.922914 10.1465 1.27856 10.7526 1.73635 11.1477C2.17442 11.5257 2.69207 11.7012 3.05761 11.7503L3.13738 11.1556ZM1.52291 9.30486H2.12291C2.12291 8.02729 2.36963 4.65663 2.49503 3.11216L1.897 3.0636L1.29897 3.01504C1.17499 4.54197 0.922914 7.96777 0.922914 9.30486H1.52291ZM1.897 3.0636V3.6636H4.02337V3.0636V2.4636H1.897V3.0636ZM4.02337 3.0636L4.62243 3.09719C4.63744 2.82938 4.73619 2.41692 4.96391 2.08942C5.17334 1.78821 5.48731 1.55687 6.01192 1.55687V0.956871V0.356871C5.0402 0.356871 4.37958 0.827774 3.97866 1.40437C3.59603 1.95468 3.44867 2.59557 3.42431 3.03001L4.02337 3.0636ZM4.02337 3.0636V3.6636H8.07923V3.0636V2.4636H4.02337V3.0636ZM8.07923 3.0636V3.6636H10.1465V3.0636V2.4636H8.07923V3.0636ZM6.01192 0.956871V1.55687C6.53901 1.55687 6.87064 1.79107 7.0981 2.10151C7.34224 2.43472 7.45678 2.85142 7.48183 3.11943L8.07923 3.0636L8.67663 3.00777C8.63604 2.57353 8.4651 1.93687 8.06608 1.39228C7.65038 0.824916 6.98117 0.356871 6.01192 0.356871V0.956871ZM4.02337 8.87167L4.43875 9.30463L8.31741 5.58348L7.90203 5.15052L7.48665 4.71755L3.60799 8.4387L4.02337 8.87167ZM4.26953 5.23132H4.86953V5.1875H4.26953H3.66953V5.23132H4.26953ZM7.87521 8.82768H8.47521V8.78386H7.87521H7.27521V8.82768H7.87521Z" fill="var(--stroke-0, #139028)"/>
</g>
</svg>
