<svg preserveAspectRatio="none" width="100%" height="100%" overflow="visible" style="display: block;" viewBox="0 0 48 10.9248" fill="none" xmlns="http://www.w3.org/2000/svg">
<path id="Union" d="M5.44434 0C5.77475 2.37961e-05 5.88124 0.0166796 6.03418 0.0449219C6.33262 0.0997066 6.54281 0.322715 6.51367 0.617188C6.49182 0.833879 6.3441 1.00773 6.15137 1.07324C5.89271 1.15923 5.19098 1.00131 4.83301 1.29102C4.65803 1.43307 4.58339 1.58437 4.50879 1.77637C4.43412 1.96861 4.36837 2.24926 3.87988 2.51758C2.82264 3.09871 2.11927 4.18713 2.11914 5.46191C2.11914 7.30424 3.60707 8.79667 5.44336 8.79688C7.09554 8.79664 8.47426 7.58771 8.72461 6.00195C8.74321 5.88402 8.74706 5.777 8.72461 5.68652C8.67889 5.50328 8.60764 5.3932 8.31152 5.17285C7.92859 4.88768 7.62119 4.4757 7.62109 3.94629C7.62125 3.13443 8.2771 2.47572 9.08594 2.47559C9.64133 2.47579 10.0773 2.82436 10.2998 3.15918C10.4643 3.4068 10.6259 3.73115 10.7227 4.10938C10.816 4.47404 10.8886 4.88631 10.8887 5.46191C10.8887 8.47827 8.45118 10.9244 5.44434 10.9248C2.43717 10.9248 0 8.47851 0 5.46191C0.000196728 2.44549 2.43729 0 5.44434 0ZM33.4287 2.66699C34.0661 2.66705 34.6311 2.83497 35.1074 3.16602C35.3423 3.32305 35.4618 3.52335 35.4619 3.75977C35.4619 4.11342 35.1891 4.39062 34.8408 4.39062C34.657 4.39055 34.5024 4.3078 34.4053 4.23828C34.1694 4.06548 33.8854 3.90628 33.4053 3.90625C32.512 3.90625 31.8389 4.59862 31.8389 5.5166C31.8391 6.43437 32.5121 7.12695 33.4053 7.12695C33.9912 7.12692 34.2703 6.90046 34.4551 6.75098C34.5328 6.68522 34.6975 6.57227 34.9102 6.57227C35.2656 6.57231 35.5233 6.83094 35.5234 7.1875C35.5234 7.36949 35.4391 7.55279 35.292 7.69043C35.0823 7.89275 34.4755 8.36523 33.3896 8.36523C31.7488 8.36511 30.5117 7.14974 30.5117 5.53906C30.512 3.92852 31.7932 2.66699 33.4287 2.66699ZM38.6992 2.66699C40.3348 2.66699 41.5781 3.88206 41.5781 5.49316C41.5781 7.10392 40.2968 8.36522 38.6611 8.36523C37.0255 8.36523 35.7832 7.15021 35.7832 5.53906C35.7834 3.92826 37.0639 2.66719 38.6992 2.66699ZM27.748 2.70605C28.1214 2.70613 28.3926 2.97791 28.3926 3.35254V7.52734C28.3924 7.99125 28.0591 8.32715 27.6016 8.32715C27.3277 8.32701 27.0543 8.16773 26.8711 7.90137L24.6992 4.8252V7.67285C24.6992 8.05786 24.4384 8.32715 24.0547 8.32715C23.6712 8.32694 23.4033 8.05771 23.4033 7.67285V3.55273C23.4033 3.06225 23.7582 2.70612 24.2471 2.70605C24.5317 2.70605 24.799 2.8589 24.9785 3.125L27.0957 6.11621V3.35254C27.0957 2.97785 27.3704 2.70605 27.748 2.70605ZM29.7432 7.03906L29.8721 7.05176C30.163 7.11112 30.3828 7.36857 30.3828 7.68066C30.3826 8.03716 30.0986 8.32715 29.7432 8.32715C29.3878 8.32709 29.0979 8.03407 29.0977 7.68066C29.0977 7.32704 29.3873 7.03912 29.7432 7.03906ZM47.2402 2.70605C47.6804 2.70605 48 3.02946 48 3.47559V7.68066C48 8.05534 47.7409 8.32714 47.3633 8.32715C46.9856 8.32715 46.7109 8.05535 46.7109 7.68066V5.12305L45.7109 7.01562C45.6187 7.20067 45.4528 7.44922 45.1289 7.44922C44.8053 7.44902 44.64 7.21741 44.5322 7.01562L43.5322 5.12305V7.68066C43.5322 8.05535 43.2612 8.32715 42.8877 8.32715C42.5143 8.32712 42.2432 8.05533 42.2432 7.68066V3.51367C42.2433 3.04549 42.5821 2.70612 43.0488 2.70605C43.367 2.70605 43.6416 2.89531 43.8223 3.23926L45.1523 5.77637L46.5283 3.16992C46.6604 2.91191 46.876 2.75025 47.1299 2.71387L47.2402 2.70605ZM17.2246 2.74414C17.6175 2.74414 17.8926 3.01665 17.8926 3.40625C17.8925 3.57481 17.8262 3.74763 17.7119 3.87988L15.0596 7.14258H17.3252C17.6538 7.1428 17.8926 7.38211 17.8926 7.71191C17.8924 8.04152 17.6537 8.28786 17.3252 8.28809H13.8701C13.482 8.28806 13.2112 8.01951 13.2109 7.63477C13.2109 7.46807 13.2852 7.27784 13.4053 7.13867L16.0361 3.89062H13.9316C13.5974 3.89062 13.3643 3.65299 13.3643 3.31348C13.3643 2.97402 13.6028 2.74414 13.9316 2.74414H17.2246ZM22.0723 2.74414C22.4156 2.74414 22.6553 2.98003 22.6553 3.3291C22.6552 3.67805 22.4156 3.92188 22.0723 3.92188H19.8379V4.88574H21.7188C22.0438 4.88574 22.2715 5.11332 22.2715 5.43945C22.2714 5.76552 22.0438 5.99316 21.7188 5.99316H19.8379V7.11133H22.1494C22.4925 7.11155 22.7324 7.34738 22.7324 7.69629C22.7322 8.04497 22.4924 8.28786 22.1494 8.28809H19.1699C18.788 8.28788 18.5108 8.00699 18.5107 7.61914V3.40527C18.511 3.02217 18.7881 2.74435 19.1699 2.74414H22.0723ZM38.6768 3.90625C37.7793 3.90625 37.1094 4.59862 37.1094 5.5166C37.1094 6.43456 37.7835 7.12695 38.6768 7.12695C39.5698 7.12675 40.251 6.43443 40.251 5.5166C40.251 4.59876 39.574 3.90646 38.6768 3.90625ZM7.69727 0.484375C8.03838 0.484639 8.31524 0.762251 8.31543 1.10449C8.31543 1.4469 8.0385 1.72434 7.69727 1.72461C7.35592 1.72448 7.0791 1.44698 7.0791 1.10449C7.07929 0.762166 7.35604 0.484501 7.69727 0.484375Z" fill="var(--fill-0, #A3A3A3)"/>
</svg>
