<svg width="38" height="27" viewBox="0 0 38 27" fill="none" xmlns="http://www.w3.org/2000/svg">
<path d="M35.5074 10.2727C35.0636 9.9772 34.3917 9.8282 33.5111 9.8282H31.2049L30.3475 14.3503H27.3263L27.5205 13.3243H29.3404L29.5561 12.172L27.7372 12.1745L27.9319 11.1531H29.8065L30.0559 9.82846H26.249L25.4351 14.1179H24.038L24.8574 9.82823H22.8674L22.0535 14.1177H20.6925L21.5127 9.82823H19.5237L18.6653 14.3503H15.6224L15.8147 13.3243H17.642L17.8579 12.1786L16.0324 12.1768L16.2261 11.1534H18.1217L18.3696 9.82812H6.50641L5.83118 13.4115L4.48649 9.82812H2.42179L1.31055 15.6762H3.28236L3.95497 11.994L5.25983 15.6762H12.3266L13.1858 11.1528H14.2911L13.4319 15.6762H32.026L32.5651 12.8209L33.4372 15.6762H35.41L34.5063 13.3431L34.7131 13.2998C35.1286 13.2276 35.5038 13.0134 35.7709 12.696C36.0291 12.3553 36.1606 11.9396 36.1439 11.5169C36.1439 10.9636 35.9356 10.5566 35.5069 10.2723L35.5074 10.2727ZM10.6107 14.3503H7.59241L7.78739 13.3243H9.68059L9.8952 12.1687H8.02023L8.20081 11.1534H11.2147L10.6102 14.3503L10.6107 14.3503ZM33.8819 12.3804C33.6835 12.5152 33.3959 12.5808 33.0025 12.5808H32.6125L32.9117 11.0114H33.1985C33.5251 11.0114 33.7633 11.0623 33.9277 11.166C34.0196 11.2253 34.0939 11.307 34.1431 11.403C34.1924 11.4989 34.2149 11.6057 34.2085 11.7127C34.2161 11.8417 34.1902 11.9706 34.133 12.0873C34.0758 12.204 33.9893 12.3048 33.8813 12.3804L33.8819 12.3804Z" fill="#83BA3B"/>
</svg>
