<svg width="33" height="25" viewBox="0 0 33 25" fill="none" xmlns="http://www.w3.org/2000/svg">
<path d="M12.7764 2.69922C12.99 2.69922 13.205 2.7101 13.416 2.73242C13.7354 2.76617 13.9902 3.03552 13.9727 3.35742C13.954 3.7004 13.6522 3.95167 13.3174 3.91504C13.1393 3.89525 12.9573 3.88574 12.7764 3.88574C12.6304 3.88574 12.4845 3.89298 12.3398 3.90625C11.9876 3.93877 11.7426 4.27181 11.8213 4.61816L11.8252 4.63672C11.8906 4.92547 11.7285 5.21277 11.4521 5.31641C10.0211 5.85332 9.05957 7.2105 9.05957 8.77344C9.05967 10.8117 10.7273 12.4697 12.7764 12.4697C14.7971 12.4697 16.4449 10.8568 16.4902 8.85742C15.9738 8.76555 15.5047 8.4402 15.249 7.93457C14.8171 7.0802 15.1576 6.03516 16.0088 5.60156C16.8114 5.19299 17.7563 5.4906 18.252 6.22363C18.7092 6.90016 18.8281 8.18055 18.8281 8.77441C18.828 12.1241 16.1132 14.8496 12.7764 14.8496C9.43951 14.8496 6.72472 12.1241 6.72461 8.77441C6.72461 6.95467 7.52732 5.24607 8.92676 4.08691C10.0068 3.19213 11.374 2.69922 12.7764 2.69922ZM15.084 3.15527C15.4389 3.15549 15.7266 3.44441 15.7266 3.80078C15.7263 4.15694 15.4388 4.4451 15.084 4.44531C14.729 4.44531 14.4407 4.15707 14.4404 3.80078C14.4404 3.44428 14.7289 3.15527 15.084 3.15527Z" fill="#222222"/>
<path d="M25.4654 20.4094C25.669 20.4094 25.834 20.5731 25.834 20.775C25.834 20.9769 25.669 21.1406 25.4654 21.1406H23.4999C23.2964 21.1406 23.1314 20.9769 23.1314 20.775C23.1314 20.5731 23.2964 20.4094 23.4999 20.4094H25.4654Z" fill="#222222"/>
<path d="M23.1723 16.5094C23.3759 16.5094 23.5409 16.6731 23.5409 16.875C23.5409 17.0769 23.3759 17.2406 23.1723 17.2406H21.5344C21.3309 17.2406 21.1659 17.0769 21.1659 16.875C21.1659 16.6731 21.3309 16.5094 21.5344 16.5094H23.1723Z" fill="#222222"/>
<path d="M25.4654 15.2094C25.669 15.2094 25.834 15.3731 25.834 15.575C25.834 15.7769 25.669 15.9406 25.4654 15.9406H21.5344C21.3309 15.9406 21.1659 15.7769 21.1659 15.575C21.1659 15.3731 21.3309 15.2094 21.5344 15.2094H25.4654Z" fill="#222222"/>
<path fill-rule="evenodd" clip-rule="evenodd" d="M26.4482 13.625C26.7875 13.625 27.0664 13.8808 27.0999 14.2087L27.1034 14.275V22.447L27.1021 22.4889C27.0752 22.9172 26.6382 23.2073 26.2243 23.0579L25.5256 22.8059C25.381 22.7538 25.2224 22.7538 25.0777 22.8059L23.7239 23.2941C23.5792 23.3462 23.4206 23.3462 23.276 23.2941L21.9221 22.8059C21.7775 22.7538 21.6189 22.7538 21.4743 22.8059L20.7756 23.0579C20.3617 23.2073 19.9247 22.9172 19.8978 22.4889L19.8965 22.447V14.275L19.9 14.2087C19.9313 13.9027 20.1764 13.6595 20.4848 13.6285L20.5517 13.625H26.4482ZM20.6336 22.3308L21.2225 22.1185C21.5298 22.0076 21.8666 22.0076 22.1739 22.1185L23.4999 22.5968L24.826 22.1185C25.1332 22.0076 25.4701 22.0076 25.7774 22.1185L26.3663 22.3308V14.3562H20.6336V22.3308Z" fill="#222222"/>
</svg>
