<svg width="30" height="24" viewBox="0 0 30 24" fill="none" xmlns="http://www.w3.org/2000/svg">
<path d="M12.7764 2.69922C12.99 2.69922 13.205 2.7101 13.416 2.73242C13.7354 2.76617 13.9902 3.03552 13.9727 3.35742C13.954 3.7004 13.6522 3.95167 13.3174 3.91504C13.1393 3.89525 12.9573 3.88574 12.7764 3.88574C12.6304 3.88574 12.4845 3.89298 12.3398 3.90625C11.9876 3.93877 11.7426 4.27181 11.8213 4.61816L11.8252 4.63672C11.8906 4.92547 11.7285 5.21277 11.4521 5.31641C10.0211 5.85332 9.05957 7.2105 9.05957 8.77344C9.05967 10.8117 10.7273 12.4697 12.7764 12.4697C14.7971 12.4697 16.4449 10.8568 16.4902 8.85742C15.9738 8.76555 15.5047 8.4402 15.249 7.93457C14.8171 7.0802 15.1576 6.03516 16.0088 5.60156C16.8114 5.19299 17.7563 5.4906 18.252 6.22363C18.7092 6.90016 18.8281 8.18055 18.8281 8.77441C18.828 12.1241 16.1132 14.8496 12.7764 14.8496C9.43951 14.8496 6.72472 12.1241 6.72461 8.77441C6.72461 6.95467 7.52732 5.24607 8.92676 4.08691C10.0068 3.19213 11.374 2.69922 12.7764 2.69922ZM15.084 3.15527C15.4389 3.15549 15.7266 3.44441 15.7266 3.80078C15.7263 4.15694 15.4388 4.4451 15.084 4.44531C14.729 4.44531 14.4407 4.15707 14.4404 3.80078C14.4404 3.44428 14.7289 3.15527 15.084 3.15527Z" fill="#222222"/>
<path d="M22.6678 21.2673H24.8406M21.8416 23.0334H25.6869C26.5325 23.0334 27.218 22.3046 27.218 21.4057V13.6823C27.218 12.7834 26.5325 12.0547 25.6869 12.0547H21.8416C20.996 12.0547 20.3105 12.7834 20.3105 13.6823V21.4057C20.3105 22.3046 20.996 23.0334 21.8416 23.0334Z" stroke="#222222" stroke-width="1.2" stroke-linecap="round"/>
</svg>
